<?xml version="1.0" encoding="utf-8"?>
<!-- Generator: Adobe Illustrator 19.1.0, SVG Export Plug-In . SVG Version: 6.00 Build 0)  -->
<svg version="1.1" id="Layer_1" xmlns="http://www.w3.org/2000/svg" xmlns:xlink="http://www.w3.org/1999/xlink" x="0px" y="0px"
	 viewBox="0 0 64 64" style="enable-background:new 0 0 64 64;" xml:space="preserve">
<style type="text/css">
	.st0{fill:#23232C;}
	.st1{fill:#FF8E02;}
	.st2{fill-rule:evenodd;clip-rule:evenodd;fill:#23232C;}
	.st3{fill-rule:evenodd;clip-rule:evenodd;fill:#FF8E02;}
</style>
<path class="st2" d="M32,0c3.7,0,3.6,2.9,7.5,3.9c3.9,1,5.3-1.5,8.5,0.3c3.3,1.9,1.7,4.4,4.5,7.2c2.8,2.8,5.3,1.2,7.2,4.5
	c1.9,3.3-0.8,4.7,0.3,8.5c1,3.8,4,3.7,4,7.5c0,3.8-3,3.7-4,7.5c-1,3.8,1.7,5.2-0.3,8.5c-1.9,3.3-4.4,1.7-7.2,4.5
	c-2.8,2.8-1.2,5.3-4.5,7.2c-3.2,1.9-4.6-0.7-8.5,0.4c-3.9,1-3.8,3.9-7.5,3.9c-3.9,0-3.7-3-7.5-4c-3.8-1-5.2,1.7-8.5-0.3
	c-3.2-1.9-1.7-4.3-4.5-7.2c-2.8-2.8-5.3-1.3-7.2-4.5c-1.9-3.2,0.7-4.6-0.4-8.5C2.9,35.7,0,35.7,0,32c0-3.7,2.9-3.6,3.9-7.5
	c1-3.9-1.5-5.2,0.3-8.5c1.9-3.2,4.3-1.7,7.2-4.5c2.8-2.8,1.3-5.3,4.5-7.2c3.2-1.9,4.6,0.7,8.5-0.4C28.3,2.9,28.3,0,32,0L32,0z"/>
</svg>
