<?xml version="1.0" encoding="utf-8"?><!DOCTYPE svg PUBLIC "-//W3C//DTD SVG 1.1//EN" "http://www.w3.org/Graphics/SVG/1.1/DTD/svg11.dtd"><svg version="1.1" baseProfile="full" xmlns="http://www.w3.org/2000/svg" xmlns:xlink="http://www.w3.org/1999/xlink" xmlns:ev="http://www.w3.org/2001/xml-events"   height="37px"   width="60px" ><path fill="rgb( 253, 142, 38 )" d="M41.803,37 C41.803,37 41.803,19.403 41.803,19.403 C41.803,19.403 41.803,14.438 41.803,14.438 C41.803,14.438 60,14.438 60,14.438 C60,14.438 60,37 60,37 C60,37 41.803,37 41.803,37 ZM46.058,17.327 C46.058,17.327 44.157,17.327 44.157,17.327 C44.157,17.327 44.157,19.403 44.157,19.403 C44.157,19.403 46.058,19.403 46.058,19.403 C46.058,19.403 46.058,17.327 46.058,17.327 ZM46.058,22.2 C46.058,22.2 44.157,22.2 44.157,22.2 C44.157,22.2 44.157,24.276 44.157,24.276 C44.157,24.276 46.058,24.276 46.058,24.276 C46.058,24.276 46.058,22.2 46.058,22.2 ZM46.058,27.073 C46.058,27.073 44.157,27.073 44.157,27.073 C44.157,27.073 44.157,29.149 44.157,29.149 C44.157,29.149 46.058,29.149 46.058,29.149 C46.058,29.149 46.058,27.073 46.058,27.073 ZM46.058,31.947 C46.058,31.947 44.157,31.947 44.157,31.947 C44.157,31.947 44.157,34.022 44.157,34.022 C44.157,34.022 46.058,34.022 46.058,34.022 C46.058,34.022 46.058,31.947 46.058,31.947 ZM51.852,17.327 C51.852,17.327 49.951,17.327 49.951,17.327 C49.951,17.327 49.951,19.403 49.951,19.403 C49.951,19.403 51.852,19.403 51.852,19.403 C51.852,19.403 51.852,17.327 51.852,17.327 ZM51.852,22.2 C51.852,22.2 49.951,22.2 49.951,22.2 C49.951,22.2 49.951,24.276 49.951,24.276 C49.951,24.276 51.852,24.276 51.852,24.276 C51.852,24.276 51.852,22.2 51.852,22.2 ZM51.852,27.073 C51.852,27.073 49.951,27.073 49.951,27.073 C49.951,27.073 49.951,29.149 49.951,29.149 C49.951,29.149 51.852,29.149 51.852,29.149 C51.852,29.149 51.852,27.073 51.852,27.073 ZM51.852,31.947 C51.852,31.947 49.951,31.947 49.951,31.947 C49.951,31.947 49.951,34.022 49.951,34.022 C49.951,34.022 51.852,34.022 51.852,34.022 C51.852,34.022 51.852,31.947 51.852,31.947 ZM57.556,17.327 C57.556,17.327 55.654,17.327 55.654,17.327 C55.654,17.327 55.654,19.403 55.654,19.403 C55.654,19.403 57.556,19.403 57.556,19.403 C57.556,19.403 57.556,17.327 57.556,17.327 ZM57.556,22.2 C57.556,22.2 55.654,22.2 55.654,22.2 C55.654,22.2 55.654,24.276 55.654,24.276 C55.654,24.276 57.556,24.276 57.556,24.276 C57.556,24.276 57.556,22.2 57.556,22.2 ZM57.556,27.073 C57.556,27.073 55.654,27.073 55.654,27.073 C55.654,27.073 55.654,29.149 55.654,29.149 C55.654,29.149 57.556,29.149 57.556,29.149 C57.556,29.149 57.556,27.073 57.556,27.073 ZM57.556,31.947 C57.556,31.947 55.654,31.947 55.654,31.947 C55.654,31.947 55.654,34.022 55.654,34.022 C55.654,34.022 57.556,34.022 57.556,34.022 C57.556,34.022 57.556,31.947 57.556,31.947 ZM21.094,0 C21.094,0 39.291,0 39.291,0 C39.291,0 39.291,37 39.291,37 C39.291,37 21.094,37 21.094,37 C21.094,37 21.094,0 21.094,0 ZM34.945,34.022 C34.945,34.022 36.846,34.022 36.846,34.022 C36.846,34.022 36.846,31.947 36.846,31.947 C36.846,31.947 34.945,31.947 34.945,31.947 C34.945,31.947 34.945,34.022 34.945,34.022 ZM34.945,29.149 C34.945,29.149 36.846,29.149 36.846,29.149 C36.846,29.149 36.846,27.073 36.846,27.073 C36.846,27.073 34.945,27.073 34.945,27.073 C34.945,27.073 34.945,29.149 34.945,29.149 ZM34.945,24.276 C34.945,24.276 36.846,24.276 36.846,24.276 C36.846,24.276 36.846,22.2 36.846,22.2 C36.846,22.2 34.945,22.2 34.945,22.2 C34.945,22.2 34.945,24.276 34.945,24.276 ZM34.945,19.403 C34.945,19.403 36.846,19.403 36.846,19.403 C36.846,19.403 36.846,17.327 36.846,17.327 C36.846,17.327 34.945,17.327 34.945,17.327 C34.945,17.327 34.945,19.403 34.945,19.403 ZM34.945,14.438 C34.945,14.438 36.846,14.438 36.846,14.438 C36.846,14.438 36.846,12.363 36.846,12.363 C36.846,12.363 34.945,12.363 34.945,12.363 C34.945,12.363 34.945,14.438 34.945,14.438 ZM34.945,9.56599999999997 C34.945,9.56599999999997 36.846,9.56599999999997 36.846,9.56599999999997 C36.846,9.56599999999997 36.846,7.49000000000001 36.846,7.49000000000001 C36.846,7.49000000000001 34.945,7.49000000000001 34.945,7.49000000000001 C34.945,7.49000000000001 34.945,9.56599999999997 34.945,9.56599999999997 ZM34.945,4.69299999999998 C34.945,4.69299999999998 36.846,4.69299999999998 36.846,4.69299999999998 C36.846,4.69299999999998 36.846,2.61599999999999 36.846,2.61599999999999 C36.846,2.61599999999999 34.945,2.61599999999999 34.945,2.61599999999999 C34.945,2.61599999999999 34.945,4.69299999999998 34.945,4.69299999999998 ZM29.242,34.022 C29.242,34.022 31.143,34.022 31.143,34.022 C31.143,34.022 31.143,31.947 31.143,31.947 C31.143,31.947 29.242,31.947 29.242,31.947 C29.242,31.947 29.242,34.022 29.242,34.022 ZM29.242,29.149 C29.242,29.149 31.143,29.149 31.143,29.149 C31.143,29.149 31.143,27.073 31.143,27.073 C31.143,27.073 29.242,27.073 29.242,27.073 C29.242,27.073 29.242,29.149 29.242,29.149 ZM29.242,24.276 C29.242,24.276 31.143,24.276 31.143,24.276 C31.143,24.276 31.143,22.2 31.143,22.2 C31.143,22.2 29.242,22.2 29.242,22.2 C29.242,22.2 29.242,24.276 29.242,24.276 ZM29.242,19.403 C29.242,19.403 31.143,19.403 31.143,19.403 C31.143,19.403 31.143,17.327 31.143,17.327 C31.143,17.327 29.242,17.327 29.242,17.327 C29.242,17.327 29.242,19.403 29.242,19.403 ZM29.242,14.438 C29.242,14.438 31.143,14.438 31.143,14.438 C31.143,14.438 31.143,12.363 31.143,12.363 C31.143,12.363 29.242,12.363 29.242,12.363 C29.242,12.363 29.242,14.438 29.242,14.438 ZM29.242,9.56599999999997 C29.242,9.56599999999997 31.143,9.56599999999997 31.143,9.56599999999997 C31.143,9.56599999999997 31.143,7.49000000000001 31.143,7.49000000000001 C31.143,7.49000000000001 29.242,7.49000000000001 29.242,7.49000000000001 C29.242,7.49000000000001 29.242,9.56599999999997 29.242,9.56599999999997 ZM29.242,4.69299999999998 C29.242,4.69299999999998 31.143,4.69299999999998 31.143,4.69299999999998 C31.143,4.69299999999998 31.143,2.61599999999999 31.143,2.61599999999999 C31.143,2.61599999999999 29.242,2.61599999999999 29.242,2.61599999999999 C29.242,2.61599999999999 29.242,4.69299999999998 29.242,4.69299999999998 ZM23.447,34.022 C23.447,34.022 25.349,34.022 25.349,34.022 C25.349,34.022 25.349,31.947 25.349,31.947 C25.349,31.947 23.447,31.947 23.447,31.947 C23.447,31.947 23.447,34.022 23.447,34.022 ZM23.447,29.149 C23.447,29.149 25.349,29.149 25.349,29.149 C25.349,29.149 25.349,27.073 25.349,27.073 C25.349,27.073 23.447,27.073 23.447,27.073 C23.447,27.073 23.447,29.149 23.447,29.149 ZM23.447,24.276 C23.447,24.276 25.349,24.276 25.349,24.276 C25.349,24.276 25.349,22.2 25.349,22.2 C25.349,22.2 23.447,22.2 23.447,22.2 C23.447,22.2 23.447,24.276 23.447,24.276 ZM23.447,19.403 C23.447,19.403 25.349,19.403 25.349,19.403 C25.349,19.403 25.349,17.327 25.349,17.327 C25.349,17.327 23.447,17.327 23.447,17.327 C23.447,17.327 23.447,19.403 23.447,19.403 ZM23.447,14.438 C23.447,14.438 25.349,14.438 25.349,14.438 C25.349,14.438 25.349,12.363 25.349,12.363 C25.349,12.363 23.447,12.363 23.447,12.363 C23.447,12.363 23.447,14.438 23.447,14.438 ZM23.447,9.56599999999997 C23.447,9.56599999999997 25.349,9.56599999999997 25.349,9.56599999999997 C25.349,9.56599999999997 25.349,7.49000000000001 25.349,7.49000000000001 C25.349,7.49000000000001 23.447,7.49000000000001 23.447,7.49000000000001 C23.447,7.49000000000001 23.447,9.56599999999997 23.447,9.56599999999997 ZM23.447,4.69299999999998 C23.447,4.69299999999998 25.349,4.69299999999998 25.349,4.69299999999998 C25.349,4.69299999999998 25.349,2.61599999999999 25.349,2.61599999999999 C25.349,2.61599999999999 23.447,2.61599999999999 23.447,2.61599999999999 C23.447,2.61599999999999 23.447,4.69299999999998 23.447,4.69299999999998 ZM0.995,19.403 C0.995,19.403 19.192,6.76799999999997 19.192,6.76799999999997 C19.192,6.76799999999997 19.192,37 19.192,37 C19.192,37 0.995,37 0.995,37 C0.995,37 0.995,19.403 0.995,19.403 ZM14.847,34.022 C14.847,34.022 16.748,34.022 16.748,34.022 C16.748,34.022 16.748,31.947 16.748,31.947 C16.748,31.947 14.847,31.947 14.847,31.947 C14.847,31.947 14.847,34.022 14.847,34.022 ZM14.847,29.149 C14.847,29.149 16.748,29.149 16.748,29.149 C16.748,29.149 16.748,27.073 16.748,27.073 C16.748,27.073 14.847,27.073 14.847,27.073 C14.847,27.073 14.847,29.149 14.847,29.149 ZM14.847,24.276 C14.847,24.276 16.748,24.276 16.748,24.276 C16.748,24.276 16.748,22.2 16.748,22.2 C16.748,22.2 14.847,22.2 14.847,22.2 C14.847,22.2 14.847,24.276 14.847,24.276 ZM14.847,19.403 C14.847,19.403 16.748,19.403 16.748,19.403 C16.748,19.403 16.748,17.327 16.748,17.327 C16.748,17.327 14.847,17.327 14.847,17.327 C14.847,17.327 14.847,19.403 14.847,19.403 ZM14.847,14.438 C14.847,14.438 16.748,14.438 16.748,14.438 C16.748,14.438 16.748,12.363 16.748,12.363 C16.748,12.363 14.847,12.363 14.847,12.363 C14.847,12.363 14.847,14.438 14.847,14.438 ZM9.14299999999997,34.022 C9.14299999999997,34.022 11.044,34.022 11.044,34.022 C11.044,34.022 11.044,31.947 11.044,31.947 C11.044,31.947 9.14299999999997,31.947 9.14299999999997,31.947 C9.14299999999997,31.947 9.14299999999997,34.022 9.14299999999997,34.022 ZM9.14299999999997,29.149 C9.14299999999997,29.149 11.044,29.149 11.044,29.149 C11.044,29.149 11.044,27.073 11.044,27.073 C11.044,27.073 9.14299999999997,27.073 9.14299999999997,27.073 C9.14299999999997,27.073 9.14299999999997,29.149 9.14299999999997,29.149 ZM9.14299999999997,24.276 C9.14299999999997,24.276 11.044,24.276 11.044,24.276 C11.044,24.276 11.044,22.2 11.044,22.2 C11.044,22.2 9.14299999999997,22.2 9.14299999999997,22.2 C9.14299999999997,22.2 9.14299999999997,24.276 9.14299999999997,24.276 ZM9.14299999999997,19.403 C9.14299999999997,19.403 11.044,19.403 11.044,19.403 C11.044,19.403 11.044,17.327 11.044,17.327 C11.044,17.327 9.14299999999997,17.327 9.14299999999997,17.327 C9.14299999999997,17.327 9.14299999999997,19.403 9.14299999999997,19.403 ZM3.34899999999999,34.022 C3.34899999999999,34.022 5.25,34.022 5.25,34.022 C5.25,34.022 5.25,31.947 5.25,31.947 C5.25,31.947 3.34899999999999,31.947 3.34899999999999,31.947 C3.34899999999999,31.947 3.34899999999999,34.022 3.34899999999999,34.022 ZM3.34899999999999,29.149 C3.34899999999999,29.149 5.25,29.149 5.25,29.149 C5.25,29.149 5.25,27.073 5.25,27.073 C5.25,27.073 3.34899999999999,27.073 3.34899999999999,27.073 C3.34899999999999,27.073 3.34899999999999,29.149 3.34899999999999,29.149 ZM3.34899999999999,24.276 C3.34899999999999,24.276 5.25,24.276 5.25,24.276 C5.25,24.276 5.25,22.2 5.25,22.2 C5.25,22.2 3.34899999999999,22.2 3.34899999999999,22.2 C3.34899999999999,22.2 3.34899999999999,24.276 3.34899999999999,24.276 Z "/></svg>