<?xml version="1.0" encoding="utf-8"?>
<!-- Generator: Adobe Illustrator 19.1.0, SVG Export Plug-In . SVG Version: 6.00 Build 0)  -->
<svg version="1.1" id="Layer_1" xmlns="http://www.w3.org/2000/svg" xmlns:xlink="http://www.w3.org/1999/xlink" x="0px" y="0px"
	 viewBox="-607 369 64 64" style="enable-background:new -607 369 64 64;" xml:space="preserve">
<style type="text/css">
	.st0{fill:#23232C;}
</style>
<path class="st0" d="M-543,429.8h-45.2v-14h45.2V429.8z M-543,394h-45.2v14h45.2V394z M-543,372.2h-45.2v14h45.2V372.2z M-593,379.2
	c0,3.9-3.1,7-7,7s-7-3.1-7-7c0-3.9,3.1-7,7-7S-593,375.3-593,379.2z M-595,376.8l-1.6-1.6l-4.7,4.7l-2.1-2.1l-1.6,1.6l3.7,3.7
	l1.6-1.7L-595,376.8z M-593,401c0,3.9-3.1,7-7,7s-7-3.1-7-7s3.1-7,7-7S-593,397.1-593,401z M-595,398.7l-1.6-1.6l-4.7,4.7l-2.1-2.1
	l-1.6,1.6l3.7,3.7l1.6-1.7L-595,398.7z M-593,422.8c0,3.9-3.1,7-7,7s-7-3.1-7-7c0-3.9,3.1-7,7-7S-593,419-593,422.8z M-595,420.5
	l-1.6-1.6l-4.7,4.7l-2.1-2.1l-1.6,1.6l3.7,3.7l1.6-1.7L-595,420.5z"/>
</svg>
