<?xml version="1.0" encoding="utf-8"?>
<!-- Generator: Adobe Illustrator 18.1.0, SVG Export Plug-In . SVG Version: 6.00 Build 0)  -->
<svg version="1.1" id="Layer_1" xmlns:ev="http://www.w3.org/2001/xml-events"
	 xmlns="http://www.w3.org/2000/svg" xmlns:xlink="http://www.w3.org/1999/xlink" x="0px" y="0px" viewBox="-917 384 84 16.3"
	 enable-background="new -917 384 84 16.3" xml:space="preserve">
<g>
	<path fill="#209D5C" d="M-875.9,400.3c-6.6,0-12.4-1-17.2-2.4c-14.5-4.1-23.2-11.9-23.6-12.2c-0.4-0.4-0.4-1-0.1-1.4
		c0.4-0.4,1-0.4,1.4-0.1c0.1,0.1,8.7,7.8,22.8,11.8c13,3.6,33.4,4.7,56.9-10.9c0.5-0.3,1.1-0.2,1.4,0.3c0.3,0.5,0.2,1.1-0.3,1.4
		C-849.9,397.1-864.2,400.3-875.9,400.3z"/>
	<path fill="#209D5C" d="M-837,398c-0.1,0-0.2,0-0.2,0c-0.5-0.1-0.9-0.7-0.7-1.2l2.7-10.7l-11.6,0.9c-0.6,0-1-0.4-1.1-0.9
		c0-0.6,0.4-1,0.9-1.1l13-1c0.3,0,0.6,0.1,0.8,0.4c0.2,0.2,0.3,0.6,0.2,0.9l-3,12C-836.1,397.7-836.6,398-837,398z"/>
</g>
</svg>
