<?xml version="1.0" encoding="utf-8"?><!DOCTYPE svg PUBLIC "-//W3C//DTD SVG 1.1//EN" "http://www.w3.org/Graphics/SVG/1.1/DTD/svg11.dtd"><svg version="1.1" baseProfile="full" xmlns="http://www.w3.org/2000/svg" xmlns:xlink="http://www.w3.org/1999/xlink" xmlns:ev="http://www.w3.org/2001/xml-events"   height="26px"   width="26px" ><path fill="rgb( 183, 184, 188 )" d="M23.957,25.9960000000001 C23.957,25.058 23.196,24.297 22.251,24.297 C21.314,24.297 20.553,25.058 20.553,25.9960000000001 C20.553,25.9960000000001 17.788,25.9960000000001 17.788,25.9960000000001 C17.788,25.058 17.027,24.297 16.082,24.297 C15.145,24.297 14.384,25.058 14.384,25.9960000000001 C14.384,25.9960000000001 11.619,25.9960000000001 11.619,25.9960000000001 C11.619,25.058 10.858,24.297 9.91999999999999,24.297 C8.976,24.297 8.215,25.058 8.215,25.9960000000001 C8.215,25.9960000000001 5.44999999999999,25.9960000000001 5.44999999999999,25.9960000000001 C5.44999999999999,25.058 4.68899999999999,24.297 3.751,24.297 C2.80699999999999,24.297 2.04599999999999,25.058 2.04599999999999,25.9960000000001 C2.04599999999999,25.9960000000001 0.00800000000001,25.9960000000001 0.00800000000001,25.9960000000001 C0.00800000000001,25.9960000000001 0.00800000000001,0.01000000000022 0.00800000000001,0.01000000000022 C0.00800000000001,0.01000000000022 25.995,0.01000000000022 25.995,0.01000000000022 C25.995,0.01000000000022 25.995,25.9960000000001 25.995,25.9960000000001 C25.995,25.9960000000001 23.957,25.9960000000001 23.957,25.9960000000001 ZM13.001,4.29599999999982 C8.62700000000001,4.29599999999982 5.08000000000001,7.83300000000008 5.08000000000001,12.1950000000002 C5.08000000000001,16.5590000000002 8.62700000000001,20.096 13.001,20.096 C17.376,20.096 20.922,16.5590000000002 20.922,12.1950000000002 C20.922,7.83300000000008 17.376,4.29599999999982 13.001,4.29599999999982 ZM16.315,15.8609999999999 C16.027,16.1109999999999 15.681,16.3110000000001 15.277,16.4609999999998 C14.873,16.6089999999999 14.424,16.7060000000001 13.932,16.7530000000002 C13.932,16.7530000000002 13.932,18.1199999999999 13.932,18.1199999999999 C13.932,18.1199999999999 12.482,18.1199999999999 12.482,18.1199999999999 C12.482,18.1199999999999 12.482,16.7249999999999 12.482,16.7249999999999 C11.794,16.6509999999998 11.127,16.498 10.482,16.2649999999999 C9.83600000000001,16.0329999999999 9.24799999999999,15.7260000000001 8.71899999999999,15.3449999999998 C8.71899999999999,15.3449999999998 9.97300000000001,13.4899999999998 9.97300000000001,13.4899999999998 C10.419,13.8069999999998 10.854,14.058 11.276,14.2440000000001 C11.699,14.4299999999998 12.129,14.5599999999999 12.566,14.634 C12.566,14.634 12.566,12.9609999999998 12.566,12.9609999999998 C12.008,12.8310000000001 11.518,12.6819999999998 11.095,12.5140000000001 C10.672,12.348 10.319,12.145 10.036,11.9079999999999 C9.75299999999999,11.6709999999998 9.53800000000001,11.395 9.39400000000001,11.0790000000002 C9.251,10.7629999999999 9.178,10.386 9.178,9.94900000000007 C9.178,9.94900000000007 9.178,9.92200000000003 9.178,9.92200000000003 C9.178,9.51200000000017 9.25299999999999,9.13599999999997 9.40100000000001,8.79199999999992 C9.55000000000001,8.44900000000007 9.76599999999999,8.14899999999989 10.05,7.89300000000003 C10.333,7.63700000000017 10.682,7.42999999999984 11.095,7.27199999999993 C11.509,7.11499999999978 11.98,7.01699999999983 12.51,6.98000000000002 C12.51,6.98000000000002 12.51,6.18499999999995 12.51,6.18499999999995 C12.51,6.18499999999995 13.96,6.18499999999995 13.96,6.18499999999995 C13.96,6.18499999999995 13.96,7.02199999999993 13.96,7.02199999999993 C14.536,7.08699999999999 15.066,7.21199999999999 15.549,7.39800000000014 C16.032,7.58399999999983 16.482,7.82099999999991 16.901,8.10899999999992 C16.901,8.10899999999992 15.758,9.97699999999986 15.758,9.97699999999986 C15.47,9.77300000000014 15.165,9.60100000000011 14.844,9.46099999999979 C14.525,9.32200000000012 14.205,9.21599999999989 13.89,9.14100000000008 C13.89,9.14100000000008 13.89,10.7579999999998 13.89,10.7579999999998 C14.447,10.8879999999999 14.933,11.0390000000002 15.346,11.2109999999998 C15.76,11.384 16.106,11.5880000000002 16.385,11.8240000000001 C16.663,12.0619999999999 16.873,12.3429999999998 17.012,12.6680000000001 C17.152,12.9940000000001 17.221,13.3699999999999 17.221,13.7979999999998 C17.221,13.7979999999998 17.221,13.8249999999998 17.221,13.8249999999998 C17.221,14.2530000000002 17.142,14.636 16.984,14.9760000000001 C16.826,15.3150000000001 16.603,15.6100000000001 16.315,15.8609999999999 ZM12.58,9.01499999999987 C12.236,9.04300000000012 11.992,9.11999999999989 11.848,9.24499999999989 C11.703,9.36999999999989 11.632,9.52599999999984 11.632,9.71199999999999 C11.632,9.71199999999999 11.632,9.73999999999978 11.632,9.73999999999978 C11.632,9.92599999999993 11.695,10.078 11.82,10.194 C11.945,10.3099999999999 12.199,10.4189999999999 12.58,10.5210000000002 C12.58,10.5210000000002 12.58,9.01499999999987 12.58,9.01499999999987 ZM14.81,13.9789999999998 C14.81,13.7930000000001 14.745,13.6390000000001 14.615,13.5189999999998 C14.485,13.3980000000001 14.239,13.2860000000001 13.876,13.1840000000002 C13.876,13.1840000000002 13.876,14.7170000000001 13.876,14.7170000000001 C14.498,14.6529999999998 14.81,14.415 14.81,14.0059999999999 C14.81,14.0059999999999 14.81,13.9789999999998 14.81,13.9789999999998 Z "/></svg>