<?xml version="1.0" encoding="utf-8"?><!DOCTYPE svg PUBLIC "-//W3C//DTD SVG 1.1//EN" "http://www.w3.org/Graphics/SVG/1.1/DTD/svg11.dtd"><svg version="1.1" baseProfile="full" xmlns="http://www.w3.org/2000/svg" xmlns:xlink="http://www.w3.org/1999/xlink" xmlns:ev="http://www.w3.org/2001/xml-events"   height="53px"   width="57px" ><path fill="rgb( 183, 184, 188 )" d="M56.208,53 C56.208,53 0.79200000000003,53 0.79200000000003,53 C0.35400000000004,53 0,52.6410000000001 0,52.1970000000001 C0,52.1970000000001 0,27.3029999999999 0,27.3029999999999 C0,27.3029999999999 25.333,27.3029999999999 25.333,27.3029999999999 C25.333,27.3029999999999 25.333,33.7269999999999 25.333,33.7269999999999 C25.333,33.7269999999999 32.458,33.7269999999999 32.458,33.7269999999999 C32.458,33.7269999999999 32.458,27.3029999999999 32.458,27.3029999999999 C32.458,27.3029999999999 57,27.3029999999999 57,27.3029999999999 C57,27.3029999999999 57,52.1970000000001 57,52.1970000000001 C57,52.6410000000001 56.646,53 56.208,53 ZM0,11.2420000000002 C0,10.8009999999999 0.35599999999999,10.4400000000001 0.79200000000003,10.4400000000001 C0.79200000000003,10.4400000000001 14.853,10.4400000000001 14.853,10.4400000000001 C14.875,9.63700000000017 15.042,7.59299999999985 16.347,5.29500000000007 C17.717,2.87899999999991 20.59,0 26.495,0 C26.495,0 30.966,0 30.966,0 C36.874,0 39.748,2.88599999999997 41.1180000000001,5.31800000000021 C42.323,7.45699999999988 42.5549999999999,9.63700000000017 42.6,10.4400000000001 C42.6,10.4400000000001 56.208,10.4400000000001 56.208,10.4400000000001 C56.646,10.4400000000001 57,10.799 57,11.2420000000002 C57,11.2420000000002 57,24.0909999999999 57,24.0909999999999 C57,24.0909999999999 0,24.0909999999999 0,24.0909999999999 C0,24.0909999999999 0,11.2420000000002 0,11.2420000000002 ZM38.649,10.4400000000001 C38.554,8.83300000000008 37.747,4.01499999999987 30.965,4.01499999999987 C30.965,4.01499999999987 26.495,4.01499999999987 26.495,4.01499999999987 C19.633,4.01499999999987 18.888,8.83300000000008 18.808,10.4400000000001 C18.808,10.4400000000001 38.649,10.4400000000001 38.649,10.4400000000001 Z "/></svg>