<?xml version="1.0" encoding="UTF-8" standalone="no"?>
<svg width="27px" height="31px" viewBox="0 0 27 31" version="1.1" xmlns="http://www.w3.org/2000/svg" xmlns:xlink="http://www.w3.org/1999/xlink" xmlns:sketch="http://www.bohemiancoding.com/sketch/ns">
    <!-- Generator: Sketch 3.3.3 (12081) - http://www.bohemiancoding.com/sketch -->
    <title>Shape</title>
    <desc>Created with Sketch.</desc>
    <defs></defs>
    <g id="Page-1" stroke="none" stroke-width="1" fill="none" fill-rule="evenodd" sketch:type="MSPage">
        <path d="M0.47265625,2.98871875 L0.47265625,27.0347187 C0.47265625,28.6787188 1.81465625,30.0117188 3.47265625,30.0117188 L24.5976562,30.0117188 C25.6326563,30.0117188 26.4726562,29.1777188 26.4726562,28.1507187 C26.4726562,27.1237187 25.6326563,26.2907187 24.5976562,26.2907187 L5.72265625,26.2907187 C4.89765625,26.2907187 4.22265625,25.6207188 4.22265625,24.8027188 C4.22265625,23.9847187 4.89765625,23.3137187 5.72265625,23.3137187 L23.4726562,23.3137187 C25.1296563,23.3137187 26.4726562,21.9807188 26.4726562,20.3377188 L26.4726562,2.98871875 C26.4726562,1.34371875 25.1296563,0.01171875 23.4726562,0.01171875 L16.9726562,0.01171875 L16.9726562,13.3997187 C16.9726562,13.5937188 16.8976563,13.7857187 16.7546563,13.9347188 C16.4626563,14.2247187 15.9826563,14.2247187 15.6896563,13.9347188 C15.4946563,13.7337187 12.4726562,11.2417188 12.4726562,11.2417188 C12.4726562,11.2417188 9.45065625,13.7337187 9.25465625,13.9347188 C8.96265625,14.2247187 8.48265625,14.2247187 8.18965625,13.9347188 C8.04765625,13.7857187 7.97265625,13.5937188 7.97265625,13.3997187 L7.97265625,0.01171875 L3.47265625,0.01171875 C1.81465625,0.01171875 0.47265625,1.34371875 0.47265625,2.98871875 L0.47265625,2.98871875 Z" id="Shape" fill="#23232C" sketch:type="MSShapeGroup"></path>
    </g>
</svg>