<?xml version="1.0" encoding="utf-8"?><!DOCTYPE svg PUBLIC "-//W3C//DTD SVG 1.1//EN" "http://www.w3.org/Graphics/SVG/1.1/DTD/svg11.dtd"><svg version="1.1" baseProfile="full" xmlns="http://www.w3.org/2000/svg" xmlns:xlink="http://www.w3.org/1999/xlink" xmlns:ev="http://www.w3.org/2001/xml-events"   height="126px"   width="104px" ><path fill="rgb( 244, 244, 244 )" d="M103.176,102.832 C103.176,102.832 103.22,102.822 103.22,102.822 C103.22,102.822 103.33,110.4 102.111,113.477 C102.111,113.477 83.465,125.598 52.237,125.598 C52.237,125.598 52.254,124.892 52.254,124.892 C52.254,124.892 52.194,125.598 52.194,125.598 C20.964,125.598 2.32,113.477 2.32,113.477 C1.101,110.403 1.211,102.822 1.211,102.822 C0.828,97.3670000000002 1.289,86.3499999999999 10.834,83.9229999999998 C23.64,80.6680000000001 34.262,75.7020000000002 34.262,75.7020000000002 C36.36,72.8090000000002 36.736,66.752 36.736,66.752 C32.728,62.4389999999999 30.952,57.04 30.206,52.4720000000002 C29.939,52.6669999999999 29.634,52.7959999999998 29.297,52.7890000000002 C28.094,52.7629999999999 26.482,51.0010000000002 24.742,44.3240000000001 C22.555,35.9160000000002 24.607,34.2600000000002 26.595,34.2739999999999 C27.054,34.2759999999998 27.127,34.2689999999998 27.527,34.3890000000001 C27.527,34.3890000000001 27.531,34.2049999999999 27.531,34.2049999999999 C27.531,34.2049999999999 21.646,14.5590000000002 35.804,5.91899999999987 C35.804,5.91899999999987 33.316,3.9050000000002 33.509,1 C33.509,1 40,1.73700000000008 46.221,1.7489999999998 C49.049,1.75599999999986 51.82,1.61099999999988 53.899,1.18199999999979 C54.733,1.00900000000001 55.57,0.94000000000005 56.406,0.96099999999979 C62.25,1.10800000000017 67.847,5.66199999999981 68.831,10.058 C68.831,10.058 68.919,10.0509999999999 69.075,10.0509999999999 C70.923,10.047 82.524,10.9349999999999 76.957,34.2809999999999 C76.957,34.2809999999999 76.953,34.3130000000001 76.944,34.3679999999999 C77.212,34.3110000000001 77.495,34.2739999999999 77.779,34.2689999999998 C79.772,34.2440000000001 81.842,35.8890000000001 79.648,44.3200000000002 C77.894,51.0540000000001 76.269,52.7890000000002 75.064,52.7840000000001 C74.662,52.7820000000002 74.306,52.5889999999999 74.008,52.3229999999999 C73.273,56.9250000000002 71.499,62.4009999999998 67.438,66.761 C67.438,66.761 67.654,66.748 67.654,66.748 C67.654,66.748 67.984,72.1100000000001 69.773,75.1529999999998 C69.848,75.192 80.795,80.672 93.556,83.9169999999999 C103.105,86.3499999999999 103.562,97.3809999999999 103.176,102.832 Z "/></svg>