<?xml version="1.0" encoding="utf-8"?>
<!-- Generator: Adobe Illustrator 19.1.0, SVG Export Plug-In . SVG Version: 6.00 Build 0)  -->
<svg version="1.1" id="Layer_1" xmlns="http://www.w3.org/2000/svg" xmlns:xlink="http://www.w3.org/1999/xlink" x="0px" y="0px"
	 viewBox="0 0 64 64" style="enable-background:new 0 0 64 64;" xml:space="preserve">
<style type="text/css">
	.st0{fill:#23232C;}
	.st1{fill:#FF8E02;}
	.st2{fill-rule:evenodd;clip-rule:evenodd;fill:#23232C;}
	.st3{fill-rule:evenodd;clip-rule:evenodd;fill:#FF8E02;}
</style>
<g>
	<path class="st0" d="M38.7,28.2v31.3H64V28.2H38.7z M46.3,55h-1.9v-3.5h1.9V55z M46.3,47.3h-1.9v-3.5h1.9V47.3z M46.3,39.6h-1.9
		v-3.5h1.9V39.6z M52.3,55h-1.9v-3.5h1.9V55z M52.3,47.3h-1.9v-3.5h1.9V47.3z M52.3,39.6h-1.9v-3.5h1.9V39.6z M58.3,55h-1.9v-3.5
		h1.9V55z M58.3,47.3h-1.9v-3.5h1.9V47.3z M58.3,39.6h-1.9v-3.5h1.9V39.6z"/>
	<path class="st0" d="M19.8,9.6c2.1,0.8,4.1-1.4,6.2-0.2c0-1.5,0-3,0-4.5c-2.1-1.2-4.1,1-6.2,0.2V4.5h-1.6v6.8L0,17.9v5.3h2.7v36.3
		h32.2V23.2h2.7v-5.3l-17.8-6.4V9.6z M12.3,51H9.9v-4.8h2.4V51z M12.3,40.5H9.9v-4.8h2.4V40.5z M12.3,30.1H9.9v-4.8h2.4V30.1z
		 M20,51h-2.4v-4.8H20V51z M20,40.5h-2.4v-4.8H20V40.5z M20,30.1h-2.4v-4.8H20V30.1z M27.7,51h-2.4v-4.8h2.4V51z M27.7,40.5h-2.4
		v-4.8h2.4V40.5z M27.7,30.1h-2.4v-4.8h2.4V30.1z"/>
</g>
</svg>
