<?xml version="1.0" encoding="utf-8"?><!DOCTYPE svg PUBLIC "-//W3C//DTD SVG 1.1//EN" "http://www.w3.org/Graphics/SVG/1.1/DTD/svg11.dtd"><svg version="1.1" baseProfile="full" xmlns="http://www.w3.org/2000/svg" xmlns:xlink="http://www.w3.org/1999/xlink" xmlns:ev="http://www.w3.org/2001/xml-events"   height="45px"   width="45px" ><path fill="rgb( 18, 37, 43 )" d="M0.108,44.931 C0.108,44.931 0.108,42.3110000000001 0.108,42.3110000000001 C0.108,42.3110000000001 0.129,42.3110000000001 0.129,42.3110000000001 C0.129,42.3110000000001 0.129,29.2539999999999 0.129,29.2539999999999 C0.129,29.2539999999999 0.12,27.8629999999998 0.12,27.8629999999998 C0.12,27.8629999999998 0.108,27.8629999999998 0.108,27.8629999999998 C0.108,27.8629999999998 0.108,23.7020000000002 0.108,23.7020000000002 C0.108,23.7020000000002 25.587,1.25599999999986 25.587,1.25599999999986 C26.429,0.67399999999998 27.551,0.67399999999998 28.392,1.25599999999986 C28.392,1.25599999999986 44.15,14.527 44.15,14.527 C44.15,14.527 44.208,14.482 44.208,14.482 C44.208,14.482 44.208,44.931 44.208,44.931 C44.208,44.931 0.108,44.931 0.108,44.931 ZM24.084,9.11700000000019 C24.084,9.11700000000019 16.884,15.6500000000001 16.884,15.6500000000001 C16.884,15.6500000000001 16.884,22.4760000000001 16.884,22.4760000000001 C16.884,22.4760000000001 24.084,22.4760000000001 24.084,22.4760000000001 C24.084,22.4760000000001 24.084,9.11700000000019 24.084,9.11700000000019 ZM24.084,28.8040000000001 C24.084,28.8040000000001 15.148,28.8040000000001 15.148,28.8040000000001 C15.148,28.8040000000001 14.784,28.8040000000001 14.784,28.8040000000001 C14.784,28.8040000000001 9.348,28.8040000000001 9.348,28.8040000000001 C9.348,28.8040000000001 9.348,40.6770000000001 9.348,40.6770000000001 C9.348,40.6770000000001 14.784,40.6770000000001 14.784,40.6770000000001 C14.784,40.6770000000001 15.148,40.6770000000001 15.148,40.6770000000001 C15.148,40.6770000000001 24.084,40.6770000000001 24.084,40.6770000000001 C24.084,40.6770000000001 24.084,28.8040000000001 24.084,28.8040000000001 ZM36.99,15.6500000000001 C36.99,15.6500000000001 29.09,9.11700000000019 29.09,9.11700000000019 C29.09,9.11700000000019 29.09,22.4760000000001 29.09,22.4760000000001 C29.09,22.4760000000001 36.99,22.4760000000001 36.99,22.4760000000001 C36.99,22.4760000000001 36.99,15.6500000000001 36.99,15.6500000000001 ZM36.99,28.8040000000001 C36.99,28.8040000000001 29.09,28.8040000000001 29.09,28.8040000000001 C29.09,28.8040000000001 29.09,40.6770000000001 29.09,40.6770000000001 C29.09,40.6770000000001 36.99,40.6770000000001 36.99,40.6770000000001 C36.99,40.6770000000001 36.99,28.8040000000001 36.99,28.8040000000001 ZM33.739,2.61000000000013 C33.739,2.04399999999987 34.198,1.58699999999999 34.763,1.58699999999999 C34.763,1.58699999999999 39.176,1.58699999999999 39.176,1.58699999999999 C39.74,1.58699999999999 40.199,2.04399999999987 40.199,2.61000000000013 C40.199,2.61000000000013 40.199,8.87100000000009 40.199,8.87100000000009 C40.199,8.87100000000009 33.739,3.8420000000001 33.739,3.8420000000001 C33.739,3.8420000000001 33.739,2.61000000000013 33.739,2.61000000000013 Z "/></svg>