<?xml version="1.0" encoding="utf-8"?><!DOCTYPE svg PUBLIC "-//W3C//DTD SVG 1.1//EN" "http://www.w3.org/Graphics/SVG/1.1/DTD/svg11.dtd"><svg version="1.1" baseProfile="full" xmlns="http://www.w3.org/2000/svg" xmlns:xlink="http://www.w3.org/1999/xlink" xmlns:ev="http://www.w3.org/2001/xml-events"   height="23px"   width="27px" ><path fill="rgb( 183, 184, 188 )" d="M22,11 C22,11 22,23 22,23 C22,23 0,23 0,23 C0,23 0,1 0,1 C0,1 20,1 20,1 C20,1 12.776,8.27999999999997 12.776,8.27999999999997 C12.776,8.27999999999997 8.18000000000001,3.524 8.18000000000001,3.524 C8.18000000000001,3.524 1.982,9.88 1.982,9.88 C1.982,9.88 12.778,21.003 12.778,21.003 C12.778,21.003 22,11 22,11 ZM23.576,0 C23.576,0 12.777,11.114 12.777,11.114 C12.777,11.114 8.161,6.36500000000001 8.161,6.36500000000001 C8.161,6.36500000000001 4.738,9.88699999999994 4.738,9.88699999999994 C4.738,9.88699999999994 12.777,18.159 12.777,18.159 C12.777,18.159 27,3.51999999999998 27,3.51999999999998 C27,3.51999999999998 23.576,0 23.576,0 Z "/></svg>