<?xml version="1.0" encoding="utf-8"?><!DOCTYPE svg PUBLIC "-//W3C//DTD SVG 1.1//EN" "http://www.w3.org/Graphics/SVG/1.1/DTD/svg11.dtd"><svg version="1.1" baseProfile="full" xmlns="http://www.w3.org/2000/svg" xmlns:xlink="http://www.w3.org/1999/xlink" xmlns:ev="http://www.w3.org/2001/xml-events"   height="24px"   width="25px" ><path opacity="0.302" fill="rgb( 26, 130, 73 )" d="M20.6659999999999,23.997 C20.6659999999999,23.997 12.998,16.33 12.998,16.33 C12.998,16.33 5.32999999999993,23.998 5.32999999999993,23.998 C5.32999999999993,23.998 0.99900000000002,19.667 0.99900000000002,19.667 C0.99900000000002,19.667 8.66699999999992,11.999 8.66699999999992,11.999 C8.66699999999992,11.999 0.99900000000002,4.333 0.99900000000002,4.333 C0.99900000000002,4.333 5.32999999999993,0 5.32999999999993,0 C5.32999999999993,0 12.9970000000001,7.66800000000001 12.9970000000001,7.66800000000001 C12.9970000000001,7.66800000000001 20.665,0.001 20.665,0.001 C20.665,0.001 24.9960000000001,4.331 24.9960000000001,4.331 C24.9960000000001,4.331 17.329,11.999 17.329,11.999 C17.329,11.999 24.9970000000001,19.667 24.9970000000001,19.667 C24.9970000000001,19.667 20.6659999999999,23.997 20.6659999999999,23.997 Z "/></svg>