<?xml version="1.0" encoding="utf-8"?><!DOCTYPE svg PUBLIC "-//W3C//DTD SVG 1.1//EN" "http://www.w3.org/Graphics/SVG/1.1/DTD/svg11.dtd"><svg version="1.1" baseProfile="full" xmlns="http://www.w3.org/2000/svg" xmlns:xlink="http://www.w3.org/1999/xlink" xmlns:ev="http://www.w3.org/2001/xml-events"   height="62px"   width="64px" ><path fill="rgb( 183, 184, 188 )" d="M59.077,36.085 C59.077,36.085 49.231,36.085 49.231,36.085 C49.231,36.085 59.077,46.0529999999999 59.077,46.0529999999999 C59.077,46.0529999999999 59.077,36.085 59.077,36.085 ZM32,31.1010000000001 C34.461,31.1010000000001 34.461,31.1010000000001 34.461,33.5929999999998 C34.461,36.085 34.461,36.085 32,36.085 C29.538,36.085 29.538,36.085 29.538,33.5929999999998 C29.538,31.1010000000001 29.538,31.1010000000001 32,31.1010000000001 ZM22.153,31.1010000000001 C24.615,31.1010000000001 24.615,31.1010000000001 24.615,33.5929999999998 C24.615,36.085 24.615,36.085 22.153,36.085 C19.692,36.085 19.692,36.085 19.692,33.5929999999998 C19.692,31.1010000000001 19.692,31.1010000000001 22.153,31.1010000000001 ZM41.846,16.1489999999999 C41.846,16.1489999999999 2.46100000000001,16.1489999999999 2.46100000000001,16.1489999999999 C0,16.1489999999999 0,16.1489999999999 0,18.6410000000001 C0,18.6410000000001 0,48.5450000000001 0,48.5450000000001 C0,51.0369999999998 0,51.0369999999998 2.46100000000001,51.0369999999998 C2.46100000000001,51.0369999999998 41.846,51.0369999999998 41.846,51.0369999999998 C44.307,51.0369999999998 44.307,51.0369999999998 44.307,48.5450000000001 C44.307,48.5450000000001 44.307,18.6410000000001 44.307,18.6410000000001 C44.308,16.1489999999999 44.308,16.1489999999999 41.846,16.1489999999999 ZM12.308,31.1010000000001 C14.769,31.1010000000001 14.769,31.1010000000001 14.769,33.5929999999998 C14.769,36.085 14.769,36.085 12.308,36.085 C9.846,36.085 9.846,36.085 9.846,33.5929999999998 C9.846,31.1010000000001 9.846,31.1010000000001 12.308,31.1010000000001 ZM19.692,51.0369999999998 C19.692,51.0369999999998 9.846,51.0369999999998 9.846,51.0369999999998 C9.846,51.0369999999998 9.846,61.0050000000001 9.846,61.0050000000001 C9.846,61.0050000000001 19.692,51.0369999999998 19.692,51.0369999999998 ZM61.539,0.0010000000002 C61.539,0.0010000000002 22.153,0.0010000000002 22.153,0.0010000000002 C19.692,0.0010000000002 19.692,0.0010000000002 19.692,2.49299999999994 C19.692,2.49299999999994 19.692,13.6570000000002 19.692,13.6570000000002 C19.692,13.6570000000002 46.769,13.6570000000002 46.769,13.6570000000002 C46.769,13.6570000000002 46.769,36.085 46.769,36.085 C46.769,36.085 61.539,36.085 61.539,36.085 C64,36.085 64,36.085 64,33.5929999999998 C64,33.5929999999998 64,2.49299999999994 64,2.49299999999994 C64,0.0010000000002 64,0.0010000000002 61.539,0.0010000000002 Z "/></svg>