<?xml version="1.0" encoding="UTF-8" standalone="no"?>
<svg width="31px" height="28px" viewBox="0 0 31 28" version="1.1" xmlns="http://www.w3.org/2000/svg" xmlns:xlink="http://www.w3.org/1999/xlink" xmlns:sketch="http://www.bohemiancoding.com/sketch/ns">
    <!-- Generator: Sketch 3.3.3 (12081) - http://www.bohemiancoding.com/sketch -->
    <title>Shape</title>
    <desc>Created with Sketch.</desc>
    <defs></defs>
    <g id="Page-1" stroke="none" stroke-width="1" fill="none" fill-rule="evenodd" sketch:type="MSPage">
        <path d="M21.4450002,27.5505 C21.2720002,24.6795 19.5250002,19.8065 19.5250002,19.8065 L20.7330002,18.8525 C20.7330002,17.9745 19.1690002,17.0105 19.1690002,17.0105 C19.1690002,17.0105 17.6050002,17.9535 17.6050002,18.8525 L18.8130002,19.8065 C18.8130002,19.8065 17.0000002,24.7125 16.8280002,27.5395 C11.9090002,27.3365 7.33500022,26.4255 7.33500022,23.7055 L7.33500022,22.8375 C7.33500022,20.5235 11.5420002,18.1785 15.1230002,16.8925 C15.3820002,16.7965 16.6230002,16.1215 15.9320002,14.3225 C14.1530002,12.5225 12.8150002,9.5985 12.8150002,6.7275 C12.8150002,2.3355 15.7490002,0.0225 19.1690002,0.0225 C22.5880002,0.0225 25.5440002,2.3355 25.5440002,6.7275 C25.5440002,9.5875 24.1960002,12.5015 22.4270002,14.3005 L22.4370002,14.3005 C21.7580002,16.3465 22.8370002,16.8395 23.0090002,16.8925 C26.7740002,18.1245 31.0030002,20.4595 31.0030002,22.8375 L31.0030002,23.7055 C31.0030002,26.4475 26.4070002,27.3575 21.4450002,27.5505 Z M7.13000022,15.7145 C3.97300022,15.7145 1.40400022,17.8935 1.40400022,20.5715 C1.40400022,21.8525 1.99300022,23.0645 3.06300022,23.9825 L3.66300022,24.4975 L3.52800022,25.2735 C3.47300022,25.5905 3.38300022,25.8795 3.27000022,26.1445 C3.89700022,25.9305 4.51800022,25.6695 5.02400022,25.4265 L5.44000022,25.2275 L5.89300022,25.3125 C6.17200022,25.3645 6.45200022,25.3745 6.73100022,25.3915 C7.05600022,25.9315 7.52700022,26.3845 8.10900022,26.7555 C7.78800022,26.7945 7.46300022,26.8215 7.13000022,26.8215 C6.61700022,26.8215 6.11600022,26.7715 5.63300022,26.6805 C5.00100022,26.9835 2.76200022,27.9975 1.10400022,27.9975 C0.738000225,27.9975 0.400000225,27.9485 0.115000225,27.8315 C-0.0129997753,27.3735 1.85700022,26.6995 2.14700022,25.0365 C0.824000225,23.9015 0.0020002247,22.3215 0.0020002247,20.5715 C0.0020002247,17.1195 3.19300022,14.3225 7.13000022,14.3225 C9.40000022,14.3225 11.4180002,15.2555 12.7240002,16.7045 C12.2970002,16.8945 11.8450002,17.1105 11.3820002,17.3485 C10.3320002,16.3535 8.82400022,15.7145 7.13000022,15.7145 Z" id="Shape" fill="#23232C" sketch:type="MSShapeGroup"></path>
    </g>
</svg>