<?xml version="1.0" encoding="utf-8"?>
<!-- Generator: Adobe Illustrator 19.1.0, SVG Export Plug-In . SVG Version: 6.00 Build 0)  -->
<svg version="1.1" id="Layer_1" xmlns="http://www.w3.org/2000/svg" xmlns:xlink="http://www.w3.org/1999/xlink" x="0px" y="0px"
	 viewBox="0 0 64 64" style="enable-background:new 0 0 64 64;" xml:space="preserve">
<style type="text/css">
	.st0{fill:#23232C;}
	.st1{fill:#FF8E02;}
	.st2{fill-rule:evenodd;clip-rule:evenodd;fill:#23232C;}
	.st3{fill-rule:evenodd;clip-rule:evenodd;fill:#FF8E02;}
</style>
<path class="st0" d="M22.6,34h-18c-2.6,0-4.5,2.2-4.5,4.6v13.3c0,2.5,2,4.5,4.5,4.5h3V61c0,0.6,0.3,1.1,0.8,1.3
	c0.2,0.1,0.4,0.1,0.5,0.1c0.4,0,0.7-0.3,1-0.5l4.8-4.7c0.6-0.5,1.3-0.8,2.1-0.8H23c2.4,0,4.2-1.9,4.2-4.4V38.6
	C27.2,36.1,25.2,34,22.6,34z M8.3,51.6l-3.4,0V39h17.7v12.6h-6.3c-1.4,0-2.7,0.6-3.7,1.6l-2.2,2.4v-2.1C10.3,52.5,9.4,51.6,8.3,51.6
	z"/>
<path class="st0" d="M53.8,14.1l-2.3,15.1L40.8,16.6l0.3-2.5l7.4-5.5c5.7-6.7-9.7-7-9.7-7s-15.4,0.3-9.7,7l7.4,5.5l0.3,2.5
	L26.1,29.2l-2.3-15.1l-10,4.9v12h9.1c1.8,0,3.4,0.7,4.6,1.8l6.3-6.8l2,4l-1.7,28.1L30,43.9v8c0,4.2-3.1,7.4-7.2,7.4h-5
	c-0.8,0-1.5,0.3-2.1,0.8l-2,1.9l-0.3,0.3h25.4h25.1V19L53.8,14.1z M43.5,58.1L41.8,30l2-4l6.9,7.3L43.5,58.1z"/>
</svg>
