<?xml version="1.0" encoding="utf-8"?><!DOCTYPE svg PUBLIC "-//W3C//DTD SVG 1.1//EN" "http://www.w3.org/Graphics/SVG/1.1/DTD/svg11.dtd"><svg version="1.1" baseProfile="full" xmlns="http://www.w3.org/2000/svg" xmlns:xlink="http://www.w3.org/1999/xlink" xmlns:ev="http://www.w3.org/2001/xml-events"   height="50px"   width="50px" ><path fill="rgb( 18, 37, 43 )" d="M0,50 C0,50 0,0 0,0 C0,0 50,0 50,0 C50,0 50,50 50,50 C50,50 0,50 0,50 ZM11,13 C11,13 4,13 4,13 C4,13 4,22 4,22 C4,22 11,22 11,22 C11,22 11,13 11,13 ZM11,26 C11,26 4,26 4,26 C4,26 4,34 4,34 C4,34 11,34 11,34 C11,34 11,26 11,26 ZM11,38 C11,38 4,38 4,38 C4,38 4,46 4,46 C4,46 11,46 11,46 C11,46 11,38 11,38 ZM23,13 C23,13 15,13 15,13 C15,13 15,22 15,22 C15,22 23,22 23,22 C23,22 23,13 23,13 ZM23,26 C23,26 15,26 15,26 C15,26 15,34 15,34 C15,34 23,34 23,34 C23,34 23,26 23,26 ZM23,38 C23,38 15,38 15,38 C15,38 15,46 15,46 C15,46 23,46 23,46 C23,46 23,38 23,38 ZM35,13 C35,13 27,13 27,13 C27,13 27,22 27,22 C27,22 35,22 35,22 C35,22 35,13 35,13 ZM35,26 C35,26 27,26 27,26 C27,26 27,34 27,34 C27,34 35,34 35,34 C35,34 35,26 35,26 ZM46,13 C46,13 39,13 39,13 C39,13 39,22 39,22 C39,22 46,22 46,22 C46,22 46,13 46,13 ZM46,26 C46,26 39,26 39,26 C39,26 39,34 39,34 C39,34 46,34 46,34 C46,34 46,26 46,26 ZM46,38 C46,38 39,38 39,38 C39,38 39,46 39,46 C39,46 46,46 46,46 C46,46 46,38 46,38 Z "/></svg>