<?xml version="1.0" encoding="utf-8"?>
<!-- Generator: Adobe Illustrator 19.1.0, SVG Export Plug-In . SVG Version: 6.00 Build 0)  -->
<svg version="1.1" id="Layer_1" xmlns="http://www.w3.org/2000/svg" xmlns:xlink="http://www.w3.org/1999/xlink" x="0px" y="0px"
	 viewBox="0 0 64 64" style="enable-background:new 0 0 64 64;" xml:space="preserve">
<style type="text/css">
	.st0{fill:#23232C;}
	.st1{fill:#FF8E02;}
	.st2{fill-rule:evenodd;clip-rule:evenodd;fill:#23232C;}
	.st3{fill-rule:evenodd;clip-rule:evenodd;fill:#FF8E02;}
</style>
<g>
	<path class="st0" d="M55.5,8.5H55V3.3C55,1.5,53.5,0,51.7,0H9.1C7.3,0,5.8,1.5,5.8,3.3v5.2v47.7v0.4c0,0.2,0.1,0.4,0.2,0.6l4.1,6.6
		c0.1,0.2,0.3,0.3,0.5,0.3H14h40.7h0.9c1.8,0,3.3-1.5,3.3-3.3v-49C58.8,10,57.4,8.5,55.5,8.5z M12.4,3.7h36.1l3.2,4.5l0.2,0.3H36
		v18.2c0,0.5-0.6,0.8-1,0.5l-5.2-4.5c-0.3-0.2-0.7-0.3-1,0l-5.6,4.6c-0.4,0.3-1,0-1-0.5V8.5H16c-0.5,0-1-0.1-1.4-0.3
		c-0.5-0.2-0.9-0.6-1.2-1L11.7,5C11.3,4.4,11.7,3.7,12.4,3.7z"/>
</g>
</svg>
