<?xml version="1.0" encoding="UTF-8" standalone="no"?>
<svg width="12px" height="12px" viewBox="0 0 12 12" version="1.1" xmlns="http://www.w3.org/2000/svg" xmlns:xlink="http://www.w3.org/1999/xlink" xmlns:sketch="http://www.bohemiancoding.com/sketch/ns">
    <!-- Generator: Sketch 3.3.3 (12081) - http://www.bohemiancoding.com/sketch -->
    <title>Shape</title>
    <desc>Created with Sketch.</desc>
    <defs></defs>
    <g id="Page-1" stroke="none" stroke-width="1" fill="none" fill-rule="evenodd" sketch:type="MSPage">
        <path d="M8.819,8.471 L8.439,8.851 C8.229,9.061 7.889,9.061 7.689,8.851 L5.978,7.151 L4.268,8.851 C4.067,9.061 3.727,9.061 3.518,8.851 L3.137,8.471 C2.927,8.261 2.927,7.921 3.137,7.721 L4.838,6.011 L3.137,4.301 C2.927,4.101 2.927,3.761 3.137,3.551 L3.518,3.172 C3.727,2.962 4.067,2.962 4.268,3.172 L5.978,4.871 L7.689,3.172 C7.889,2.962 8.229,2.962 8.439,3.172 L8.819,3.551 C9.029,3.761 9.029,4.101 8.819,4.301 L7.118,6.011 L8.819,7.721 C9.029,7.921 9.029,8.261 8.819,8.471 L8.819,8.471 Z M5.978,0.012 C2.667,0.012 -0.024,2.701 -0.024,6.011 C-0.024,9.321 2.667,12.01 5.978,12.01 C9.29,12.01 11.98,9.321 11.98,6.011 C11.98,2.701 9.29,0.012 5.978,0.012 L5.978,0.012 Z" id="Shape" fill="#FFFFFF" sketch:type="MSShapeGroup"></path>
    </g>
</svg>