<?xml version="1.0" encoding="utf-8"?><!DOCTYPE svg PUBLIC "-//W3C//DTD SVG 1.1//EN" "http://www.w3.org/Graphics/SVG/1.1/DTD/svg11.dtd"><svg version="1.1" baseProfile="full" xmlns="http://www.w3.org/2000/svg" xmlns:xlink="http://www.w3.org/1999/xlink" xmlns:ev="http://www.w3.org/2001/xml-events"   height="26px"   width="27px" ><path fill="rgb( 183, 184, 188 )" d="M26.634,0 C26.634,0 1.29000000000002,0 1.29000000000002,0 C1.14400000000001,0 0.99700000000001,0.14599999999996 0.99700000000001,0.29300000000001 C0.99700000000001,0.29300000000001 0.99700000000001,1.72299999999996 0.99700000000001,1.72299999999996 C0.99700000000001,1.87 1.14400000000001,2.01599999999996 1.29000000000002,2.01599999999996 C1.29000000000002,2.01599999999996 2.23899999999998,2.01599999999996 2.23899999999998,2.01599999999996 C2.38499999999999,2.01599999999996 2.53100000000001,2.16300000000001 2.53100000000001,2.30999999999995 C2.53100000000001,2.30999999999995 2.53100000000001,17.454 2.53100000000001,17.454 C2.53100000000001,17.601 2.67700000000002,17.748 2.82400000000001,17.748 C2.82400000000001,17.748 6.91399999999999,17.748 6.91399999999999,17.748 C7.096,17.748 7.24200000000002,17.931 7.20600000000002,18.115 C7.20600000000002,18.115 5.05099999999999,25.008 5.05099999999999,25.008 C4.94200000000001,25.375 5.12400000000002,25.852 5.48899999999998,25.962 C5.56200000000001,25.999 5.63600000000002,25.999 5.709,25.999 C6.00099999999998,25.999 6.29300000000001,25.8150000000001 6.40199999999999,25.485 C6.40199999999999,25.485 8.77600000000001,17.931 8.77600000000001,17.931 C8.81299999999999,17.821 8.92200000000003,17.711 9.06799999999998,17.711 C9.06799999999998,17.711 12.976,17.711 12.976,17.711 C13.122,17.711 13.268,17.8579999999999 13.268,18.004 C13.268,18.004 13.268,23.102 13.268,23.102 C13.268,23.468 13.524,23.798 13.889,23.872 C14.364,23.9450000000001 14.729,23.578 14.729,23.138 C14.729,23.138 14.729,18.004 14.729,18.004 C14.729,17.8579999999999 14.875,17.711 15.021,17.711 C15.021,17.711 18.929,17.711 18.929,17.711 C19.038,17.711 19.184,17.785 19.221,17.931 C19.221,17.931 21.595,25.485 21.595,25.485 C21.704,25.8150000000001 21.996,25.999 22.288,25.999 C22.362,25.999 22.435,25.999 22.508,25.962 C22.909,25.852 23.092,25.412 22.982,25.045 C22.982,25.045 20.791,18.115 20.791,18.115 C20.718,17.931 20.864,17.748 21.083,17.748 C21.083,17.748 25.174,17.748 25.174,17.748 C25.32,17.748 25.466,17.601 25.466,17.454 C25.466,17.454 25.466,2.30999999999995 25.466,2.30999999999995 C25.466,2.16300000000001 25.612,2.01599999999996 25.758,2.01599999999996 C25.758,2.01599999999996 26.707,2.01599999999996 26.707,2.01599999999996 C26.853,2.01599999999996 27,1.87 27,1.72299999999996 C27,1.72299999999996 27,0.29300000000001 27,0.29300000000001 C26.926,0.14599999999996 26.78,0 26.634,0 Z "/></svg>