<?xml version="1.0" encoding="UTF-8" standalone="no"?>
<svg width="18px" height="25px" viewBox="0 0 18 25" version="1.1" xmlns="http://www.w3.org/2000/svg" xmlns:xlink="http://www.w3.org/1999/xlink" xmlns:sketch="http://www.bohemiancoding.com/sketch/ns">
    <!-- Generator: Sketch 3.3.3 (12081) - http://www.bohemiancoding.com/sketch -->
    <title>Shape</title>
    <desc>Created with Sketch.</desc>
    <defs></defs>
    <g id="Page-1" stroke="none" stroke-width="1" fill="none" fill-rule="evenodd" sketch:type="MSPage">
        <path d="M7.546,22.4425 C4.404,22.1655 2.123,21.1145 0.434,19.5935 L3.129,16.0265 C4.553,17.3535 6.747,18.4595 9.443,18.4595 C11.193,18.4595 12.259,17.8235 12.259,16.9385 C12.259,14.4215 1.056,16.4405 1.056,9.3315 C1.056,6.5385 3.337,4.0205 7.546,3.5505 L7.546,0.9505 L10.836,0.9505 L10.836,3.5785 C13.208,3.8835 15.284,4.7135 16.973,6.0395 L14.185,9.4425 C12.527,8.1705 10.363,7.5345 8.405,7.5345 C6.924,7.5345 6.272,8.0865 6.272,8.8615 C6.272,11.2135 17.446,9.4975 17.446,16.3575 C17.446,19.6765 15.105,22.0005 10.836,22.4425 L10.836,24.9595 L7.546,24.9595 L7.546,22.4425 L7.546,22.4425 Z" id="Shape" fill="#7B7B82" sketch:type="MSShapeGroup"></path>
    </g>
</svg>