<?xml version="1.0" encoding="utf-8"?><!DOCTYPE svg PUBLIC "-//W3C//DTD SVG 1.1//EN" "http://www.w3.org/Graphics/SVG/1.1/DTD/svg11.dtd"><svg version="1.1" baseProfile="full" xmlns="http://www.w3.org/2000/svg" xmlns:xlink="http://www.w3.org/1999/xlink" xmlns:ev="http://www.w3.org/2001/xml-events"   height="12px"   width="44px" ><path fill="rgb( 183, 184, 188 )" d="M38,12 C34.686,12 32,9.31400000000008 32,6 C32,2.68599999999992 34.686,0 38,0 C41.314,0 44,2.68599999999992 44,6 C44,9.31400000000008 41.314,12 38,12 ZM22,12 C18.686,12 16,9.31400000000008 16,6 C16,2.68599999999992 18.686,0 22,0 C25.314,0 28,2.68599999999992 28,6 C28,9.31400000000008 25.314,12 22,12 ZM6,12 C2.68599999999998,12 0,9.31400000000008 0,6 C0,2.68599999999992 2.68599999999998,0 6,0 C9.31400000000002,0 12,2.68599999999992 12,6 C12,9.31400000000008 9.31400000000002,12 6,12 Z "/></svg>