<?xml version="1.0" encoding="utf-8"?>
<!-- Generator: Adobe Illustrator 19.1.0, SVG Export Plug-In . SVG Version: 6.00 Build 0)  -->
<svg version="1.1" id="Layer_1" xmlns="http://www.w3.org/2000/svg" xmlns:xlink="http://www.w3.org/1999/xlink" x="0px" y="0px"
	 viewBox="-607 369 64 64" style="enable-background:new -607 369 64 64;" xml:space="preserve">
<style type="text/css">
	.st0{fill:#23232C;}
</style>
<g>
	<g>
		<path class="st0" d="M-580.4,391.3v0.1c0,0.7,0.2,1.3,0.7,1.8c0.5,0.5,1.5,0.9,3,1.3v-5.9c-1.3,0.1-2.3,0.4-2.9,0.9
			C-580.1,389.9-580.4,390.5-580.4,391.3z M-571.6,404.9v6c2.4-0.3,3.7-1.2,3.7-2.8V408c0-0.7-0.3-1.3-0.8-1.8
			C-569.2,405.7-570.1,405.3-571.6,404.9z M-575,370c-17.2,0-31.1,13.9-31.1,31c0,17.1,13.9,31,31.1,31c17.2,0,31.1-13.9,31.1-31
			C-543.9,383.9-557.8,370-575,370z M-558.4,407.4c0,1.7-0.3,3.2-0.9,4.5c-0.6,1.3-1.5,2.5-2.6,3.5c-1.1,1-2.5,1.8-4.1,2.4
			c-1.6,0.6-3.3,1-5.3,1.1v5.4h-5.7v-5.5c-2.7-0.3-5.3-0.9-7.9-1.8c-2.5-0.9-4.8-2.1-6.9-3.6l4.9-7.3c1.7,1.2,3.5,2.2,5.1,3
			c1.7,0.7,3.3,1.2,5.1,1.5V404c-2.2-0.5-4.1-1.1-5.8-1.8c-1.7-0.7-3-1.4-4.2-2.4c-1.1-0.9-2-2-2.5-3.3c-0.6-1.2-0.8-2.7-0.8-4.4
			v-0.1c0-1.6,0.3-3.1,0.9-4.4c0.6-1.3,1.4-2.5,2.5-3.5c1.1-1,2.5-1.8,4.1-2.4c1.6-0.6,3.5-1,5.6-1.1v-3.1h5.7v3.3
			c2.3,0.3,4.3,0.7,6.2,1.5c1.9,0.7,3.7,1.7,5.3,2.8l-4.5,7.3c-1.1-0.8-2.3-1.5-3.6-2c-1.3-0.5-2.5-1-3.7-1.3v6.3
			c2.2,0.5,4.1,1.1,5.7,1.8c1.6,0.7,3,1.5,4.1,2.4c1.1,0.9,1.9,2,2.5,3.3c0.5,1.3,0.8,2.8,0.8,4.4V407.4z"/>
	</g>
</g>
</svg>
