<?xml version="1.0" encoding="utf-8"?><!DOCTYPE svg PUBLIC "-//W3C//DTD SVG 1.1//EN" "http://www.w3.org/Graphics/SVG/1.1/DTD/svg11.dtd"><svg version="1.1" baseProfile="full" xmlns="http://www.w3.org/2000/svg" xmlns:xlink="http://www.w3.org/1999/xlink" xmlns:ev="http://www.w3.org/2001/xml-events"   height="35px"   width="52px" ><path fill="rgb( 253, 142, 38 )" d="M49.005,32.026 C49.005,32.026 49.005,3.00400000000002 49.005,3.00400000000002 C49.005,3.00400000000002 4.08299999999997,3.00400000000002 4.08299999999997,3.00400000000002 C4.08299999999997,3.00400000000002 4.08299999999997,0.00099999999998 4.08299999999997,0.00099999999998 C4.08299999999997,0.00099999999998 51.999,0.00099999999998 51.999,0.00099999999998 C51.999,0.00099999999998 51.999,32.026 51.999,32.026 C51.999,32.026 49.005,32.026 49.005,32.026 ZM45.917,34.999 C45.917,34.999 0.99599999999998,34.999 0.99599999999998,34.999 C0.99599999999998,34.999 0.99599999999998,5.97699999999998 0.99599999999998,5.97699999999998 C0.99599999999998,5.97699999999998 45.917,5.97699999999998 45.917,5.97699999999998 C45.917,5.97699999999998 45.917,34.999 45.917,34.999 ZM42.922,15.985 C39.375,15.985 35.934,12.516 35.934,8.97899999999998 C35.934,8.97899999999998 10.978,8.97899999999998 10.978,8.97899999999998 C10.978,12.516 7.53800000000001,15.985 3.99099999999999,15.985 C3.99099999999999,15.985 3.99099999999999,24.992 3.99099999999999,24.992 C7.53800000000001,24.992 10.978,28.46 10.978,31.997 C10.978,31.997 35.934,31.997 35.934,31.997 C35.934,28.46 39.375,24.992 42.922,24.992 C42.922,24.992 42.922,15.985 42.922,15.985 ZM23.456,29.295 C18.578,29.295 14.624,25.352 14.624,20.488 C14.624,15.624 18.578,11.681 23.456,11.681 C28.3339999999999,11.681 32.289,15.624 32.289,20.488 C32.289,25.352 28.3339999999999,29.295 23.456,29.295 ZM26.237,14.698 C25.657,14.402 24.943,14.254 24.0940000000001,14.254 C22.83,14.254 21.841,14.612 21.127,15.328 C20.775,15.681 20.508,16.115 20.327,16.629 C20.146,17.143 20.0549999999999,17.711 20.0549999999999,18.333 C20.0549999999999,18.333 20.0549999999999,19.128 20.0549999999999,19.128 C20.0549999999999,19.128 18.89,19.128 18.89,19.128 C18.89,19.128 18.89,21.245 18.89,21.245 C18.89,21.245 20.0549999999999,21.245 20.0549999999999,21.245 C20.0549999999999,21.245 20.0549999999999,23.099 20.0549999999999,23.099 C20.0549999999999,23.099 18.89,23.551 18.89,23.551 C18.89,23.551 18.89,25.342 18.89,25.342 C18.89,25.342 27.604,25.342 27.604,25.342 C27.604,25.342 27.604,22.959 27.604,22.959 C27.604,22.959 23.054,22.959 23.054,22.959 C23.054,22.959 23.054,21.245 23.054,21.245 C23.054,21.245 26.408,21.245 26.408,21.245 C26.408,21.245 26.408,19.128 26.408,19.128 C26.408,19.128 23.054,19.128 23.054,19.128 C23.054,19.128 23.054,18.333 23.054,18.333 C23.054,17.898 23.162,17.558 23.379,17.314 C23.596,17.07 23.902,16.948 24.295,16.948 C24.616,16.948 24.902,17.026 25.15,17.182 C25.399,17.337 25.6420000000001,17.556 25.881,17.836 C25.881,17.836 27.713,15.827 27.713,15.827 C27.3099999999999,15.369 26.817,14.994 26.237,14.698 Z "/></svg>