<?xml version="1.0" encoding="utf-8"?><!DOCTYPE svg PUBLIC "-//W3C//DTD SVG 1.1//EN" "http://www.w3.org/Graphics/SVG/1.1/DTD/svg11.dtd"><svg version="1.1" baseProfile="full" xmlns="http://www.w3.org/2000/svg" xmlns:xlink="http://www.w3.org/1999/xlink" xmlns:ev="http://www.w3.org/2001/xml-events"   height="128px"   width="102px" ><path fill="rgb( 183, 184, 188 )" d="M101.487,105.533 C101.87,100.16 101.417,89.2840000000001 91.949,86.886 C79.298,83.6869999999999 68.444,78.2840000000001 68.369,78.2460000000001 C67.164,76.2069999999999 66.627,73.114 66.407,71.3400000000001 C71.207,71.0749999999998 80.696,69.8580000000002 85.956,64.5100000000002 C85.956,64.5100000000002 75.418,61.5390000000002 77.312,42.4450000000002 C79.206,23.3510000000001 74.951,6.58699999999999 59.533,8.00599999999986 C59.533,8.00599999999986 52.849,0.00199999999995 39.547,5.03400000000011 C34.979,6.76499999999987 22.726,11.1329999999998 23.349,37.5909999999999 C23.972,64.047 13.902,64.2020000000002 13.902,64.2020000000002 C13.902,64.2020000000002 18.871,71.3270000000002 35.45,71.5410000000002 C35.192,73.511 34.568,76.8600000000001 33.162,78.7869999999998 C33.162,78.7869999999998 22.631,83.683 9.934,86.8919999999998 C0.471,89.2840000000001 0.01400000000001,100.147 0.39400000000001,105.524 C0.39400000000001,105.524 0.285,112.997 1.49299999999999,116.027 C1.49299999999999,116.027 19.978,127.976 50.94,127.976 C50.94,127.976 51,127.281 51,127.281 C51,127.281 50.984,127.976 50.984,127.976 C81.944,127.976 100.431,116.027 100.431,116.027 C101.64,112.995 101.53,105.524 101.53,105.524 C101.53,105.524 101.487,105.533 101.487,105.533 Z "/></svg>