<?xml version="1.0" encoding="utf-8"?>
<!-- Generator: Adobe Illustrator 19.1.0, SVG Export Plug-In . SVG Version: 6.00 Build 0)  -->
<svg version="1.1" id="Layer_1" xmlns="http://www.w3.org/2000/svg" xmlns:xlink="http://www.w3.org/1999/xlink" x="0px" y="0px"
	 viewBox="0 0 64 64" style="enable-background:new 0 0 64 64;" xml:space="preserve">
<style type="text/css">
	.st0{fill:#23232C;}
	.st1{fill:#FF8E02;}
	.st2{fill-rule:evenodd;clip-rule:evenodd;fill:#23232C;}
	.st3{fill-rule:evenodd;clip-rule:evenodd;fill:#FF8E02;}
</style>
<g>
	<path class="st0" d="M63,32c0-10.9-5.6-20.5-14.1-26L49,6c-4.9-3.2-10.6-5-16.9-5c0,0,0,0,0,0c0,0,0,0-0.1,0C14.9,1,1,14.9,1,32
		s13.9,31,31,31c0,0,0,0,0.1,0c0,0,0,0,0,0c16,0,29.1-12.1,30.8-27.6l-0.1-0.1C62.9,34.2,63,33.1,63,32z M30.7,5.4l-1.6,1.1
		l-0.5-0.9C29.3,5.5,30,5.4,30.7,5.4z M23.8,16.2l-2,1.1L20,16.6l0.7-1.6l0.3-1.9l1.3-0.4L23.8,16.2z M19.1,11.5l-2.7-0.3l2.1-1.2
		L19.1,11.5z M58.7,31.9L56.2,34l-0.8,4.3l-3.7-7.5l-4.8-1.2l-0.9,2.8l-5.3,3.3l3.3,0.9l-5.1,7.7L38.6,50l-4.1,6.8L30,57.9
		c0,0-2.9-8.1-2.8-8.5c0.1-0.4-0.5-9.2-0.9-9.5c-0.4-0.3-7.9-0.9-7.9-0.9l-3.1-8.3l5.2-6.4L19.1,21l2.5-2l4.8-4.1l-0.9-2.1l5.2-4.8
		L35.2,9l7.1-1.5C51.9,11.5,58.6,20.9,58.7,31.9z"/>
	<polygon class="st0" points="29.4,20.7 30,22.6 28.5,23.8 28.5,23 25.3,20.7 21.6,23.9 25.9,23.6 26.6,25 31,25.6 36,26.4 37,23.7 
		31.7,23.4 	"/>
	<polygon class="st0" points="31.6,10.5 29.4,11.8 29,13.6 27.3,15.4 32.2,14.2 	"/>
	<polygon class="st0" points="33.8,21.3 38.3,21.7 39,20.6 34.8,18.6 	"/>
</g>
</svg>
