<?xml version="1.0" encoding="utf-8"?><!DOCTYPE svg PUBLIC "-//W3C//DTD SVG 1.1//EN" "http://www.w3.org/Graphics/SVG/1.1/DTD/svg11.dtd"><svg version="1.1" baseProfile="full" xmlns="http://www.w3.org/2000/svg" xmlns:xlink="http://www.w3.org/1999/xlink" xmlns:ev="http://www.w3.org/2001/xml-events"   height="52px"   width="75px" ><path fill="rgb( 255, 255, 255 )" d="M73,52 C73,52 2,52 2,52 C1.30999999999995,52 0,50.6840000000002 0,50 C0,50 0,47 0,47 C0,46.3159999999998 1.30999999999995,45 2,45 C2,45 4,45 4,45 C4,45 4,5 4,5 C4,2.2199999999998 6.02499999999998,0 8.83299999999997,0 C8.83299999999997,0 66.1660000000001,0 66.1660000000001,0 C68.974,0 71.25,2.25399999999991 71.25,5.03499999999985 C71.25,5.03499999999985 71,45 71,45 C71,45 73,45 73,45 C74.087,45 75,45.9229999999998 75,47 C75,47 75,50 75,50 C75,50.6840000000002 73.6900000000001,52 73,52 ZM69,5 C69,3.58899999999994 67.424,2 66,2 C66,2 9,2 9,2 C7.57600000000002,2 6,3.58899999999994 6,5 C6,5 6,45 6,45 C6,45 32,45 32,45 C32,45 32.614,46 33,46 C33,46 43,46 43,46 C43.331,46 44,45 44,45 C44,45 69,45 69,45 C69,45 69,5 69,5 ZM8,4 C8,4 67,4 67,4 C67,4 67,43 67,43 C67,43 8,43 8,43 C8,43 8,4 8,4 Z "/></svg>