<?xml version="1.0" encoding="utf-8"?><!DOCTYPE svg PUBLIC "-//W3C//DTD SVG 1.1//EN" "http://www.w3.org/Graphics/SVG/1.1/DTD/svg11.dtd"><svg version="1.1" baseProfile="full" xmlns="http://www.w3.org/2000/svg" xmlns:xlink="http://www.w3.org/1999/xlink" xmlns:ev="http://www.w3.org/2001/xml-events"   height="55px"   width="69px" ><path fill="rgb( 18, 37, 43 )" d="M68.059,53.7640000000001 C68.059,53.7640000000001 54.395,53.7640000000001 54.395,53.7640000000001 C53.943,53.7640000000001 53.573,53.4009999999998 53.573,52.9569999999999 C53.573,52.9569999999999 53.573,2.02500000000009 53.573,2.02500000000009 C53.573,1.58199999999988 53.943,1.21900000000005 54.395,1.21900000000005 C54.395,1.21900000000005 68.058,1.21900000000005 68.058,1.21900000000005 C68.51,1.21900000000005 68.88,1.58199999999988 68.88,2.02500000000009 C68.88,2.02500000000009 68.88,52.9569999999999 68.88,52.9569999999999 C68.88,52.9569999999999 68.881,52.9569999999999 68.881,52.9569999999999 C68.881,53.4009999999998 68.511,53.7640000000001 68.059,53.7640000000001 ZM50.564,53.7640000000001 C50.564,53.7640000000001 43.463,53.7640000000001 43.463,53.7640000000001 C43.01,53.7640000000001 42.64,53.4009999999998 42.64,52.9569999999999 C42.64,52.9569999999999 42.64,2.02500000000009 42.64,2.02500000000009 C42.64,1.58199999999988 43.01,1.21900000000005 43.463,1.21900000000005 C43.463,1.21900000000005 50.564,1.21900000000005 50.564,1.21900000000005 C51.017,1.21900000000005 51.386,1.58199999999988 51.386,2.02500000000009 C51.386,2.02500000000009 51.386,52.9569999999999 51.386,52.9569999999999 C51.386,53.4009999999998 51.017,53.7640000000001 50.564,53.7640000000001 ZM37.602,53.8690000000001 C37.602,53.8690000000001 30.503,53.6260000000002 30.503,53.6260000000002 C30.052,53.6089999999999 29.695,53.2339999999999 29.71,52.7910000000002 C29.71,52.7910000000002 31.517,1.89100000000008 31.517,1.89100000000008 C31.534,1.44700000000012 31.915,1.09700000000021 32.367,1.11299999999983 C32.367,1.11299999999983 39.467,1.35399999999981 39.467,1.35399999999981 C39.918,1.36999999999989 40.275,1.74499999999989 40.26,2.18899999999985 C40.26,2.18899999999985 38.453,53.0909999999999 38.453,53.0909999999999 C38.436,53.5340000000001 38.054,53.8829999999998 37.602,53.8690000000001 ZM26.86,53.0430000000001 C26.86,53.0430000000001 19.824,53.9949999999999 19.824,53.9949999999999 C19.376,54.0549999999998 18.959,53.7449999999999 18.897,53.306 C18.897,53.306 11.795,2.85100000000011 11.795,2.85100000000011 C11.732,2.40999999999985 12.049,2.00199999999995 12.498,1.94200000000001 C12.498,1.94200000000001 19.533,0.98900000000003 19.533,0.98900000000003 C19.982,0.92900000000009 20.399,1.23900000000003 20.46,1.67799999999988 C20.46,1.67799999999988 27.562,52.134 27.562,52.134 C27.623,52.5729999999999 27.309,52.9830000000002 26.86,53.0430000000001 ZM7.92500000000001,53.7640000000001 C7.92500000000001,53.7640000000001 0.822,53.7640000000001 0.822,53.7640000000001 C0.37,53.7640000000001 0,53.4009999999998 0,52.9569999999999 C0,52.9569999999999 0,2.02500000000009 0,2.02500000000009 C0,1.58199999999988 0.37,1.21900000000005 0.822,1.21900000000005 C0.822,1.21900000000005 7.92500000000001,1.21900000000005 7.92500000000001,1.21900000000005 C8.37700000000001,1.21900000000005 8.74799999999999,1.58199999999988 8.74799999999999,2.02500000000009 C8.74799999999999,2.02500000000009 8.74799999999999,52.9569999999999 8.74799999999999,52.9569999999999 C8.74799999999999,53.4009999999998 8.37700000000001,53.7640000000001 7.92500000000001,53.7640000000001 Z "/></svg>