<?xml version="1.0" encoding="utf-8"?><!DOCTYPE svg PUBLIC "-//W3C//DTD SVG 1.1//EN" "http://www.w3.org/Graphics/SVG/1.1/DTD/svg11.dtd"><svg version="1.1" baseProfile="full" xmlns="http://www.w3.org/2000/svg" xmlns:xlink="http://www.w3.org/1999/xlink" xmlns:ev="http://www.w3.org/2001/xml-events"   height="33px"   width="33px" ><path fill="rgb( 66, 66, 66 )" d="M27,18 C27,18 27,30 27,30 C27,30 3,30 3,30 C3,30 3,6 3,6 C3,6 15,6 15,6 C15,6 15,3 15,3 C15,3 0,3 0,3 C0,3 0,33 0,33 C0,33 30,33 30,33 C30,33 30,18 30,18 C30,18 27,18 27,18 Z "/><path fill="rgb( 253, 142, 38 )" d="M30,3 C30,3 30,15 30,15 C30,15 33,15 33,15 C33,15 33,0 33,0 C33,0 18,0 18,0 C18,0 18,3 18,3 C18,3 30,3 30,3 Z "/></svg>