<?xml version="1.0" encoding="utf-8"?><!DOCTYPE svg PUBLIC "-//W3C//DTD SVG 1.1//EN" "http://www.w3.org/Graphics/SVG/1.1/DTD/svg11.dtd"><svg version="1.1" baseProfile="full" xmlns="http://www.w3.org/2000/svg" xmlns:xlink="http://www.w3.org/1999/xlink" xmlns:ev="http://www.w3.org/2001/xml-events"   height="20px"   width="14px" ><path fill="rgb( 255, 255, 255 )" d="M6.96800000000002,0.934 C3.084,0.934 0,4.02199999999999 0,7.83000000000001 C0,13.023 5.90100000000001,18.389 5.90100000000001,18.389 C6.69600000000003,19.098 7.18799999999999,19.155 8.03300000000002,18.389 C8.03300000000002,18.389 14,13.023 14,7.83000000000001 C14,4.02199999999999 10.851,0.934 6.96800000000002,0.934 ZM7.005,10.656 C5.16800000000001,10.656 3.68099999999998,9.25399999999999 3.68099999999998,7.524 C3.68099999999998,5.79599999999999 5.16800000000001,4.393 7.005,4.393 C8.84199999999998,4.393 10.33,5.79599999999999 10.33,7.524 C10.33,9.25399999999999 8.84199999999998,10.656 7.005,10.656 Z "/></svg>