<?xml version="1.0" encoding="utf-8"?><!DOCTYPE svg PUBLIC "-//W3C//DTD SVG 1.1//EN" "http://www.w3.org/Graphics/SVG/1.1/DTD/svg11.dtd"><svg version="1.1" baseProfile="full" xmlns="http://www.w3.org/2000/svg" xmlns:xlink="http://www.w3.org/1999/xlink" xmlns:ev="http://www.w3.org/2001/xml-events"   height="32px"   width="31px" ><path fill="rgb( 35, 35, 44 )" d="M29.6859999999999,19.117 C29.0599999999999,18.159 28.434,17.202 27.808,16.244 C27.6379999999999,16.019 27.6949999999999,15.906 27.808,15.681 C28.434,14.779 29.0599999999999,13.822 29.6289999999999,12.864 C30.3689999999999,11.737 29.971,10.667 28.7190000000001,10.216 C27.6379999999999,9.822 26.614,9.42700000000002 25.5899999999999,9.03300000000002 C25.3620000000001,8.97699999999998 25.3050000000001,8.80799999999999 25.248,8.58199999999999 C25.191,7.45600000000002 25.134,6.32900000000001 25.077,5.202 C25.021,4.01900000000001 24.0530000000001,3.28699999999998 22.8579999999999,3.625 C21.777,3.90600000000001 20.6389999999999,4.18799999999999 19.558,4.52600000000001 C19.3309999999999,4.58199999999999 19.1600000000001,4.52600000000001 18.989,4.35700000000003 C18.307,3.45600000000002 17.567,2.61099999999999 16.827,1.709 C16.0309999999999,0.75200000000001 14.893,0.75200000000001 14.096,1.709 C13.414,2.55399999999997 12.674,3.45600000000002 11.991,4.30099999999999 C11.8200000000001,4.52600000000001 11.65,4.58199999999999 11.365,4.52600000000001 C10.284,4.24400000000003 9.20299999999997,3.96300000000002 8.40700000000004,3.73700000000002 C6.87,3.399 6.01700000000005,3.96300000000002 5.90300000000002,5.202 C5.846,6.32900000000001 5.78899999999999,7.512 5.73199999999997,8.63900000000001 C5.73199999999997,8.86399999999998 5.61900000000003,8.97699999999998 5.39099999999996,9.089 C4.30999999999995,9.48399999999998 3.22900000000004,9.87799999999999 2.14800000000002,10.329 C1.00999999999999,10.779 0.66899999999998,11.85 1.351,12.864 C1.97699999999998,13.822 2.60299999999995,14.779 3.22900000000004,15.737 C3.39999999999998,15.962 3.34299999999996,16.075 3.22900000000004,16.3 C2.60299999999995,17.258 1.91999999999996,18.272 1.29499999999996,19.23 C0.66899999999998,20.188 1.06700000000001,21.258 2.14800000000002,21.709 C3.22900000000004,22.103 4.30999999999995,22.554 5.44799999999998,22.948 C5.67600000000004,23.061 5.73199999999997,23.173 5.78899999999999,23.399 C5.846,24.469 5.96000000000004,25.596 5.96000000000004,26.666 C5.96000000000004,27.793 6.92700000000002,28.751 8.29300000000001,28.356 C9.37400000000002,28.018 10.455,27.793 11.5359999999999,27.455 C11.764,27.399 11.877,27.455 12.048,27.624 C12.788,28.525 13.47,29.371 14.21,30.272 C15.0069999999999,31.23 16.145,31.23 16.941,30.272 C17.681,29.371 18.364,28.525 19.1030000000001,27.624 C19.2170000000001,27.455 19.3879999999999,27.399 19.558,27.455 C20.6959999999999,27.737 21.777,28.075 22.915,28.356 C24.0530000000001,28.638 25.021,27.962 25.077,26.779 C25.134,25.652 25.191,24.469 25.248,23.342 C25.248,23.061 25.3620000000001,23.004 25.5899999999999,22.892 C26.671,22.498 27.6949999999999,22.103 28.7760000000001,21.652 C29.971,21.258 30.3119999999999,20.132 29.6859999999999,19.117 Z "/></svg>