<?xml version="1.0" encoding="utf-8"?><!DOCTYPE svg PUBLIC "-//W3C//DTD SVG 1.1//EN" "http://www.w3.org/Graphics/SVG/1.1/DTD/svg11.dtd"><svg version="1.1" baseProfile="full" xmlns="http://www.w3.org/2000/svg" xmlns:xlink="http://www.w3.org/1999/xlink" xmlns:ev="http://www.w3.org/2001/xml-events"   height="32px"   width="32px" ><path fill="rgb( 35, 35, 44 )" d="M24,32 C24,32 24,24 24,24 C24,24 32,24 32,24 C32,24 32,32 32,32 C32,32 24,32 24,32 ZM24,12 C24,12 32,12 32,12 C32,12 32,20 32,20 C32,20 24,20 24,20 C24,20 24,12 24,12 ZM24,0 C24,0 32,0 32,0 C32,0 32,8 32,8 C32,8 24,8 24,8 C24,8 24,0 24,0 ZM12,24 C12,24 20,24 20,24 C20,24 20,32 20,32 C20,32 12,32 12,32 C12,32 12,24 12,24 ZM12,12 C12,12 20,12 20,12 C20,12 20,20 20,20 C20,20 12,20 12,20 C12,20 12,12 12,12 ZM12,0 C12,0 20,0 20,0 C20,0 20,8 20,8 C20,8 12,8 12,8 C12,8 12,0 12,0 ZM0,24 C0,24 8,24 8,24 C8,24 8,32 8,32 C8,32 0,32 0,32 C0,32 0,24 0,24 ZM0,12 C0,12 8,12 8,12 C8,12 8,20 8,20 C8,20 0,20 0,20 C0,20 0,12 0,12 ZM0,0 C0,0 8,0 8,0 C8,0 8,8 8,8 C8,8 0,8 0,8 C0,8 0,0 0,0 Z "/></svg>