<?xml version="1.0" encoding="utf-8"?><!DOCTYPE svg PUBLIC "-//W3C//DTD SVG 1.1//EN" "http://www.w3.org/Graphics/SVG/1.1/DTD/svg11.dtd"><svg version="1.1" baseProfile="full" xmlns="http://www.w3.org/2000/svg" xmlns:xlink="http://www.w3.org/1999/xlink" xmlns:ev="http://www.w3.org/2001/xml-events"   height="30px"   width="30px" ><path fill="rgb( 35, 35, 44 )" d="M14.687,20.071 C13.987,19.167 13.375,18.722 11.856,18.57 C11.581,18.519 11.381,18.278 11.381,17.99 C11.381,17.78 12.056,17.15 12.049,17.144 C12.75,16.425 13.125,15.261 13.125,14.364 C13.125,12.97 11.913,11.818 10.312,11.818 C8.68100000000004,11.818 7.5,12.97 7.5,14.364 C7.5,15.268 7.86900000000003,16.438 8.56899999999996,17.157 C8.56899999999996,17.157 9.24400000000003,17.78 9.24400000000003,17.99 C9.24400000000003,18.29 9.01800000000003,18.544 8.71900000000005,18.582 C7.23099999999999,18.735 6.63099999999997,19.181 5.93799999999999,20.071 C5.74300000000005,20.332 5.63099999999997,20.848 5.625,21.121 C5.625,21.121 5.625,22.319 5.625,22.319 C5.625,22.847 6.05600000000004,23.273 6.58699999999999,23.273 C6.58699999999999,23.273 14.037,23.273 14.037,23.273 C14.569,23.273 15,22.847 15,22.319 C15,22.319 15,21.121 15,21.121 C14.994,20.848 14.8869999999999,20.332 14.687,20.071 ZM23.1869999999999,13.091 C23.1869999999999,13.091 19.0619999999999,13.091 19.0619999999999,13.091 C18.2,13.091 17.5,13.803 17.5,14.682 C17.5,15.559 18.2,16.273 19.0619999999999,16.273 C19.0619999999999,16.273 23.1869999999999,16.273 23.1869999999999,16.273 C24.05,16.273 24.75,15.559 24.75,14.682 C24.75,13.803 24.05,13.091 23.1869999999999,13.091 ZM23.1869999999999,18.818 C23.1869999999999,18.818 19.0619999999999,18.818 19.0619999999999,18.818 C18.2,18.818 17.5,19.531 17.5,20.409 C17.5,21.287 18.2,22 19.0619999999999,22 C19.0619999999999,22 23.1869999999999,22 23.1869999999999,22 C24.05,22 24.75,21.287 24.75,20.409 C24.75,19.531 24.05,18.818 23.1869999999999,18.818 ZM0,27.454 C0,28.86 1.11900000000003,30 2.5,30 C2.5,30 27.5,30 27.5,30 C28.8810000000001,30 30,28.86 30,27.454 C30,27.454 30,5.09100000000001 30,5.09100000000001 C30,3.68400000000003 28.8810000000001,2.54599999999999 27.5,2.54599999999999 C27.5,2.54599999999999 20,2.54599999999999 20,2.54599999999999 C20,2.54599999999999 20,1.39999999999998 20,1.39999999999998 C20,0.62400000000002 19.3869999999999,0 18.625,0 C18.625,0 11.375,0 11.375,0 C10.6130000000001,0 10,0.62400000000002 10,1.39999999999998 C10,1.39999999999998 10,2.54599999999999 10,2.54599999999999 C10,2.54599999999999 2.5,2.54599999999999 2.5,2.54599999999999 C1.11900000000003,2.54599999999999 0,3.68400000000003 0,5.09100000000001 C0,5.09100000000001 0,27.454 0,27.454 ZM4.5,5.72699999999998 C4.5,5.72699999999998 10,5.72699999999998 10,5.72699999999998 C10,5.72699999999998 10,6.87200000000001 10,6.87200000000001 C10,7.649 10.6130000000001,8.27300000000002 11.375,8.27300000000002 C11.375,8.27300000000002 18.625,8.27300000000002 18.625,8.27300000000002 C19.3869999999999,8.27300000000002 20,7.649 20,6.87200000000001 C20,6.87200000000001 20,5.72699999999998 20,5.72699999999998 C20,5.72699999999998 25.5,5.72699999999998 25.5,5.72699999999998 C26.2619999999999,5.72699999999998 26.875,6.351 26.875,7.12599999999998 C26.875,7.12599999999998 26.875,25.417 26.875,25.417 C26.875,26.194 26.2619999999999,26.818 25.5,26.818 C25.5,26.818 4.5,26.818 4.5,26.818 C3.73800000000006,26.818 3.125,26.194 3.125,25.417 C3.125,25.417 3.125,7.12599999999998 3.125,7.12599999999998 C3.125,6.351 3.73800000000006,5.72699999999998 4.5,5.72699999999998 Z "/></svg>