<?xml version="1.0" encoding="utf-8"?><!DOCTYPE svg PUBLIC "-//W3C//DTD SVG 1.1//EN" "http://www.w3.org/Graphics/SVG/1.1/DTD/svg11.dtd"><svg version="1.1" baseProfile="full" xmlns="http://www.w3.org/2000/svg" xmlns:xlink="http://www.w3.org/1999/xlink" xmlns:ev="http://www.w3.org/2001/xml-events"   height="33px"   width="34px" ><path fill="rgb( 35, 35, 44 )" d="M32.4960000000001,32.247 C28.1900000000001,32.248 23.884,32.248 19.577,32.248 C13.3390000000001,32.248 7.10000000000002,32.248 0.86099999999999,32.248 C0.71400000000006,32.248 0.56700000000001,32.249 0.42100000000005,32.247 C0.17399999999998,32.24 0.03099999999995,32.128 0.03099999999995,31.873 C0.03200000000004,31.228 0.029,30.583 0.03099999999995,29.939 C0.03300000000002,29.61 0.255,29.562 0.529,29.562 C2.05899999999997,29.566 3.58799999999997,29.565 5.11699999999996,29.565 C8.92100000000005,29.565 12.726,29.565 16.53,29.565 C16.53,29.565 16.53,29.566 16.53,29.566 C21.8520000000001,29.566 27.173,29.566 32.4939999999999,29.566 C32.9549999999999,29.566 33.029,29.638 33.03,30.08 C33.0319999999999,30.63 33.0319999999999,31.179 33.03,31.729 C33.029,32.171 32.953,32.247 32.4960000000001,32.247 ZM3.43100000000004,13.395 C3.346,13.029 3.34400000000005,12.645 3.30100000000004,12.239 C5.625,12.239 7.89099999999996,12.239 10.1559999999999,12.239 C10.429,13.346 9.79600000000005,14.733 8.78499999999997,15.296 C8.69500000000005,15.347 8.63300000000004,15.526 8.63499999999999,15.644 C8.68799999999999,18.304 8.75199999999995,20.964 8.81399999999996,23.624 C8.81700000000001,23.729 8.81500000000005,23.836 8.81500000000005,23.971 C7.45100000000002,23.971 6.11300000000006,23.971 4.74599999999998,23.971 C4.74599999999998,23.466 4.73599999999999,22.97 4.74800000000005,22.474 C4.803,20.195 4.86699999999996,17.918 4.91800000000001,15.64 C4.91999999999996,15.528 4.86599999999999,15.347 4.78800000000001,15.313 C3.91600000000005,14.95 3.61699999999996,14.203 3.43100000000004,13.395 ZM13.181,13.374 C13.099,13.018 13.1,12.644 13.059,12.232 C15.394,12.232 17.652,12.232 19.9079999999999,12.232 C20.21,13.249 19.5260000000001,14.843 18.585,15.266 C18.3710000000001,15.363 18.376,15.494 18.3800000000001,15.664 C18.442,18.015 18.5029999999999,20.364 18.5609999999999,22.714 C18.5709999999999,23.119 18.5619999999999,23.524 18.5619999999999,23.964 C17.2090000000001,23.964 15.864,23.964 14.503,23.964 C14.503,23.424 14.492,22.901 14.504,22.379 C14.557,20.124 14.619,17.87 14.668,15.614 C14.67,15.508 14.605,15.334 14.524,15.299 C13.654,14.933 13.366,14.181 13.181,13.374 ZM30.625,26.019 C30.625,26.498 30.626,26.975 30.625,27.452 C30.623,28.134 30.6220000000001,28.136 29.9059999999999,28.136 C28.463,28.137 27.02,28.136 25.577,28.136 C18.068,28.135 10.5599999999999,28.135 3.05200000000002,28.133 C2.44299999999998,28.133 2.43200000000002,28.116 2.43399999999997,27.532 C2.43600000000004,27.043 2.43299999999999,26.553 2.43499999999995,26.064 C2.43899999999996,25.477 2.44000000000005,25.474 3.02499999999998,25.474 C7.53700000000003,25.474 12.05,25.474 16.5619999999999,25.474 C21.0630000000001,25.474 25.5630000000001,25.474 30.0630000000001,25.475 C30.6020000000001,25.475 30.625,25.5 30.625,26.019 ZM22.9559999999999,13.465 C22.8599999999999,13.078 22.8620000000001,12.669 22.817,12.239 C25.1479999999999,12.239 27.415,12.239 29.6800000000001,12.239 C29.942,13.347 29.3009999999999,14.747 28.3030000000001,15.299 C28.21,15.35 28.1420000000001,15.527 28.143,15.644 C28.1479999999999,16.455 28.175,17.267 28.1959999999999,18.077 C28.241,19.903 28.288,21.728 28.3330000000001,23.553 C28.336,23.683 28.3330000000001,23.814 28.3330000000001,23.979 C26.9549999999999,23.979 25.627,23.979 24.2670000000001,23.979 C24.2670000000001,23.31 24.2550000000001,22.659 24.27,22.009 C24.317,19.873 24.376,17.738 24.422,15.602 C24.424,15.502 24.3720000000001,15.337 24.3,15.309 C23.4480000000001,14.969 23.1489999999999,14.244 22.9559999999999,13.465 ZM31.8969999999999,10.84 C29.2919999999999,10.844 26.6869999999999,10.844 24.0820000000001,10.844 C21.5630000000001,10.845 19.0440000000001,10.844 16.5250000000001,10.844 C16.5250000000001,10.844 16.5250000000001,10.843 16.5250000000001,10.842 C11.474,10.842 6.42399999999998,10.843 1.37300000000005,10.839 C1.16700000000003,10.839 0.95000000000005,10.84 0.75900000000001,10.778 C0.36800000000005,10.65 0.13999999999999,10.362 0.09699999999998,9.95599999999999 C0.04899999999998,9.50700000000001 0.24099999999999,9.16900000000001 0.64099999999996,8.94399999999999 C1.73199999999997,8.33199999999999 2.82399999999996,7.721 3.91499999999996,7.11000000000001 C7.83500000000004,4.91399999999999 11.761,2.726 15.6700000000001,0.50999999999999 C16.2850000000001,0.16 16.7809999999999,0.167 17.3969999999999,0.51499999999999 C22.271,3.26900000000001 27.1610000000001,5.99700000000001 32.046,8.733 C32.173,8.804 32.3009999999999,8.874 32.425,8.94900000000001 C32.873,9.22 33.066,9.65199999999999 32.943,10.108 C32.8230000000001,10.554 32.4300000000001,10.839 31.8969999999999,10.84 ZM16.528,4.548 C15.654,4.55500000000001 14.912,5.28700000000001 14.924,6.13 C14.936,6.98099999999999 15.691,7.703 16.5540000000001,7.68799999999999 C17.4179999999999,7.67400000000001 18.1679999999999,6.917 18.1410000000001,6.08500000000001 C18.114,5.24299999999999 17.376,4.53899999999999 16.528,4.548 Z "/></svg>