<?xml version="1.0" encoding="utf-8"?><!DOCTYPE svg PUBLIC "-//W3C//DTD SVG 1.1//EN" "http://www.w3.org/Graphics/SVG/1.1/DTD/svg11.dtd"><svg version="1.1" baseProfile="full" xmlns="http://www.w3.org/2000/svg" xmlns:xlink="http://www.w3.org/1999/xlink" xmlns:ev="http://www.w3.org/2001/xml-events"   height="30px"   width="30px" ><path fill="rgb( 35, 35, 44 )" d="M0,2.977 C0,2.977 0,27.023 0,27.023 C0,28.667 1.34199999999998,30 3,30 C3,30 28.125,30 28.125,30 C29.1600000000001,30 30,29.166 30,28.14 C30,27.112 29.1600000000001,26.279 28.125,26.279 C28.125,26.279 5.25,26.279 5.25,26.279 C4.42499999999995,26.279 3.75,25.609 3.75,24.791 C3.75,23.973 4.42499999999995,23.302 5.25,23.302 C5.25,23.302 27,23.302 27,23.302 C28.6569999999999,23.302 30,21.969 30,20.325 C30,20.325 30,2.977 30,2.977 C30,1.33199999999999 28.6569999999999,0 27,0 C27,0 16.5,0 16.5,0 C16.5,0 16.5,13.388 16.5,13.388 C16.5,13.582 16.425,13.774 16.2819999999999,13.923 C15.99,14.213 15.51,14.213 15.2170000000001,13.923 C15.0219999999999,13.722 12,11.23 12,11.23 C12,11.23 8.97799999999995,13.722 8.78200000000004,13.923 C8.49000000000001,14.213 8.00999999999999,14.213 7.71699999999998,13.923 C7.57500000000005,13.774 7.5,13.582 7.5,13.388 C7.5,13.388 7.5,0 7.5,0 C7.5,0 3,0 3,0 C1.34199999999998,0 0,1.33199999999999 0,2.977 Z "/></svg>