<?xml version="1.0" encoding="utf-8"?><!DOCTYPE svg PUBLIC "-//W3C//DTD SVG 1.1//EN" "http://www.w3.org/Graphics/SVG/1.1/DTD/svg11.dtd"><svg version="1.1" baseProfile="full" xmlns="http://www.w3.org/2000/svg" xmlns:xlink="http://www.w3.org/1999/xlink" xmlns:ev="http://www.w3.org/2001/xml-events"   height="30px"   width="29px" ><path fill="rgb( 35, 35, 44 )" d="M28.147,0.5 C28.147,0.5 21.324,0.5 21.324,0.5 C20.846,0.5 20.471,0.875 20.471,1.35300000000007 C20.471,1.35300000000007 20.471,7.32300000000032 20.471,7.32300000000032 C20.471,7.32300000000032 14.5,7.32300000000032 14.5,7.32300000000032 C14.022,7.32300000000032 13.647,7.69899999999961 13.647,8.17600000000039 C13.647,8.17600000000039 13.647,14.1469999999999 13.647,14.1469999999999 C13.647,14.1469999999999 7.676,14.1469999999999 7.676,14.1469999999999 C7.199,14.1469999999999 6.824,14.5219999999999 6.824,15 C6.824,15 6.824,20.9700000000003 6.824,20.9700000000003 C6.824,20.9700000000003 0.853,20.9700000000003 0.853,20.9700000000003 C0.375,20.9700000000003 0,21.3459999999995 0,21.8230000000003 C0,21.8230000000003 0,28.6469999999999 0,28.6469999999999 C0,29.125 0.375,29.5 0.853,29.5 C0.853,29.5 28.147,29.5 28.147,29.5 C28.625,29.5 29,29.125 29,28.6469999999999 C29,28.6469999999999 29,1.35300000000007 29,1.35300000000007 C29,0.875 28.625,0.5 28.147,0.5 Z "/></svg>