<?xml version="1.0" encoding="utf-8"?><!DOCTYPE svg PUBLIC "-//W3C//DTD SVG 1.1//EN" "http://www.w3.org/Graphics/SVG/1.1/DTD/svg11.dtd"><svg version="1.1" baseProfile="full" xmlns="http://www.w3.org/2000/svg" xmlns:xlink="http://www.w3.org/1999/xlink" xmlns:ev="http://www.w3.org/2001/xml-events"   height="35px"   width="34px" ><path fill="rgb( 35, 35, 44 )" d="M31.761,11.498 C29.232,11.501 26.704,11.5 24.175,11.501 C21.7750000000001,11.501 19.376,11.501 16.9770000000001,11.501 C16.9770000000001,11.5 16.9770000000001,11.499 16.9770000000001,11.499 C12.095,11.499 7.21400000000006,11.489 2.33299999999997,11.509 C1.55999999999995,11.513 1.12699999999995,10.94 1.20500000000004,10.381 C1.25900000000001,9.99299999999999 1.49199999999996,9.756 1.81600000000003,9.571 C4.09000000000003,8.264 6.36199999999997,6.952 8.63400000000001,5.64100000000001 C11.171,4.178 13.713,2.72499999999999 16.24,1.245 C16.78,0.929 17.2370000000001,0.929 17.7809999999999,1.244 C22.48,3.97199999999999 27.191,6.68000000000001 31.8989999999999,9.393 C32.021,9.464 32.144,9.533 32.2650000000001,9.607 C32.7239999999999,9.88500000000001 32.9169999999999,10.305 32.799,10.768 C32.684,11.221 32.3009999999999,11.497 31.761,11.498 ZM16.9949999999999,5.27200000000001 C16.163,5.29300000000001 15.473,5.98999999999999 15.467,6.81699999999999 C15.461,7.652 16.1790000000001,8.377 17.0139999999999,8.379 C17.8409999999999,8.38200000000001 18.5699999999999,7.645 18.5609999999999,6.81399999999999 C18.5530000000001,5.97499999999999 17.819,5.252 16.9949999999999,5.27200000000001 ZM5.55200000000002,15.815 C5.24699999999996,15.622 4.96600000000001,15.336 4.779,15.025 C4.39200000000005,14.386 4.29200000000003,13.66 4.32299999999998,12.874 C6.53099999999995,12.874 8.702,12.874 10.872,12.874 C11.17,13.879 10.5069999999999,15.431 9.60799999999995,15.891 C9.50999999999999,15.942 9.41700000000003,16.12 9.41899999999998,16.237 C9.45699999999999,18.252 9.50300000000004,20.267 9.54899999999998,22.282 C8.32100000000003,21.918 7.04899999999998,21.62 5.721,21.388 C5.76099999999997,19.713 5.803,18.039 5.85000000000002,16.364 C5.85699999999997,16.103 5.79300000000001,15.968 5.55200000000002,15.815 ZM13.7859999999999,13.978 C13.712,13.627 13.7140000000001,13.261 13.679,12.877 C15.922,12.877 18.1010000000001,12.877 20.316,12.877 C20.3420000000001,13.838 20.1859999999999,14.722 19.5630000000001,15.47 C19.4670000000001,15.585 19.348,15.722 19.2149999999999,15.76 C18.759,15.888 18.7909999999999,16.21 18.8009999999999,16.58 C18.8699999999999,19.129 18.922,21.679 18.9770000000001,24.228 C18.9780000000001,24.245 18.9849999999999,24.39 18.9970000000001,24.608 C18.2719999999999,25.056 17.6099999999999,25.542 16.999,26.078 C16.4000000000001,25.55 15.747,25.067 15.029,24.623 C15.049,23.708 15.067,22.91 15.072,22.673 C15.12,20.513 15.178,18.354 15.223,16.194 C15.225,16.098 15.163,15.943 15.09,15.912 C14.2380000000001,15.546 13.9589999999999,14.791 13.7859999999999,13.978 ZM23.183,14.056 C23.096,13.685 23.1020000000001,13.292 23.0630000000001,12.88 C25.3030000000001,12.88 27.4829999999999,12.88 29.6610000000001,12.88 C29.902,14.003 29.297,15.353 28.3309999999999,15.91 C28.242,15.961 28.1800000000001,16.136 28.181,16.253 C28.1859999999999,17.056 28.212,17.859 28.231,18.661 C28.2539999999999,19.569 28.2760000000001,20.477 28.298,21.385 C26.9649999999999,21.617 25.692,21.914 24.462,22.278 C24.5060000000001,20.253 24.5599999999999,18.229 24.6020000000001,16.205 C24.604,16.107 24.5509999999999,15.946 24.481,15.917 C23.6500000000001,15.571 23.367,14.84 23.183,14.056 ZM10.504,23.852 C12.8819999999999,24.676 15.0940000000001,25.795 16.884,27.627 C16.915,27.658 16.9559999999999,27.68 17.01,27.719 C17.194,27.541 17.3679999999999,27.369 17.548,27.203 C19.3330000000001,25.558 21.462,24.533 23.732,23.77 C26.5319999999999,22.829 29.4169999999999,22.323 32.355,22.095 C32.7670000000001,22.062 32.99,22.248 32.9929999999999,22.66 C33.002,23.983 33.001,25.306 32.992,26.629 C32.989,27.027 32.8240000000001,27.171 32.3800000000001,27.181 C30.48,27.225 28.6079999999999,27.465 26.7840000000001,28.012 C23.1610000000001,29.098 20.0139999999999,30.972 17.4349999999999,33.772 C17.1089999999999,34.126 16.8779999999999,34.115 16.529,33.741 C13.318,30.307 9.36900000000003,28.252 4.76400000000001,27.466 C3.73699999999997,27.292 2.68399999999997,27.273 1.64200000000005,27.188 C1.13599999999997,27.147 1,27.015 1,26.513 C0.99800000000005,25.249 0.99800000000005,23.985 1.00199999999995,22.722 C1.00400000000002,22.25 1.20399999999995,22.063 1.64700000000005,22.097 C4.66899999999998,22.328 7.63400000000001,22.858 10.504,23.852 Z "/></svg>