<?xml version="1.0" encoding="utf-8"?><!DOCTYPE svg PUBLIC "-//W3C//DTD SVG 1.1//EN" "http://www.w3.org/Graphics/SVG/1.1/DTD/svg11.dtd"><svg version="1.1" baseProfile="full" xmlns="http://www.w3.org/2000/svg" xmlns:xlink="http://www.w3.org/1999/xlink" xmlns:ev="http://www.w3.org/2001/xml-events"   height="30px"   width="30px" ><path fill="rgb( 35, 35, 44 )" d="M0,15 C0,23.287 6.71299999999997,30 15,30 C23.287,30 30,23.287 30,15 C30,6.71300000000002 23.287,0 15,0 C6.71299999999997,0 0,6.71300000000002 0,15 ZM3.125,15 C3.125,14.037 3.23699999999997,13.099 3.45600000000002,12.206 C3.45600000000002,12.206 6.25,15 6.25,15 C6.25,15 5.625,18.75 5.625,18.75 C5.625,18.75 8.125,21.25 8.125,21.25 C8.125,21.25 8.125,24.682 8.125,24.682 C5.10000000000002,22.531 3.125,18.994 3.125,15 ZM12.269,3.44400000000002 C13.143,3.23099999999999 14.056,3.125 15,3.125 C16.0440000000001,3.125 17.056,3.26299999999998 18.019,3.512 C18.019,3.512 17.5,4.375 17.5,4.375 C17.5,4.375 18.125,5 18.125,5 C18.125,5 20,5 20,5 C20,5 20.519,4.48000000000002 20.519,4.48000000000002 C20.9559999999999,4.71100000000001 21.3679999999999,4.96199999999999 21.769,5.24400000000003 C21.769,5.24400000000003 20.625,5.625 20.625,5.625 C20.625,5.625 19.375,6.875 19.375,6.875 C19.375,6.875 20.625,7.5 20.625,7.5 C20.625,7.5 20.625,8.125 20.625,8.125 C20.625,8.125 19.375,8.125 19.375,8.125 C19.375,8.125 19.375,9.375 19.375,9.375 C19.375,9.375 20.2370000000001,10 21.25,10 C22.2439999999999,10 21.8,8.63200000000001 22.5,8.125 C23.2059999999999,7.61900000000003 24.0619999999999,7.73099999999999 24.0619999999999,7.73099999999999 C24.0619999999999,7.73099999999999 24.4690000000001,7.83699999999999 24.4690000000001,7.83699999999999 C25.231,8.84399999999999 25.837,9.96800000000002 26.25,11.188 C26.25,11.188 26.25,11.25 26.25,11.25 C26.25,11.25 25.3689999999999,10.625 23.75,10.625 C22.1310000000001,10.625 20.625,11.25 20.625,11.25 C20.625,11.25 18.8620000000001,11.762 18.75,13.125 C18.556,15.469 19.375,16.25 19.375,16.25 C19.375,16.25 22.5,18.125 22.5,18.125 C22.5,18.125 22.5,24.207 22.5,24.207 C20.4559999999999,25.875 17.8440000000001,26.874 15,26.874 C13.6559999999999,26.874 12.369,26.656 11.162,26.244 C11.162,26.244 14.375,18.75 14.375,18.75 C14.375,18.75 13.75,15.625 13.75,15.625 C13.75,15.625 11.268,12.5 10,12.5 C8.73199999999997,12.5 8.125,14.375 8.125,14.375 C8.125,14.375 6.875,11.875 6.875,11.875 C6.875,11.875 10.625,9.375 10.625,9.375 C10.625,9.375 12.5,4.375 12.5,4.375 C12.5,4.375 12.269,3.44400000000002 12.269,3.44400000000002 Z "/></svg>