<?xml version="1.0" encoding="utf-8"?><!DOCTYPE svg PUBLIC "-//W3C//DTD SVG 1.1//EN" "http://www.w3.org/Graphics/SVG/1.1/DTD/svg11.dtd"><svg version="1.1" baseProfile="full" xmlns="http://www.w3.org/2000/svg" xmlns:xlink="http://www.w3.org/1999/xlink" xmlns:ev="http://www.w3.org/2001/xml-events"   height="38px"   width="596px" ><path fill="rgb( 183, 184, 188 )" d="M586.728,37.9989999999998 C581.607,37.9989999999998 577.455,29.7170000000001 577.455,19.4969999999998 C577.455,9.27799999999979 581.607,0.99499999999989 586.728,0.99499999999989 C591.849,0.99499999999989 596,9.27799999999979 596,19.4969999999998 C596,29.7170000000001 591.849,37.9989999999998 586.728,37.9989999999998 ZM577.455,36.8440000000001 C576.464,37.5650000000001 575.48,37.9989999999998 574.364,37.9989999999998 C569.243,37.9989999999998 565.091,29.7170000000001 565.091,19.4969999999998 C565.091,9.27799999999979 569.243,0.99499999999989 574.364,0.99499999999989 C575.505,0.99499999999989 576.445,1.39800000000014 577.455,2.15099999999984 C577.455,2.15099999999984 577.455,2.15099999999984 577.455,2.15099999999984 C573.858,4.69599999999991 571.08,11.4470000000001 571.08,19.4969999999998 C571.08,27.5880000000002 573.83,34.3290000000002 577.455,36.8440000000001 ZM562,37.9989999999998 C556.879,37.9989999999998 552.727,29.7170000000001 552.727,19.4969999999998 C552.727,9.27799999999979 556.879,0.99499999999989 562,0.99499999999989 C563.142,0.99499999999989 564.081,1.39800000000014 565.091,2.15099999999984 C561.494,4.69599999999991 558.716,11.4470000000001 558.716,19.4969999999998 C558.716,27.5880000000002 561.466,34.3290000000002 565.091,36.8440000000001 C564.1,37.5650000000001 563.116,37.9989999999998 562,37.9989999999998 ZM552.727,36.8440000000001 C551.736,37.5650000000001 550.753,37.9989999999998 549.637,37.9989999999998 C544.515,37.9989999999998 540.364,29.7170000000001 540.364,19.4969999999998 C540.364,9.27799999999979 544.515,0.99499999999989 549.637,0.99499999999989 C550.778,0.99499999999989 551.718,1.39800000000014 552.727,2.15099999999984 C549.13,4.69599999999991 546.352,11.4470000000001 546.352,19.4969999999998 C546.352,27.5880000000002 549.102,34.3290000000002 552.727,36.8440000000001 ZM540.727,36.8440000000001 C539.736,37.5650000000001 538.753,37.9989999999998 537.637,37.9989999999998 C532.515,37.9989999999998 528.364,29.7170000000001 528.364,19.4969999999998 C528.364,9.27799999999979 532.515,0.99499999999989 537.637,0.99499999999989 C538.778,0.99499999999989 539.718,1.39800000000014 540.727,2.15099999999984 C537.13,4.69599999999991 534.352,11.4470000000001 534.352,19.4969999999998 C534.352,27.5880000000002 537.102,34.3290000000002 540.727,36.8440000000001 ZM528.727,36.8440000000001 C527.736,37.5650000000001 526.753,37.9989999999998 525.637,37.9989999999998 C520.515,37.9989999999998 516.364,29.7170000000001 516.364,19.4969999999998 C516.364,9.27799999999979 520.515,0.99499999999989 525.637,0.99499999999989 C526.778,0.99499999999989 527.718,1.39800000000014 528.727,2.15099999999984 C525.13,4.69599999999991 522.352,11.4470000000001 522.352,19.4969999999998 C522.352,27.5880000000002 525.102,34.3290000000002 528.727,36.8440000000001 ZM516.727,36.8440000000001 C515.736,37.5650000000001 514.753,37.9989999999998 513.636,37.9989999999998 C508.515,37.9989999999998 504.364,29.7170000000001 504.364,19.4969999999998 C504.364,9.27799999999979 508.515,0.99499999999989 513.637,0.99499999999989 C514.778,0.99499999999989 515.718,1.39800000000014 516.727,2.15099999999984 C513.13,4.69599999999991 510.352,11.4470000000001 510.352,19.4969999999998 C510.352,27.5880000000002 513.102,34.3290000000002 516.727,36.8440000000001 ZM504.727,36.8440000000001 C503.736,37.5650000000001 502.753,37.9989999999998 501.637,37.9989999999998 C496.515,37.9989999999998 492.364,29.7170000000001 492.364,19.4969999999998 C492.364,9.27799999999979 496.515,0.99499999999989 501.637,0.99499999999989 C502.778,0.99499999999989 503.718,1.39800000000014 504.727,2.15099999999984 C501.13,4.69599999999991 498.352,11.4470000000001 498.352,19.4969999999998 C498.352,27.5880000000002 501.102,34.3290000000002 504.727,36.8440000000001 ZM492.727,36.8440000000001 C491.736,37.5650000000001 490.753,37.9989999999998 489.637,37.9989999999998 C484.515,37.9989999999998 480.364,29.7170000000001 480.364,19.4969999999998 C480.364,9.27799999999979 484.515,0.99499999999989 489.637,0.99499999999989 C490.778,0.99499999999989 491.718,1.39800000000014 492.727,2.15099999999984 C489.13,4.69599999999991 486.352,11.4470000000001 486.352,19.4969999999998 C486.352,27.5880000000002 489.102,34.3290000000002 492.727,36.8440000000001 ZM480.727,36.8440000000001 C479.736,37.5650000000001 478.753,37.9989999999998 477.637,37.9989999999998 C472.515,37.9989999999998 468.364,29.7170000000001 468.364,19.4969999999998 C468.364,9.27799999999979 472.515,0.99499999999989 477.637,0.99499999999989 C478.778,0.99499999999989 479.718,1.39800000000014 480.727,2.15099999999984 C477.13,4.69599999999991 474.352,11.4470000000001 474.352,19.4969999999998 C474.352,27.5880000000002 477.102,34.3290000000002 480.727,36.8440000000001 ZM468.727,36.8440000000001 C467.736,37.5650000000001 466.753,37.9989999999998 465.637,37.9989999999998 C460.515,37.9989999999998 456.364,29.7170000000001 456.364,19.4969999999998 C456.364,9.27799999999979 460.515,0.99499999999989 465.637,0.99499999999989 C466.778,0.99499999999989 467.718,1.39800000000014 468.727,2.15099999999984 C465.13,4.69599999999991 462.352,11.4470000000001 462.352,19.4969999999998 C462.352,27.5880000000002 465.102,34.3290000000002 468.727,36.8440000000001 ZM456.727,36.8440000000001 C455.736,37.5650000000001 454.753,37.9989999999998 453.636,37.9989999999998 C448.515,37.9989999999998 444.364,29.7170000000001 444.364,19.4969999999998 C444.364,9.27799999999979 448.515,0.99499999999989 453.637,0.99499999999989 C454.778,0.99499999999989 455.718,1.39800000000014 456.727,2.15099999999984 C453.13,4.69599999999991 450.352,11.4470000000001 450.352,19.4969999999998 C450.352,27.5880000000002 453.102,34.3290000000002 456.727,36.8440000000001 ZM444.727,36.8440000000001 C443.736,37.5650000000001 442.753,37.9989999999998 441.637,37.9989999999998 C436.515,37.9989999999998 432.364,29.7170000000001 432.364,19.4969999999998 C432.364,9.27799999999979 436.515,0.99499999999989 441.637,0.99499999999989 C442.778,0.99499999999989 443.718,1.39800000000014 444.727,2.15099999999984 C441.13,4.69599999999991 438.352,11.4470000000001 438.352,19.4969999999998 C438.352,27.5880000000002 441.102,34.3290000000002 444.727,36.8440000000001 ZM432.364,36.8440000000001 C431.373,37.5650000000001 430.389,37.9989999999998 429.273,37.9989999999998 C424.152,37.9989999999998 420,29.7170000000001 420,19.4969999999998 C420,9.27799999999979 424.152,0.99499999999989 429.273,0.99499999999989 C430.414,0.99499999999989 431.354,1.39800000000014 432.364,2.15099999999984 C428.766,4.69599999999991 425.989,11.4470000000001 425.989,19.4969999999998 C425.989,27.5880000000002 428.738,34.3290000000002 432.364,36.8440000000001 ZM420.364,36.8440000000001 C419.373,37.5650000000001 418.389,37.9989999999998 417.273,37.9989999999998 C412.152,37.9989999999998 408,29.7170000000001 408,19.4969999999998 C408,9.27799999999979 412.152,0.99499999999989 417.273,0.99499999999989 C418.414,0.99499999999989 419.354,1.39800000000014 420.364,2.15099999999984 C416.766,4.69599999999991 413.989,11.4470000000001 413.989,19.4969999999998 C413.989,27.5880000000002 416.738,34.3290000000002 420.364,36.8440000000001 ZM408.364,36.8440000000001 C407.373,37.5650000000001 406.389,37.9989999999998 405.273,37.9989999999998 C400.152,37.9989999999998 396,29.7170000000001 396,19.4969999999998 C396,9.27799999999979 400.152,0.99499999999989 405.273,0.99499999999989 C406.414,0.99499999999989 407.354,1.39800000000014 408.364,2.15099999999984 C404.766,4.69599999999991 401.989,11.4470000000001 401.989,19.4969999999998 C401.989,27.5880000000002 404.738,34.3290000000002 408.364,36.8440000000001 ZM396.364,36.8440000000001 C395.373,37.5650000000001 394.389,37.9989999999998 393.273,37.9989999999998 C388.152,37.9989999999998 384,29.7170000000001 384,19.4969999999998 C384,9.27799999999979 388.152,0.99499999999989 393.273,0.99499999999989 C394.414,0.99499999999989 395.354,1.39800000000014 396.364,2.15099999999984 C392.767,4.69599999999991 389.989,11.4470000000001 389.989,19.4969999999998 C389.989,27.5880000000002 392.738,34.3290000000002 396.364,36.8440000000001 ZM384.364,36.8440000000001 C383.373,37.5650000000001 382.389,37.9989999999998 381.273,37.9989999999998 C376.152,37.9989999999998 372,29.7170000000001 372,19.4969999999998 C372,9.27799999999979 376.152,0.99499999999989 381.273,0.99499999999989 C382.414,0.99499999999989 383.354,1.39800000000014 384.364,2.15099999999984 C380.766,4.69599999999991 377.989,11.4470000000001 377.989,19.4969999999998 C377.989,27.5880000000002 380.738,34.3290000000002 384.364,36.8440000000001 ZM372.364,36.8440000000001 C371.373,37.5650000000001 370.389,37.9989999999998 369.273,37.9989999999998 C364.152,37.9989999999998 360,29.7170000000001 360,19.4969999999998 C360,9.27799999999979 364.152,0.99499999999989 369.273,0.99499999999989 C370.414,0.99499999999989 371.354,1.39800000000014 372.364,2.15099999999984 C368.766,4.69599999999991 365.989,11.4470000000001 365.989,19.4969999999998 C365.989,27.5880000000002 368.738,34.3290000000002 372.364,36.8440000000001 ZM360.364,36.8440000000001 C359.373,37.5650000000001 358.389,37.9989999999998 357.273,37.9989999999998 C352.152,37.9989999999998 348,29.7170000000001 348,19.4969999999998 C348,9.27799999999979 352.152,0.99499999999989 357.273,0.99499999999989 C358.414,0.99499999999989 359.354,1.39800000000014 360.364,2.15099999999984 C356.766,4.69599999999991 353.989,11.4470000000001 353.989,19.4969999999998 C353.989,27.5880000000002 356.738,34.3290000000002 360.364,36.8440000000001 ZM348.364,36.8440000000001 C347.373,37.5650000000001 346.389,37.9989999999998 345.273,37.9989999999998 C340.152,37.9989999999998 336,29.7170000000001 336,19.4969999999998 C336,9.27799999999979 340.152,0.99499999999989 345.273,0.99499999999989 C346.414,0.99499999999989 347.354,1.39800000000014 348.364,2.15099999999984 C344.766,4.69599999999991 341.989,11.4470000000001 341.989,19.4969999999998 C341.989,27.5880000000002 344.738,34.3290000000002 348.364,36.8440000000001 ZM336.364,36.8440000000001 C335.373,37.5650000000001 334.389,37.9989999999998 333.273,37.9989999999998 C328.152,37.9989999999998 324,29.7170000000001 324,19.4969999999998 C324,9.27799999999979 328.152,0.99499999999989 333.273,0.99499999999989 C334.414,0.99499999999989 335.354,1.39800000000014 336.364,2.15099999999984 C332.767,4.69599999999991 329.989,11.4470000000001 329.989,19.4969999999998 C329.989,27.5880000000002 332.738,34.3290000000002 336.364,36.8440000000001 ZM324.364,36.8440000000001 C323.373,37.5650000000001 322.389,37.9989999999998 321.273,37.9989999999998 C316.152,37.9989999999998 312,29.7170000000001 312,19.4969999999998 C312,9.27799999999979 316.152,0.99499999999989 321.273,0.99499999999989 C322.414,0.99499999999989 323.354,1.39800000000014 324.364,2.15099999999984 C320.766,4.69599999999991 317.989,11.4470000000001 317.989,19.4969999999998 C317.989,27.5880000000002 320.738,34.3290000000002 324.364,36.8440000000001 ZM312.364,36.8440000000001 C311.373,37.5650000000001 310.389,37.9989999999998 309.273,37.9989999999998 C304.152,37.9989999999998 300,29.7170000000001 300,19.4969999999998 C300,9.27799999999979 304.152,0.99499999999989 309.273,0.99499999999989 C310.414,0.99499999999989 311.354,1.39800000000014 312.364,2.15099999999984 C308.766,4.69599999999991 305.989,11.4470000000001 305.989,19.4969999999998 C305.989,27.5880000000002 308.738,34.3290000000002 312.364,36.8440000000001 ZM300.364,36.8440000000001 C299.373,37.5650000000001 298.389,37.9989999999998 297.273,37.9989999999998 C292.152,37.9989999999998 288,29.7170000000001 288,19.4969999999998 C288,9.27799999999979 292.152,0.99499999999989 297.273,0.99499999999989 C298.414,0.99499999999989 299.354,1.39800000000014 300.364,2.15099999999984 C296.766,4.69599999999991 293.989,11.4470000000001 293.989,19.4969999999998 C293.989,27.5880000000002 296.738,34.3290000000002 300.364,36.8440000000001 ZM288.364,36.8440000000001 C287.373,37.5650000000001 286.389,37.9989999999998 285.273,37.9989999999998 C280.152,37.9989999999998 276,29.7170000000001 276,19.4969999999998 C276,9.27799999999979 280.152,0.99499999999989 285.273,0.99499999999989 C286.414,0.99499999999989 287.354,1.39800000000014 288.364,2.15099999999984 C284.766,4.69599999999991 281.989,11.4470000000001 281.989,19.4969999999998 C281.989,27.5880000000002 284.738,34.3290000000002 288.364,36.8440000000001 ZM276.364,36.8440000000001 C275.373,37.5650000000001 274.389,37.9989999999998 273.273,37.9989999999998 C268.152,37.9989999999998 264,29.7170000000001 264,19.4969999999998 C264,9.27799999999979 268.152,0.99499999999989 273.273,0.99499999999989 C274.414,0.99499999999989 275.354,1.39800000000014 276.364,2.15099999999984 C272.767,4.69599999999991 269.989,11.4470000000001 269.989,19.4969999999998 C269.989,27.5880000000002 272.738,34.3290000000002 276.364,36.8440000000001 ZM264.364,36.8440000000001 C263.373,37.5650000000001 262.389,37.9989999999998 261.273,37.9989999999998 C256.152,37.9989999999998 252,29.7170000000001 252,19.4969999999998 C252,9.27799999999979 256.152,0.99499999999989 261.273,0.99499999999989 C262.414,0.99499999999989 263.354,1.39800000000014 264.364,2.15099999999984 C260.766,4.69599999999991 257.989,11.4470000000001 257.989,19.4969999999998 C257.989,27.5880000000002 260.738,34.3290000000002 264.364,36.8440000000001 ZM252.364,36.8440000000001 C251.373,37.5650000000001 250.389,37.9989999999998 249.273,37.9989999999998 C244.152,37.9989999999998 240,29.7170000000001 240,19.4969999999998 C240,9.27799999999979 244.152,0.99499999999989 249.273,0.99499999999989 C250.414,0.99499999999989 251.354,1.39800000000014 252.364,2.15099999999984 C248.766,4.69599999999991 245.989,11.4470000000001 245.989,19.4969999999998 C245.989,27.5880000000002 248.738,34.3290000000002 252.364,36.8440000000001 ZM240.364,36.8440000000001 C239.373,37.5650000000001 238.389,37.9989999999998 237.273,37.9989999999998 C232.152,37.9989999999998 228,29.7170000000001 228,19.4969999999998 C228,9.27799999999979 232.152,0.99499999999989 237.273,0.99499999999989 C238.414,0.99499999999989 239.354,1.39800000000014 240.364,2.15099999999984 C236.766,4.69599999999991 233.989,11.4470000000001 233.989,19.4969999999998 C233.989,27.5880000000002 236.738,34.3290000000002 240.364,36.8440000000001 ZM228.364,36.8440000000001 C227.373,37.5650000000001 226.389,37.9989999999998 225.273,37.9989999999998 C220.152,37.9989999999998 216,29.7170000000001 216,19.4969999999998 C216,9.27799999999979 220.152,0.99499999999989 225.273,0.99499999999989 C226.414,0.99499999999989 227.354,1.39800000000014 228.364,2.15099999999984 C224.766,4.69599999999991 221.989,11.4470000000001 221.989,19.4969999999998 C221.989,27.5880000000002 224.738,34.3290000000002 228.364,36.8440000000001 ZM216.364,36.8440000000001 C215.373,37.5650000000001 214.389,37.9989999999998 213.273,37.9989999999998 C208.152,37.9989999999998 204,29.7170000000001 204,19.4969999999998 C204,9.27799999999979 208.152,0.99499999999989 213.273,0.99499999999989 C214.414,0.99499999999989 215.354,1.39800000000014 216.364,2.15099999999984 C212.767,4.69599999999991 209.989,11.4470000000001 209.989,19.4969999999998 C209.989,27.5880000000002 212.738,34.3290000000002 216.364,36.8440000000001 ZM204.364,36.8440000000001 C203.373,37.5650000000001 202.389,37.9989999999998 201.273,37.9989999999998 C196.152,37.9989999999998 192,29.7170000000001 192,19.4969999999998 C192,9.27799999999979 196.152,0.99499999999989 201.273,0.99499999999989 C202.414,0.99499999999989 203.354,1.39800000000014 204.364,2.15099999999984 C200.766,4.69599999999991 197.989,11.4470000000001 197.989,19.4969999999998 C197.989,27.5880000000002 200.738,34.3290000000002 204.364,36.8440000000001 ZM192.364,36.8440000000001 C191.373,37.5650000000001 190.389,37.9989999999998 189.273,37.9989999999998 C184.152,37.9989999999998 180,29.7170000000001 180,19.4969999999998 C180,9.27799999999979 184.152,0.99499999999989 189.273,0.99499999999989 C190.414,0.99499999999989 191.354,1.39800000000014 192.364,2.15099999999984 C188.766,4.69599999999991 185.989,11.4470000000001 185.989,19.4969999999998 C185.989,27.5880000000002 188.738,34.3290000000002 192.364,36.8440000000001 ZM180.364,36.8440000000001 C179.373,37.5650000000001 178.389,37.9989999999998 177.273,37.9989999999998 C172.152,37.9989999999998 168,29.7170000000001 168,19.4969999999998 C168,9.27799999999979 172.152,0.99499999999989 177.273,0.99499999999989 C178.414,0.99499999999989 179.354,1.39800000000014 180.364,2.15099999999984 C176.766,4.69599999999991 173.989,11.4470000000001 173.989,19.4969999999998 C173.989,27.5880000000002 176.738,34.3290000000002 180.364,36.8440000000001 ZM168.364,36.8440000000001 C167.373,37.5650000000001 166.389,37.9989999999998 165.273,37.9989999999998 C160.152,37.9989999999998 156,29.7170000000001 156,19.4969999999998 C156,9.27799999999979 160.152,0.99499999999989 165.273,0.99499999999989 C166.414,0.99499999999989 167.354,1.39800000000014 168.364,2.15099999999984 C164.766,4.69599999999991 161.989,11.4470000000001 161.989,19.4969999999998 C161.989,27.5880000000002 164.738,34.3290000000002 168.364,36.8440000000001 ZM156.364,36.8440000000001 C155.373,37.5650000000001 154.389,37.9989999999998 153.273,37.9989999999998 C148.152,37.9989999999998 144,29.7170000000001 144,19.4969999999998 C144,9.27799999999979 148.152,0.99499999999989 153.273,0.99499999999989 C154.414,0.99499999999989 155.354,1.39800000000014 156.364,2.15099999999984 C152.767,4.69599999999991 149.989,11.4470000000001 149.989,19.4969999999998 C149.989,27.5880000000002 152.738,34.3290000000002 156.364,36.8440000000001 ZM144.364,36.8440000000001 C143.373,37.5650000000001 142.389,37.9989999999998 141.273,37.9989999999998 C136.152,37.9989999999998 132,29.7170000000001 132,19.4969999999998 C132,9.27799999999979 136.152,0.99499999999989 141.273,0.99499999999989 C142.414,0.99499999999989 143.354,1.39800000000014 144.364,2.15099999999984 C140.766,4.69599999999991 137.989,11.4470000000001 137.989,19.4969999999998 C137.989,27.5880000000002 140.738,34.3290000000002 144.364,36.8440000000001 ZM132.364,36.8440000000001 C131.373,37.5650000000001 130.389,37.9989999999998 129.273,37.9989999999998 C124.152,37.9989999999998 120,29.7170000000001 120,19.4969999999998 C120,9.27799999999979 124.152,0.99499999999989 129.273,0.99499999999989 C130.414,0.99499999999989 131.354,1.39800000000014 132.364,2.15099999999984 C128.766,4.69599999999991 125.989,11.4470000000001 125.989,19.4969999999998 C125.989,27.5880000000002 128.738,34.3290000000002 132.364,36.8440000000001 ZM120.364,36.8440000000001 C119.373,37.5650000000001 118.389,37.9989999999998 117.273,37.9989999999998 C112.152,37.9989999999998 108,29.7170000000001 108,19.4969999999998 C108,9.27799999999979 112.152,0.99499999999989 117.273,0.99499999999989 C118.414,0.99499999999989 119.354,1.39800000000014 120.364,2.15099999999984 C116.766,4.69599999999991 113.989,11.4470000000001 113.989,19.4969999999998 C113.989,27.5880000000002 116.738,34.3290000000002 120.364,36.8440000000001 ZM108.364,36.8440000000001 C107.373,37.5650000000001 106.389,37.9989999999998 105.273,37.9989999999998 C100.152,37.9989999999998 96,29.7170000000001 96,19.4969999999998 C96,9.27799999999979 100.152,0.99499999999989 105.273,0.99499999999989 C106.414,0.99499999999989 107.354,1.39800000000014 108.364,2.15099999999984 C104.766,4.69599999999991 101.989,11.4470000000001 101.989,19.4969999999998 C101.989,27.5880000000002 104.738,34.3290000000002 108.364,36.8440000000001 ZM96.364,36.8440000000001 C95.373,37.5650000000001 94.389,37.9989999999998 93.273,37.9989999999998 C88.152,37.9989999999998 84,29.7170000000001 84,19.4969999999998 C84,9.27799999999979 88.152,0.99499999999989 93.273,0.99499999999989 C94.414,0.99499999999989 95.354,1.39800000000014 96.364,2.15099999999984 C92.767,4.69599999999991 89.989,11.4470000000001 89.989,19.4969999999998 C89.989,27.5880000000002 92.738,34.3290000000002 96.364,36.8440000000001 ZM84.364,36.8440000000001 C83.373,37.5650000000001 82.389,37.9989999999998 81.273,37.9989999999998 C76.152,37.9989999999998 72,29.7170000000001 72,19.4969999999998 C72,9.27799999999979 76.152,0.99499999999989 81.273,0.99499999999989 C82.414,0.99499999999989 83.354,1.39800000000014 84.364,2.15099999999984 C80.766,4.69599999999991 77.989,11.4470000000001 77.989,19.4969999999998 C77.989,27.5880000000002 80.738,34.3290000000002 84.364,36.8440000000001 ZM72.364,36.8440000000001 C71.373,37.5650000000001 70.389,37.9989999999998 69.273,37.9989999999998 C64.152,37.9989999999998 60,29.7170000000001 60,19.4969999999998 C60,9.27799999999979 64.152,0.99499999999989 69.273,0.99499999999989 C70.414,0.99499999999989 71.354,1.39800000000014 72.364,2.15099999999984 C68.766,4.69599999999991 65.989,11.4470000000001 65.989,19.4969999999998 C65.989,27.5880000000002 68.738,34.3290000000002 72.364,36.8440000000001 ZM60.364,36.8440000000001 C59.373,37.5650000000001 58.389,37.9989999999998 57.273,37.9989999999998 C52.152,37.9989999999998 48,29.7170000000001 48,19.4969999999998 C48,9.27799999999979 52.152,0.99499999999989 57.273,0.99499999999989 C58.414,0.99499999999989 59.354,1.39800000000014 60.364,2.15099999999984 C56.766,4.69599999999991 53.989,11.4470000000001 53.989,19.4969999999998 C53.989,27.5880000000002 56.738,34.3290000000002 60.364,36.8440000000001 ZM48.364,36.8440000000001 C47.373,37.5650000000001 46.389,37.9989999999998 45.273,37.9989999999998 C40.152,37.9989999999998 36,29.7170000000001 36,19.4969999999998 C36,9.27799999999979 40.152,0.99499999999989 45.273,0.99499999999989 C46.414,0.99499999999989 47.354,1.39800000000014 48.364,2.15099999999984 C44.766,4.69599999999991 41.989,11.4470000000001 41.989,19.4969999999998 C41.989,27.5880000000002 44.738,34.3290000000002 48.364,36.8440000000001 ZM36.364,36.8440000000001 C35.373,37.5650000000001 34.389,37.9989999999998 33.273,37.9989999999998 C28.152,37.9989999999998 24,29.7170000000001 24,19.4969999999998 C24,9.27799999999979 28.152,0.99499999999989 33.273,0.99499999999989 C34.414,0.99499999999989 35.354,1.39800000000014 36.364,2.15099999999984 C32.767,4.69599999999991 29.989,11.4470000000001 29.989,19.4969999999998 C29.989,27.5880000000002 32.738,34.3290000000002 36.364,36.8440000000001 ZM24.364,36.8440000000001 C23.373,37.5650000000001 22.389,37.9989999999998 21.273,37.9989999999998 C16.152,37.9989999999998 12,29.7170000000001 12,19.4969999999998 C12,9.27799999999979 16.152,0.99499999999989 21.273,0.99499999999989 C22.414,0.99499999999989 23.354,1.39800000000014 24.364,2.15099999999984 C20.766,4.69599999999991 17.989,11.4470000000001 17.989,19.4969999999998 C17.989,27.5880000000002 20.738,34.3290000000002 24.364,36.8440000000001 ZM12.364,36.8440000000001 C11.373,37.5650000000001 10.389,37.9989999999998 9.273,37.9989999999998 C4.152,37.9989999999998 0,29.7170000000001 0,19.4969999999998 C0,9.27799999999979 4.152,0.99499999999989 9.273,0.99499999999989 C10.414,0.99499999999989 11.354,1.39800000000014 12.364,2.15099999999984 C8.76600000000001,4.69599999999991 5.989,11.4470000000001 5.989,19.4969999999998 C5.989,27.5880000000002 8.738,34.3290000000002 12.364,36.8440000000001 Z "/></svg>