<?xml version="1.0" encoding="utf-8"?><!DOCTYPE svg PUBLIC "-//W3C//DTD SVG 1.1//EN" "http://www.w3.org/Graphics/SVG/1.1/DTD/svg11.dtd"><svg version="1.1" baseProfile="full" xmlns="http://www.w3.org/2000/svg" xmlns:xlink="http://www.w3.org/1999/xlink" xmlns:ev="http://www.w3.org/2001/xml-events"   height="52px"   width="53px" ><path fill="rgb( 183, 184, 188 )" d="M26.278,26.7510000000002 C26.278,26.7510000000002 26.278,34.6660000000002 26.278,34.6660000000002 C25.701,34.2620000000002 24.893,33.8000000000002 23.854,33.8000000000002 C20.737,33.8000000000002 18.256,36.3420000000001 18.256,39.404 C18.256,42.5250000000001 20.795,45.009 23.854,45.009 C24.835,45.009 25.643,44.6039999999998 26.278,44.1999999999998 C26.278,44.1999999999998 26.278,52 26.278,52 C26.278,52 1,52 1,52 C1,52 0.99900000000002,26.6930000000002 0.99900000000002,26.6930000000002 C0.99900000000002,26.6930000000002 11.388,26.6930000000002 11.388,26.6930000000002 C11.4450000000001,26.52 11.4450000000001,26.3470000000002 11.4450000000001,26.2310000000002 C11.33,25.48 10.002,24.556 10.002,23.3420000000001 C10.002,21.3780000000002 11.6180000000001,19.7600000000002 13.581,19.7600000000002 C15.543,19.7600000000002 17.159,21.3780000000002 17.159,23.3420000000001 C17.159,24.556 15.774,25.3069999999998 15.659,26.2310000000002 C15.659,26.3470000000002 15.659,26.52 15.659,26.6930000000002 C15.659,26.6930000000002 26.278,26.6930000000002 26.278,26.6930000000002 C26.278,26.6930000000002 26.278,26.7510000000002 26.278,26.7510000000002 ZM45.324,26.7510000000002 C45.67,27.3290000000002 45.9589999999999,28.0219999999999 45.9589999999999,28.8890000000001 C45.9589999999999,32.0079999999998 43.419,34.4929999999999 40.361,34.4929999999999 C37.244,34.4929999999999 34.7619999999999,31.951 34.7619999999999,28.8890000000001 C34.7619999999999,28.0219999999999 35.051,27.3290000000002 35.455,26.7510000000002 C35.455,26.7510000000002 27.721,26.7510000000002 27.721,26.7510000000002 C27.721,26.7510000000002 27.721,37.2089999999998 27.721,37.2089999999998 C27.375,37.2660000000001 27.086,37.3240000000001 26.855,37.3240000000001 C26.798,37.3240000000001 26.798,37.3240000000001 26.74,37.3240000000001 C25.816,37.2089999999998 25.008,35.8229999999999 23.854,35.8229999999999 C21.8920000000001,35.8229999999999 20.276,37.4400000000001 20.276,39.404 C20.276,41.3690000000001 21.8920000000001,42.9859999999999 23.854,42.9859999999999 C25.008,42.9859999999999 25.989,41.6579999999999 26.74,41.5419999999999 C26.798,41.5419999999999 26.798,41.5419999999999 26.855,41.5419999999999 C27.086,41.5419999999999 27.375,41.5999999999999 27.721,41.7150000000001 C27.721,41.7150000000001 27.721,52 27.721,52 C27.721,52 53,52 53,52 C53,52 53,26.6930000000002 53,26.6930000000002 C53,26.6930000000002 45.324,26.6930000000002 45.324,26.6930000000002 C45.324,26.6930000000002 45.324,26.7510000000002 45.324,26.7510000000002 ZM29.741,15.9470000000001 C29.741,15.9470000000001 29.741,15.9470000000001 29.741,15.9470000000001 C29.799,16.0050000000001 29.856,16.0050000000001 29.914,16.0050000000001 C29.914,16.0050000000001 29.914,16.0050000000001 29.972,16.0050000000001 C30.03,16.0050000000001 30.087,16.0619999999999 30.145,16.0619999999999 C30.145,16.0619999999999 30.203,16.0619999999999 30.203,16.0619999999999 C30.26,16.0619999999999 30.318,16.0619999999999 30.376,16.1199999999999 C30.376,16.1199999999999 30.434,16.1199999999999 30.434,16.1199999999999 C30.491,16.1199999999999 30.549,16.1199999999999 30.664,16.1199999999999 C32.627,16.1199999999999 34.2430000000001,14.502 34.2430000000001,12.538 C34.2430000000001,10.5729999999999 32.627,8.95600000000013 30.664,8.95600000000013 C30.607,8.95600000000013 30.491,8.95600000000013 30.434,8.95600000000013 C30.434,8.95600000000013 30.376,8.95600000000013 30.376,8.95600000000013 C30.318,8.95600000000013 30.26,8.95600000000013 30.203,9.01400000000012 C30.203,9.01400000000012 30.145,9.01400000000012 30.145,9.01400000000012 C30.087,9.01400000000012 30.03,9.07099999999991 29.972,9.07099999999991 C29.972,9.07099999999991 29.972,9.07099999999991 29.914,9.07099999999991 C29.856,9.07099999999991 29.799,9.12899999999991 29.741,9.12899999999991 C29.741,9.12899999999991 29.741,9.12899999999991 29.741,9.12899999999991 C28.933,9.5329999999999 28.298,10.2840000000001 27.721,10.3429999999998 C27.721,10.3429999999998 27.721,10.3429999999998 27.721,10.3429999999998 C27.721,10.3429999999998 27.721,10.3429999999998 27.721,10.3429999999998 C27.663,10.3429999999998 27.663,10.3429999999998 27.606,10.3429999999998 C27.317,10.3429999999998 26.798,10.2260000000001 26.278,10.0529999999999 C26.278,10.0529999999999 26.278,0 26.278,0 C26.278,0 1,0 1,0 C1,0 0.99900000000002,25.3069999999998 0.99900000000002,25.3069999999998 C0.99900000000002,25.3069999999998 8.44399999999996,25.3069999999998 8.44399999999996,25.3069999999998 C8.15599999999995,24.7869999999998 7.92499999999995,24.1509999999998 7.92499999999995,23.4000000000001 C7.92499999999995,20.2800000000002 10.4640000000001,17.7950000000001 13.523,17.7950000000001 C16.64,17.7950000000001 19.121,20.3380000000002 19.121,23.4000000000001 C19.121,24.1509999999998 18.891,24.7869999999998 18.602,25.3069999999998 C18.602,25.3069999999998 26.163,25.3069999999998 26.163,25.3069999999998 C26.163,25.3069999999998 26.163,14.9650000000001 26.163,14.9650000000001 C26.682,14.7910000000002 27.144,14.7330000000002 27.432,14.7330000000002 C27.49,14.7330000000002 27.49,14.7330000000002 27.548,14.7330000000002 C27.548,14.7330000000002 27.548,14.7330000000002 27.606,14.7330000000002 C28.356,14.7910000000002 28.991,15.5419999999999 29.741,15.9470000000001 ZM52.942,25.3069999999998 C52.942,25.3069999999998 53,0 53,0 C53,0 27.663,0 27.663,0 C27.663,0 27.663,8.08899999999994 27.663,8.08899999999994 C28.356,7.56800000000021 29.279,6.9340000000002 30.549,6.9340000000002 C33.6660000000001,6.9340000000002 36.147,9.47600000000011 36.147,12.538 C36.147,15.6579999999999 33.6079999999999,18.1419999999998 30.549,18.1419999999998 C29.222,18.1419999999998 28.298,17.4490000000001 27.663,16.9870000000001 C27.663,16.9870000000001 27.663,25.2489999999998 27.663,25.2489999999998 C27.663,25.2489999999998 38.167,25.2489999999998 38.167,25.2489999999998 C38.225,25.538 38.225,25.7689999999998 38.225,25.942 C38.11,26.8670000000002 36.724,27.6759999999999 36.724,28.8310000000001 C36.724,30.7959999999998 38.341,32.413 40.303,32.413 C42.265,32.413 43.881,30.7959999999998 43.881,28.8310000000001 C43.881,27.6759999999999 42.554,26.6930000000002 42.438,25.942 C42.438,25.7689999999998 42.438,25.538 42.496,25.2489999999998 C42.496,25.2489999999998 52.942,25.2489999999998 52.942,25.2489999999998 C52.942,25.2489999999998 52.942,25.3069999999998 52.942,25.3069999999998 Z "/></svg>