<?xml version="1.0" encoding="utf-8"?><!DOCTYPE svg PUBLIC "-//W3C//DTD SVG 1.1//EN" "http://www.w3.org/Graphics/SVG/1.1/DTD/svg11.dtd"><svg version="1.1" baseProfile="full" xmlns="http://www.w3.org/2000/svg" xmlns:xlink="http://www.w3.org/1999/xlink" xmlns:ev="http://www.w3.org/2001/xml-events"   height="128px"   width="128px" ><defs><filter filterUnits="userSpaceOnUse" id="Filter_0" x="820px" y="337px" width="133px" height="133px"  >  <feOffset in="SourceAlpha" dx="0px" dy="1px" />  <feGaussianBlur result="blurOut" stdDeviation="1.732" />  <feFlood flood-color="rgb( 54, 171, 90 )" result="floodOut" />  <feComposite operator="atop" in="floodOut" in2="blurOut" />  <feComponentTransfer><feFuncA type="linear" slope="0.3"/></feComponentTransfer>  <feMerge>    <feMergeNode/>    <feMergeNode in="SourceGraphic"/>  </feMerge></filter></defs><g filter="url(#Filter_0)"><path fill="rgb( 255, 255, 255 )" d="M64,0 C28.6559999999999,0 0,28.656 0,64 C0,99.344 28.6559999999999,128 64,128 C99.3440000000001,128 128,99.344 128,64 C128,28.656 99.3440000000001,0 64,0 ZM61,89.008 C61,89.008 37,65.008 37,65.008 C37,65.008 49,53.008 49,53.008 C49,53.008 61,65.008 61,65.008 C61,65.008 89,37.008 89,37.008 C89,37.008 101,49.008 101,49.008 C101,49.008 61,89.008 61,89.008 Z "/></g></svg>