<?xml version="1.0" encoding="utf-8"?><!DOCTYPE svg PUBLIC "-//W3C//DTD SVG 1.1//EN" "http://www.w3.org/Graphics/SVG/1.1/DTD/svg11.dtd"><svg version="1.1" baseProfile="full" xmlns="http://www.w3.org/2000/svg" xmlns:xlink="http://www.w3.org/1999/xlink" xmlns:ev="http://www.w3.org/2001/xml-events"   height="65px"   width="65px" ><path fill="rgb( 18, 37, 43 )" d="M64.861,54.0479999999998 C64.861,54.0479999999998 64.861,64.8130000000001 64.861,64.8130000000001 C64.861,64.8130000000001 39.274,64.8130000000001 39.274,64.8130000000001 C39.274,64.8130000000001 13.787,64.8130000000001 13.787,64.8130000000001 C13.787,64.8130000000001 13.787,54.0479999999998 13.787,54.0479999999998 C13.787,54.0479999999998 13.787,53.7460000000001 13.787,53.7460000000001 C13.787,52.9679999999998 13.787,52.2550000000001 13.787,51.6329999999998 C13.787,51.6329999999998 13.787,51.3310000000001 13.787,51.3310000000001 C13.888,47.3069999999998 14.694,44.4899999999998 18.824,41.9750000000004 C24.264,38.5540000000001 30.409,35.6360000000004 30.409,35.6360000000004 C30.409,35.6360000000004 35.244,50.9290000000001 35.244,50.9290000000001 C35.244,50.9290000000001 38.0650000000001,42.8800000000001 38.0650000000001,42.8800000000001 C33.129,35.9380000000001 38.367,35.6360000000004 39.374,35.6360000000004 C40.2809999999999,35.6360000000004 45.62,36.0389999999998 40.684,42.8800000000001 C40.684,42.8800000000001 43.505,50.9290000000001 43.505,50.9290000000001 C43.505,50.9290000000001 48.34,35.6360000000004 48.34,35.6360000000004 C48.34,35.6360000000004 54.384,38.5540000000001 59.924,41.9750000000004 C64.0549999999999,44.5910000000003 64.76,47.3069999999998 64.961,51.3310000000001 C64.961,51.3310000000001 64.961,51.6329999999998 64.961,51.6329999999998 C64.861,52.4380000000001 64.861,53.2430000000004 64.861,54.0479999999998 ZM39.475,32.1149999999998 C39.393,32.1149999999998 39.3680000000001,32.1149999999998 39.311,32.1149999999998 C39.299,32.1149999999998 39.274,32.1149999999998 39.274,32.1149999999998 C25.271,31.9139999999998 27.2859999999999,13.3010000000004 27.4880000000001,13.3010000000004 C27.991,0.92600000000039 38.468,1.02700000000004 39.475,1.02700000000004 C40.482,0.92600000000039 50.8579999999999,0.82499999999982 51.463,13.3010000000004 C51.463,13.3010000000004 53.477,32.0140000000001 39.475,32.1149999999998 ZM10.769,51.2309999999998 C10.769,51.2309999999998 0.976,51.2309999999998 0.976,51.2309999999998 C0.976,51.2309999999998 0.976,43.8019999999997 0.976,43.8019999999997 C1.00400000000002,42.6930000000002 1.12599999999998,41.7510000000002 1.53099999999995,40.9129999999996 C1.93600000000004,40.0709999999999 2.61300000000006,39.3389999999999 3.75099999999998,38.6459999999997 C6.74900000000002,36.7610000000004 10.135,35.1530000000002 10.135,35.1530000000002 C10.135,35.1530000000002 10.141,35.1530000000002 10.141,35.1530000000002 C11.134,36.4949999999999 12.6660000000001,37.4759999999997 15.02,37.509 C15.075,37.509 15.075,37.509 15.131,37.509 C17.496,37.4930000000004 19.033,36.5110000000004 20.021,35.1589999999997 C20.021,35.1589999999997 20.027,35.1589999999997 20.027,35.1589999999997 C20.13,35.2089999999998 21.0890000000001,35.6760000000004 22.405,36.3760000000002 C20.759,37.2830000000004 18.975,38.3140000000003 17.251,39.3980000000001 C12.072,42.5510000000004 10.904,46.3829999999998 10.769,51.2309999999998 ZM15.13,33.2129999999997 C15.0839999999999,33.2129999999997 15.071,33.2129999999997 15.039,33.2129999999997 C15.032,33.2129999999997 15.019,33.2129999999997 15.019,33.2129999999997 C7.303,33.1019999999999 8.41300000000001,22.8450000000003 8.524,22.8450000000003 C8.80100000000004,16.0259999999998 14.574,16.0820000000003 15.13,16.0820000000003 C15.6849999999999,16.0259999999998 21.402,15.9709999999995 21.735,22.8450000000003 C21.735,22.8450000000003 22.845,33.1570000000002 15.13,33.2129999999997 Z "/></svg>