<?xml version="1.0" encoding="UTF-8" standalone="no"?>
<svg width="25px" height="28px" viewBox="0 0 25 28" version="1.1" xmlns="http://www.w3.org/2000/svg" xmlns:xlink="http://www.w3.org/1999/xlink" xmlns:sketch="http://www.bohemiancoding.com/sketch/ns">
    <!-- Generator: Sketch 3.3.3 (12081) - http://www.bohemiancoding.com/sketch -->
    <title>Shape</title>
    <desc>Created with Sketch.</desc>
    <defs></defs>
    <g id="Page-1" stroke="none" stroke-width="1" fill="none" fill-rule="evenodd" sketch:type="MSPage">
        <path d="M16.461,26.215 C15.252,27.364 14.546,27.277 13.409,26.215 C13.409,26.215 4.958,18.176 4.958,10.395 C4.958,4.688 9.375,0.06 14.936,0.06 C20.497,0.06 25.006,4.688 25.006,10.395 C25.006,18.176 16.461,26.215 16.461,26.215 L16.461,26.215 Z M14.989,5.243 C12.358,5.243 10.229,7.346 10.229,9.935 C10.229,12.527 12.358,14.628 14.989,14.628 C17.62,14.628 19.751,12.527 19.751,9.935 C19.751,7.346 17.62,5.243 14.989,5.243 L14.989,5.243 Z M4.656,20.198 L7.4,20.198 C7.893,20.981 8.402,21.714 8.904,22.391 C8.783,23.437 8.529,24.524 8.167,25.301 C8.903,24.955 9.529,24.442 9.997,23.799 C10.302,24.174 10.591,24.513 10.865,24.828 C9.743,26.181 8.039,27.045 6.13,27.045 L6.129,27.045 L6.128,27.045 C2.748,27.045 0.008,24.34 0.008,21.004 C0.008,18.084 2.107,15.647 4.897,15.085 C5.092,15.654 5.316,16.211 5.559,16.76 C5.186,17.374 4.767,18.484 4.656,20.198 L4.656,20.198 Z M1.444,20.198 L3.295,20.198 C3.38,18.99 3.667,17.678 4.091,16.77 C2.722,17.413 1.713,18.587 1.444,20.198 L1.444,20.198 Z M3.291,21.805 L1.434,21.805 C1.687,23.416 2.703,24.649 4.091,25.301 C3.66,24.378 3.37,23.014 3.291,21.805 L3.291,21.805 Z M6.128,25.76 C6.402,25.76 7.436,24.222 7.605,21.805 L4.652,21.805 C4.821,24.222 5.855,25.76 6.128,25.76 L6.128,25.76 Z" id="Shape" fill="#23232C" sketch:type="MSShapeGroup"></path>
    </g>
</svg>