<?xml version="1.0" encoding="UTF-8" standalone="no"?>
<svg width="24px" height="24px" viewBox="0 0 24 24" version="1.1" xmlns="http://www.w3.org/2000/svg" xmlns:xlink="http://www.w3.org/1999/xlink" xmlns:sketch="http://www.bohemiancoding.com/sketch/ns">
    <!-- Generator: Sketch 3.3.3 (12081) - http://www.bohemiancoding.com/sketch -->
    <title>Shape</title>
    <desc>Created with Sketch.</desc>
    <defs></defs>
    <g id="Page-1" stroke="none" stroke-width="1" fill="none" fill-rule="evenodd" sketch:type="MSPage">
        <path d="M22.5,4.5 L19.5,4.5 L19.5,0 L4.5,0 L4.5,4.5 L1.5,4.5 C0.671,4.5 0,5.171 0,6 L0,12 C0,12.829 0.671,13.5 1.5,13.5 L4.649,13.5 C5.247,16.438 7.561,18.753 10.5,19.351 L10.5,21 L9,21 C8.171,21 7.5,21.671 7.5,22.5 L7.5,24 L16.5,24 L16.5,22.5 C16.5,21.671 15.829,21 15,21 L13.5,21 L13.5,19.351 C16.439,18.753 18.753,16.438 19.348,13.5 L22.5,13.5 C23.329,13.5 24,12.829 24,12 L24,6 C24,5.171 23.329,4.5 22.5,4.5 L22.5,4.5 Z M4.5,10.5 L3,10.5 L3,7.5 L4.5,7.5 L4.5,10.5 L4.5,10.5 Z M14.233,8.941 L15.718,13.526 L11.985,10.752 L8.247,13.5 L9.735,8.985 L6.006,6 L10.486,6 L11.98,1.558 L13.485,6 L17.962,6 L14.233,8.941 L14.233,8.941 Z M21,10.5 L19.5,10.5 L19.5,7.5 L21,7.5 L21,10.5 L21,10.5 Z" id="Shape" fill="#7B7B82" sketch:type="MSShapeGroup"></path>
    </g>
</svg>