<?xml version="1.0" encoding="utf-8"?>
<!-- Generator: Adobe Illustrator 19.1.0, SVG Export Plug-In . SVG Version: 6.00 Build 0)  -->
<svg version="1.1" id="Layer_1" xmlns="http://www.w3.org/2000/svg" xmlns:xlink="http://www.w3.org/1999/xlink" x="0px" y="0px"
	 viewBox="-607 369 64 64" style="enable-background:new -607 369 64 64;" xml:space="preserve">
<style type="text/css">
	.st0{fill:#23232C;}
</style>
<g>
	<path class="st0" d="M-579.5,408.2l-7.8,17.4l2.2,5.7c0.3,0.9,0.9,1.1,1.7,0.8l7.1-2.7l0.1-0.1l-1.6-4.2l4.1-1.5l-1.6-4l4.1-1.5
		l-1.6-4l5.3-2l2-4.6c4.4-0.4,8.6-3.1,10.5-7.5c1.9-4.3,1.2-9.1-1.4-12.7c0.4,1.6,0.5,3.4,0.3,5.1c-0.4,4-2.4,7.7-5.6,10.2
		c-2.7,2.2-6.1,3.3-9.5,3.3c-1.5,0-2.9-0.2-4.3-0.6l-2.8,2.3l-0.8,0.7L-579.5,408.2z"/>
	<path class="st0" d="M-567,387.2"/>
	<path class="st0" d="M-569.4,383c0,1.6,0.3,3.1,0.8,4.5c0.1,0.2,0.2,0.5,0.3,0.7c0.3,0.4,0.8,0.6,1.3,0.6c0.3,0,0.6-0.1,1-0.4
		c0.6-0.5,0.7-1.2,0.5-1.9c0,0,0.2,0.8,0,0c-0.3-1.1-0.7-2.3-0.7-3.6c0-5.3,4.1-9.5,9.1-9.5c2.9,0,5.5,1.4,7.1,3.7
		c1.2,1.6,2,3.7,2,5.9c0,3.3-1.6,6.1-4,7.9c0.3,1.1,0.5,2.3,0.5,3.5c4-2.1,6.7-6.4,6.7-11.3c0-3.1-1.1-5.9-2.8-8.1
		c-2.3-2.9-5.7-4.7-9.6-4.7C-563.9,370.3-569.4,376-569.4,383z"/>
	<g>
		<path class="st0" d="M-603.1,416.3l7.5,0.9l0.1,0l0.5-4.5l4.4,0.5l0.4-4.3l4.3,0.5l0.4-4.3l5.6,0.7l3.9-3.1
			c4.1,1.7,9,1.1,12.8-1.8c5.5-4.4,6.4-12.4,2-17.9c-0.6-0.8-1.3-1.4-2.1-2c-0.2,0.7-0.3,1.5-0.3,2.2c0,0.9,0.3,1.8,0.6,2.8
			c0,0.1,0.1,0.2,0.1,0.4l0,0l0,0c0,0.2,0.1,0.3,0.1,0.5c0.2,1.4-0.4,2.8-1.5,3.7c-0.7,0.6-1.6,0.9-2.6,0.9c-1.3,0-2.5-0.6-3.2-1.6
			c-0.4-0.4-0.6-0.9-0.8-1.5c-0.6-1.7-0.9-3.5-0.9-5.3c0-1.7,0.3-3.4,0.8-5c-2.8,0-5.6,0.9-8,2.8c-3.7,3-5.3,7.5-4.6,11.9l-19.9,16
			l-0.6,6.1C-604.4,415.7-604,416.2-603.1,416.3z"/>
	</g>
</g>
</svg>
