<?xml version="1.0" encoding="utf-8"?><!DOCTYPE svg PUBLIC "-//W3C//DTD SVG 1.1//EN" "http://www.w3.org/Graphics/SVG/1.1/DTD/svg11.dtd"><svg version="1.1" baseProfile="full" xmlns="http://www.w3.org/2000/svg" xmlns:xlink="http://www.w3.org/1999/xlink" xmlns:ev="http://www.w3.org/2001/xml-events"   height="36px"   width="62px" ><path fill="rgb( 253, 142, 38 )" d="M61.182,27.223 C61.182,27.223 49.479,27.223 49.479,27.223 C49.058,25.826 48.019,24.52 45.5359999999999,23.786 C45.5359999999999,23.786 44.751,23.547 44.751,23.547 C41.466,22.581 39.708,22.058 39.248,21.01 C39.136,20.632 39.17,20.214 40.265,19.81 C43.785,18.773 45.568,18.23 45.989,16.897 C45.989,16.897 46.211,16.897 46.211,16.897 C46.151,16.842 46.093,16.79 46.038,16.727 C44.299,15.028 42.971,11.715 42.971,9.04000000000002 C42.971,5.25700000000001 45.831,2.77199999999999 48.538,2.77199999999999 C51.244,2.77199999999999 53.966,5.45699999999999 53.966,9.245 C53.966,11.92 52.4880000000001,15.128 50.672,16.77 C51.046,18.314 53.087,18.819 57.309,20.072 C62,21.467 61.196,24.913 61.182,27.223 ZM33.865,20.577 C33.865,20.577 33.575,20.838 33.575,20.838 C33.575,20.838 33.664,21.229 33.664,21.229 C34.289,23.701 37.102,24.548 42.752,26.175 C42.752,26.175 43.913,26.544 43.913,26.544 C46.8390000000001,27.412 48.223,28.845 48.826,30.428 C48.826,30.428 48.848,30.428 48.848,30.428 C49.407,31.967 49.3390000000001,33.64 49.272,35.201 C49.25,35.437 49.25,35.697 49.228,35.915 C49.228,35.915 12.873,35.915 12.873,35.915 C12.851,35.547 12.828,35.178 12.784,34.744 C12.672,33.29 12.56,31.793 12.962,30.426 C13.453,28.82 14.727,27.41 17.673,26.542 C17.673,26.542 18.812,26.173 18.812,26.173 C23.9930000000001,24.675 26.7619999999999,23.83 27.677,21.855 C27.677,21.855 27.968,21.357 27.968,21.357 C27.968,21.357 27.946,20.728 27.946,20.728 C27.879,20.685 27.835,20.641 27.745,20.532 C27.432,20.207 27.12,19.881 26.829,19.492 C24.8200000000001,16.908 23.39,12.917 23.39,9.62 C23.39,5.40899999999999 26.473,0.94 31.072,0.94 C34.668,0.94 38.532,4.54300000000001 38.532,9.923 C38.532,13.353 36.7670000000001,17.603 34.356,20.098 C34.199,20.274 34.021,20.424 33.865,20.577 ZM17.25,23.547 C17.25,23.547 16.468,23.786 16.468,23.786 C13.98,24.52 12.945,25.826 12.521,27.223 C12.521,27.223 0.82299999999998,27.223 0.82299999999998,27.223 C0.81,24.913 0,21.467 4.69499999999999,20.072 C8.911,18.819 10.955,18.314 11.327,16.77 C9.51100000000002,15.128 8.03899999999999,11.92 8.03899999999999,9.245 C8.03899999999999,5.45699999999999 10.759,2.77199999999999 13.467,2.77199999999999 C16.175,2.77199999999999 19.035,5.25700000000001 19.035,9.04000000000002 C19.035,11.715 17.705,15.028 15.966,16.727 C15.913,16.79 15.853,16.842 15.794,16.897 C15.794,16.897 16.014,16.897 16.014,16.897 C16.434,18.23 18.217,18.773 21.735,19.81 C22.856,19.97 22.629,20.594 22.754,21.01 C22.297,22.058 20.538,22.581 17.25,23.547 Z "/></svg>