<?xml version="1.0" encoding="utf-8"?><!DOCTYPE svg PUBLIC "-//W3C//DTD SVG 1.1//EN" "http://www.w3.org/Graphics/SVG/1.1/DTD/svg11.dtd"><svg version="1.1" baseProfile="full" xmlns="http://www.w3.org/2000/svg" xmlns:xlink="http://www.w3.org/1999/xlink" xmlns:ev="http://www.w3.org/2001/xml-events"   height="31px"   width="33px" ><path fill="rgb( 35, 35, 44 )" d="M23.154,30.999 C23.154,30.999 15.622,27.061 15.622,27.061 C15.622,27.061 8.09,30.998 8.09,30.998 C8.09,30.998 5.653,29.237 5.653,29.237 C5.653,29.237 7.092,20.897 7.092,20.897 C7.092,20.897 0.999,14.992 0.999,14.992 C0.999,14.992 1.93,12.144 1.93,12.144 C1.93,12.144 10.349,10.927 10.349,10.927 C10.349,10.927 14.116,3.34000000000003 14.116,3.34000000000003 C14.116,3.34000000000003 17.128,4.81899999999996 17.128,4.81899999999996 C17.128,4.81899999999996 12.971,13.193 12.971,13.193 C12.971,13.193 11.706,14.106 11.706,14.106 C11.706,14.106 5.78,14.962 5.78,14.962 C5.78,14.962 10.069,19.119 10.069,19.119 C10.069,19.119 10.552,20.597 10.552,20.597 C10.552,20.597 9.539,26.467 9.539,26.467 C9.539,26.467 14.84,23.696 14.84,23.696 C14.84,23.696 16.403,23.696 16.403,23.696 C16.403,23.696 21.705,26.467 21.705,26.467 C21.705,26.467 20.692,20.597 20.692,20.597 C20.692,20.597 21.175,19.119 21.175,19.119 C21.175,19.119 27.9,12.601 27.9,12.601 C27.9,12.601 30.245,14.992 30.245,14.992 C30.245,14.992 24.152,20.898 24.152,20.898 C24.152,20.898 25.591,29.2380000000001 25.591,29.2380000000001 C25.591,29.2380000000001 23.154,30.999 23.154,30.999 Z "/><path fill="rgb( 253, 142, 38 )" d="M31.518,12.109 C31.518,12.109 22.225,10.766 22.225,10.766 C22.225,10.766 20.96,9.85199999999998 20.96,9.85199999999998 C20.96,9.85199999999998 16.803,1.47799999999995 16.803,1.47799999999995 C16.803,1.47799999999995 19.815,0 19.815,0 C19.815,0 23.582,7.58699999999999 23.582,7.58699999999999 C23.582,7.58699999999999 32.001,8.80399999999997 32.001,8.80399999999997 C32.001,8.80399999999997 31.518,12.109 31.518,12.109 Z "/></svg>