<?xml version="1.0" encoding="utf-8"?><!DOCTYPE svg PUBLIC "-//W3C//DTD SVG 1.1//EN" "http://www.w3.org/Graphics/SVG/1.1/DTD/svg11.dtd"><svg version="1.1" baseProfile="full" xmlns="http://www.w3.org/2000/svg" xmlns:xlink="http://www.w3.org/1999/xlink" xmlns:ev="http://www.w3.org/2001/xml-events"   height="52px"   width="52px" ><path fill="rgb( 183, 184, 188 )" d="M52,0 C52,0 0,0 0,0 C0,0 0,52 0,52 C0,52 52,52 52,52 C52,52 52,0 52,0 ZM37.622,41.9200000000001 C37.622,41.9200000000001 25.447,33.0149999999999 25.447,33.0149999999999 C25.447,33.0149999999999 13.247,42.2689999999998 13.247,42.2689999999998 C13.247,42.2689999999998 18.102,28.1010000000001 18.102,28.1010000000001 C18.102,28.1010000000001 5.94100000000003,19.5 5.94100000000003,19.5 C5.94100000000003,19.5 20.546,19.5 20.546,19.5 C20.546,19.5 25.428,5.01499999999987 25.428,5.01499999999987 C25.428,5.01499999999987 30.335,19.5 30.335,19.5 C30.335,19.5 44.947,19.5 44.947,19.5 C44.947,19.5 32.779,28.0309999999999 32.779,28.0309999999999 C32.779,28.0309999999999 37.622,41.9200000000001 37.622,41.9200000000001 Z "/></svg>