<?xml version="1.0" encoding="utf-8"?><!DOCTYPE svg PUBLIC "-//W3C//DTD SVG 1.1//EN" "http://www.w3.org/Graphics/SVG/1.1/DTD/svg11.dtd"><svg version="1.1" baseProfile="full" xmlns="http://www.w3.org/2000/svg" xmlns:xlink="http://www.w3.org/1999/xlink" xmlns:ev="http://www.w3.org/2001/xml-events"   height="28px"   width="28px" ><path fill="rgb( 183, 184, 188 )" d="M13.991,0.99900000000002 C6.81200000000001,1.00400000000002 0.99599999999998,6.82799999999997 1,14.006 C1.005,21.186 6.82899999999995,27.002 14.008,26.997 C21.188,26.9930000000001 27.003,21.169 26.999,13.99 C26.995,6.81100000000004 21.171,0.99400000000003 13.991,0.99900000000002 ZM18.644,20.3390000000001 C18.644,20.3390000000001 14,17.898 14,17.898 C14,17.898 9.35599999999999,20.3390000000001 9.35599999999999,20.3390000000001 C9.35599999999999,20.3390000000001 10.242,15.168 10.242,15.168 C10.242,15.168 6.48500000000001,11.505 6.48500000000001,11.505 C6.48500000000001,11.505 11.677,10.751 11.677,10.751 C11.677,10.751 14,6.04600000000005 14,6.04600000000005 C14,6.04600000000005 16.322,10.751 16.322,10.751 C16.322,10.751 21.514,11.505 21.514,11.505 C21.514,11.505 17.7569999999999,15.168 17.7569999999999,15.168 C17.7569999999999,15.168 18.644,20.3390000000001 18.644,20.3390000000001 Z "/></svg>