<?xml version="1.0" encoding="utf-8"?><!DOCTYPE svg PUBLIC "-//W3C//DTD SVG 1.1//EN" "http://www.w3.org/Graphics/SVG/1.1/DTD/svg11.dtd"><svg version="1.1" baseProfile="full" xmlns="http://www.w3.org/2000/svg" xmlns:xlink="http://www.w3.org/1999/xlink" xmlns:ev="http://www.w3.org/2001/xml-events"   height="46px"   width="39px" ><path fill="rgb( 183, 184, 188 )" d="M38.1,41.999 C38.1,44.0989999999999 36.393,45.8 34.285,45.8 C34.285,45.8 4.715,45.8 4.715,45.8 C2.607,45.8 0.90000000000001,44.0989999999999 0.90000000000001,41.999 C0.90000000000001,41.999 0.90900000000001,37.5340000000001 0.90000000000001,37.25 C0.928,36.1479999999999 1.358,34.086 2.15000000000001,33.0599999999999 C3.26600000000001,31.607 4.524,30.4380000000001 6.012,29.5170000000001 C8.33,34.6369999999999 13.5,38.2 19.5,38.2 C25.5,38.2 30.669,34.6369999999999 32.987,29.5170000000001 C34.485,30.4380000000001 35.734,31.607 36.85,33.0599999999999 C37.642,34.086 38.071,36.1479999999999 38.1,37.25 C38.091,37.5340000000001 38.1,41.999 38.1,41.999 ZM24.765,22.896 C24.765,22.896 24.517,22.9059999999999 24.413,22.924 C23.363,23.057 22.581,23.855 22.581,24.9000000000001 C22.581,26.039 23.392,26.8 24.469,26.999 C25.309,27.0840000000001 26.091,27.1990000000001 26.834,27.3320000000001 C27.731,27.4939999999999 28.409,28.271 28.409,29.203 C28.409,29.6590000000001 28.256,30.077 27.989,30.3989999999999 C25.977,32.8409999999999 22.924,34.4000000000001 19.5,34.4000000000001 C15.989,34.4000000000001 12.861,32.7560000000001 10.858,30.201 C10.677,29.9059999999999 10.572,29.5740000000001 10.572,29.203 C10.572,28.3099999999999 11.201,27.559 12.031,27.3499999999999 C12.756,27.2270000000001 13.52,27.123 14.32,27.038 C15.504,26.894 16.419,26.115 16.419,24.9000000000001 C16.419,23.835 15.751,23.076 14.683,22.924 C14.55,22.9059999999999 14.407,22.896 14.254,22.896 C9.11199999999999,22.5350000000001 5.622,21.499 3.312,19.5229999999999 C2.999,19.191 2.80800000000001,18.7429999999999 2.80800000000001,18.25 C2.80800000000001,17.261 3.56100000000001,16.454 4.524,16.3599999999999 C7.357,15.789 9.485,13.452 9.485,10.6500000000001 C9.485,10.6500000000001 9.485,10.251 9.485,10.251 C9.485,4.70299999999997 13.968,0.20000000000005 19.5,0.20000000000005 C25.032,0.20000000000005 29.515,4.70299999999997 29.515,10.251 C29.515,10.251 29.515,10.6500000000001 29.515,10.6500000000001 C29.515,13.452 31.643,15.789 34.475,16.3599999999999 C35.439,16.454 36.192,17.261 36.192,18.25 C36.192,18.7429999999999 36.001,19.191 35.686,19.5229999999999 C33.388,21.499 29.897,22.5350000000001 24.765,22.896 Z "/></svg>