<?xml version="1.0" encoding="utf-8"?><!DOCTYPE svg PUBLIC "-//W3C//DTD SVG 1.1//EN" "http://www.w3.org/Graphics/SVG/1.1/DTD/svg11.dtd"><svg version="1.1" baseProfile="full" xmlns="http://www.w3.org/2000/svg" xmlns:xlink="http://www.w3.org/1999/xlink" xmlns:ev="http://www.w3.org/2001/xml-events"   height="32px"   width="32px" ><path fill="rgb( 35, 35, 44 )" d="M26.5640000000001,25.163 C26.5150000000001,24.003 24.77,20.556 24.8109999999999,19.2190000000001 C24.8579999999999,17.702 25.777,15.8339999999999 27.6890000000001,19.486 C28.8340000000001,21.674 30.5930000000001,20.312 30.807,19.248 C31.451,16.026 30.4939999999999,12.163 27.4449999999999,8.37699999999995 C22.172,1.83000000000004 12.904,0.03200000000004 6.74900000000002,4.36199999999997 C0.59400000000005,8.69200000000001 0.471,18.442 6.08699999999999,24.093 C11.1780000000001,29.213 18.1980000000001,31.463 24.068,28.996 C24.675,28.739 26.683,27.954 26.5640000000001,25.163 ZM10.076,6.17999999999995 C11.1859999999999,5.39800000000002 12.72,5.66399999999999 13.5029999999999,6.774 C14.2860000000001,7.88400000000001 14.019,9.41600000000005 12.9079999999999,10.198 C11.797,10.979 10.2629999999999,10.713 9.48000000000002,9.60299999999995 C8.69800000000009,8.49400000000003 8.96399999999994,6.96199999999999 10.076,6.17999999999995 ZM5.27999999999997,16.165 C4.49800000000005,15.056 4.7650000000001,13.523 5.875,12.742 C6.9849999999999,11.96 8.51999999999998,12.225 9.30300000000011,13.335 C10.085,14.4450000000001 9.81799999999998,15.978 8.70800000000008,16.759 C7.59699999999998,17.5410000000001 6.0619999999999,17.276 5.27999999999997,16.165 ZM17.22,9.76999999999998 C16.4369999999999,8.65999999999997 16.704,7.12699999999995 17.8150000000001,6.346 C18.9259999999999,5.56399999999996 20.4590000000001,5.83000000000004 21.2429999999999,6.94000000000005 C22.0250000000001,8.04999999999995 21.758,9.58199999999999 20.6469999999999,10.364 C19.5360000000001,11.145 18.002,10.88 17.22,9.76999999999998 ZM8.89899999999989,22.437 C8.11699999999996,21.326 8.38300000000004,19.793 9.49299999999994,19.0119999999999 C10.604,18.231 12.1389999999999,18.496 12.921,19.606 C13.703,20.716 13.4369999999999,22.249 12.326,23.03 C11.2159999999999,23.812 9.68100000000004,23.546 8.89899999999989,22.437 Z "/></svg>