<?xml version="1.0" encoding="utf-8"?><!DOCTYPE svg PUBLIC "-//W3C//DTD SVG 1.1//EN" "http://www.w3.org/Graphics/SVG/1.1/DTD/svg11.dtd"><svg version="1.1" baseProfile="full" xmlns="http://www.w3.org/2000/svg" xmlns:xlink="http://www.w3.org/1999/xlink" xmlns:ev="http://www.w3.org/2001/xml-events"   height="28px"   width="28px" ><path fill="rgb( 35, 35, 44 )" d="M12.511,14 C12.511,13.177 13.1780000000001,12.511 14,12.511 C14.8219999999999,12.511 15.489,13.177 15.489,14 C15.489,14.821 14.8219999999999,15.489 14,15.489 C13.1780000000001,15.489 12.511,14.821 12.511,14 ZM14,10.128 C11.8610000000001,10.128 10.1279999999999,11.861 10.1279999999999,14 C10.1279999999999,16.139 11.8610000000001,17.872 14,17.872 C16.1389999999999,17.872 17.8720000000001,16.139 17.8720000000001,14 C17.8720000000001,11.861 16.1389999999999,10.128 14,10.128 ZM3.96800000000007,16.847 C4.19399999999996,17.651 4.51600000000008,18.415 4.92100000000005,19.123 C4.92100000000005,19.123 3.13300000000004,21.077 3.13300000000004,21.077 C2.62100000000009,21.59 2.62100000000009,22.417 3.13300000000004,22.9299999999999 C3.13300000000004,22.9299999999999 5.06999999999994,24.867 5.06999999999994,24.867 C5.58200000000011,25.378 6.41000000000008,25.378 6.923,24.867 C6.923,24.867 8.87699999999995,23.079 8.87699999999995,23.079 C9.58500000000004,23.484 10.348,23.8049999999999 11.152,24.032 C11.152,24.032 11.319,26.689 11.319,26.689 C11.319,27.4160000000001 11.903,28 12.6300000000001,28 C12.6300000000001,28 15.3699999999999,28 15.3699999999999,28 C16.097,28 16.681,27.4160000000001 16.681,26.689 C16.681,26.689 16.847,24.032 16.847,24.032 C17.652,23.8049999999999 18.415,23.484 19.123,23.079 C19.123,23.079 21.077,24.867 21.077,24.867 C21.5899999999999,25.378 22.4179999999999,25.378 22.9300000000001,24.867 C22.9300000000001,24.867 24.867,22.9299999999999 24.867,22.9299999999999 C25.3779999999999,22.417 25.3779999999999,21.59 24.867,21.077 C24.867,21.077 23.079,19.123 23.079,19.123 C23.4839999999999,18.415 23.806,17.651 24.0319999999999,16.847 C24.0319999999999,16.847 26.6890000000001,16.681 26.6890000000001,16.681 C27.4159999999999,16.681 28,16.097 28,15.369 C28,15.369 28,12.629 28,12.629 C28,11.903 27.4159999999999,11.319 26.6890000000001,11.319 C26.6890000000001,11.319 24.0319999999999,11.153 24.0319999999999,11.153 C23.806,10.348 23.4839999999999,9.58500000000004 23.079,8.87699999999995 C23.079,8.87699999999995 24.867,6.92200000000003 24.867,6.92200000000003 C25.3779999999999,6.40999999999997 25.3779999999999,5.58199999999999 24.867,5.07000000000005 C24.867,5.07000000000005 22.9300000000001,3.13300000000004 22.9300000000001,3.13300000000004 C22.4179999999999,2.62199999999996 21.5899999999999,2.62199999999996 21.077,3.13300000000004 C21.077,3.13300000000004 19.123,4.92100000000005 19.123,4.92100000000005 C18.415,4.51599999999996 17.652,4.19299999999998 16.847,3.96799999999996 C16.847,3.96799999999996 16.681,1.30999999999995 16.681,1.30999999999995 C16.681,0.58399999999995 16.097,0 15.3699999999999,0 C15.3699999999999,0 12.6300000000001,0 12.6300000000001,0 C11.903,0 11.319,0.58399999999995 11.319,1.30999999999995 C11.319,1.30999999999995 11.152,3.96799999999996 11.152,3.96799999999996 C10.348,4.19299999999998 9.58500000000004,4.51599999999996 8.87699999999995,4.92100000000005 C8.87699999999995,4.92100000000005 6.923,3.13300000000004 6.923,3.13300000000004 C6.41000000000008,2.62199999999996 5.58200000000011,2.62199999999996 5.06999999999994,3.13300000000004 C5.06999999999994,3.13300000000004 3.13300000000004,5.07000000000005 3.13300000000004,5.07000000000005 C2.62100000000009,5.58199999999999 2.62100000000009,6.40999999999997 3.13300000000004,6.92200000000003 C3.13300000000004,6.92200000000003 4.92100000000005,8.87699999999995 4.92100000000005,8.87699999999995 C4.51600000000008,9.58500000000004 4.19399999999996,10.348 3.96800000000007,11.153 C3.96800000000007,11.153 1.31099999999992,11.319 1.31099999999992,11.319 C0.58400000000006,11.319 0,11.903 0,12.629 C0,12.629 0,15.369 0,15.369 C0,16.097 0.58400000000006,16.681 1.31099999999992,16.681 C1.31099999999992,16.681 3.96800000000007,16.847 3.96800000000007,16.847 ZM14,7.745 C17.4549999999999,7.745 20.2550000000001,10.544 20.2550000000001,14 C20.2550000000001,17.455 17.4549999999999,20.255 14,20.255 C10.5450000000001,20.255 7.74499999999989,17.455 7.74499999999989,14 C7.74499999999989,10.544 10.5450000000001,7.745 14,7.745 Z "/></svg>