<?xml version="1.0" encoding="utf-8"?><!DOCTYPE svg PUBLIC "-//W3C//DTD SVG 1.1//EN" "http://www.w3.org/Graphics/SVG/1.1/DTD/svg11.dtd"><svg version="1.1" baseProfile="full" xmlns="http://www.w3.org/2000/svg" xmlns:xlink="http://www.w3.org/1999/xlink" xmlns:ev="http://www.w3.org/2001/xml-events"   height="38px"   width="26px" ><path fill="rgb( 183, 184, 188 )" d="M0,34.8340000000001 C0,36.5820000000001 1.40999999999997,38 3.15200000000004,38 C3.15200000000004,38 22.848,38 22.848,38 C24.59,38 26,36.5820000000001 26,34.8340000000001 C26,34.8340000000001 26,3.16699999999992 26,3.16699999999992 C26,1.41699999999992 24.59,0 22.848,0 C22.848,0 3.15200000000004,0 3.15200000000004,0 C1.40999999999997,0 0,1.41699999999992 0,3.16699999999992 C0,3.16699999999992 0,34.8340000000001 0,34.8340000000001 ZM5.673,3.95800000000008 C5.673,3.95800000000008 20.327,3.95800000000008 20.327,3.95800000000008 C21.288,3.95800000000008 22.061,4.7349999999999 22.061,5.70000000000005 C22.061,5.70000000000005 22.061,10.924 22.061,10.924 C22.061,11.8900000000001 21.288,12.6669999999999 20.327,12.6669999999999 C20.327,12.6669999999999 5.673,12.6669999999999 5.673,12.6669999999999 C4.71199999999999,12.6669999999999 3.93899999999996,11.8900000000001 3.93899999999996,10.924 C3.93899999999996,10.924 3.93899999999996,5.70000000000005 3.93899999999996,5.70000000000005 C3.93899999999996,4.7349999999999 4.71199999999999,3.95800000000008 5.673,3.95800000000008 ZM3.93899999999996,17.8130000000001 C3.93899999999996,16.72 4.822,15.8330000000001 5.90899999999999,15.8330000000001 C6.99599999999998,15.8330000000001 7.87900000000002,16.72 7.87900000000002,17.8130000000001 C7.87900000000002,18.904 6.99599999999998,19.7909999999999 5.90899999999999,19.7909999999999 C4.822,19.7909999999999 3.93899999999996,18.904 3.93899999999996,17.8130000000001 ZM11.03,17.8130000000001 C11.03,16.72 11.913,15.8330000000001 13,15.8330000000001 C14.087,15.8330000000001 14.97,16.72 14.97,17.8130000000001 C14.97,18.904 14.087,19.7909999999999 13,19.7909999999999 C11.913,19.7909999999999 11.03,18.904 11.03,17.8130000000001 ZM18.121,17.8130000000001 C18.121,16.72 19.004,15.8330000000001 20.091,15.8330000000001 C21.178,15.8330000000001 22.061,16.72 22.061,17.8130000000001 C22.061,18.904 21.178,19.7909999999999 20.091,19.7909999999999 C19.004,19.7909999999999 18.121,18.904 18.121,17.8130000000001 ZM3.93899999999996,24.9380000000001 C3.93899999999996,23.8440000000001 4.822,22.9590000000001 5.90899999999999,22.9590000000001 C6.99599999999998,22.9590000000001 7.87900000000002,23.8440000000001 7.87900000000002,24.9380000000001 C7.87900000000002,26.029 6.99599999999998,26.9169999999999 5.90899999999999,26.9169999999999 C4.822,26.9169999999999 3.93899999999996,26.029 3.93899999999996,24.9380000000001 ZM11.03,24.9380000000001 C11.03,23.8440000000001 11.913,22.9590000000001 13,22.9590000000001 C14.087,22.9590000000001 14.97,23.8440000000001 14.97,24.9380000000001 C14.97,26.029 14.087,26.9169999999999 13,26.9169999999999 C11.913,26.9169999999999 11.03,26.029 11.03,24.9380000000001 ZM18.121,24.9380000000001 C18.121,23.8440000000001 19.004,22.9590000000001 20.091,22.9590000000001 C21.178,22.9590000000001 22.061,23.8440000000001 22.061,24.9380000000001 C22.061,26.029 21.178,26.9169999999999 20.091,26.9169999999999 C19.004,26.9169999999999 18.121,26.029 18.121,24.9380000000001 ZM3.93899999999996,32.0619999999999 C3.93899999999996,30.9690000000001 4.822,30.0840000000001 5.90899999999999,30.0840000000001 C6.99599999999998,30.0840000000001 7.87900000000002,30.9690000000001 7.87900000000002,32.0619999999999 C7.87900000000002,33.154 6.99599999999998,34.0419999999999 5.90899999999999,34.0419999999999 C4.822,34.0419999999999 3.93899999999996,33.154 3.93899999999996,32.0619999999999 ZM11.03,32.0619999999999 C11.03,30.9690000000001 11.913,30.0840000000001 13,30.0840000000001 C14.087,30.0840000000001 14.97,30.9690000000001 14.97,32.0619999999999 C14.97,33.154 14.087,34.0419999999999 13,34.0419999999999 C11.913,34.0419999999999 11.03,33.154 11.03,32.0619999999999 ZM18.121,32.0619999999999 C18.121,30.9690000000001 19.004,30.0840000000001 20.091,30.0840000000001 C21.178,30.0840000000001 22.061,30.9690000000001 22.061,32.0619999999999 C22.061,33.154 21.178,34.0419999999999 20.091,34.0419999999999 C19.004,34.0419999999999 18.121,33.154 18.121,32.0619999999999 Z "/></svg>