<?xml version="1.0" encoding="utf-8"?><!DOCTYPE svg PUBLIC "-//W3C//DTD SVG 1.1//EN" "http://www.w3.org/Graphics/SVG/1.1/DTD/svg11.dtd"><svg version="1.1" baseProfile="full" xmlns="http://www.w3.org/2000/svg" xmlns:xlink="http://www.w3.org/1999/xlink" xmlns:ev="http://www.w3.org/2001/xml-events"   height="40px"   width="40px" ><path fill="rgb( 183, 184, 188 )" d="M28.2910000000001,1.91200000000003 C27.0700000000001,0.68599999999992 25.09,0.68599999999992 23.8630000000001,1.91200000000003 C23.8630000000001,1.91200000000003 14.454,11.2909999999999 14.454,11.2909999999999 C14.454,11.2909999999999 12.45,9.28899999999999 12.45,9.28899999999999 C12.45,9.28899999999999 5.298,16.4670000000001 5.298,16.4670000000001 C4.52200000000005,17.2429999999999 4.14999999999998,18.248 4.14999999999998,19.2860000000001 C4.14999999999998,19.2860000000001 4.14999999999998,28.6949999999999 4.14999999999998,28.6949999999999 C4.14999999999998,28.6949999999999 4.16499999999996,28.712 4.16499999999996,28.712 C4.16499999999996,28.712 1.90099999999995,30.9829999999999 1.90099999999995,30.9829999999999 C0.673,32.21 0.673,34.1880000000001 1.90099999999995,35.4079999999999 C1.90099999999995,35.4079999999999 4.56100000000004,38.067 4.56100000000004,38.067 C5.78200000000004,39.2940000000001 7.76199999999994,39.2940000000001 8.98800000000006,38.067 C8.98800000000006,38.067 11.2619999999999,35.8040000000001 11.2619999999999,35.8040000000001 C11.2619999999999,35.8040000000001 11.278,35.819 11.278,35.819 C11.278,35.819 20.711,35.819 20.711,35.819 C21.724,35.835 22.754,35.4469999999999 23.53,34.671 C23.53,34.671 30.682,27.509 30.682,27.509 C30.682,27.509 28.6950000000001,25.5219999999999 28.6950000000001,25.5219999999999 C28.6950000000001,25.5219999999999 38.08,16.1189999999999 38.08,16.1189999999999 C39.307,14.8920000000001 39.307,12.914 38.08,11.694 C38.08,11.694 28.2910000000001,1.91200000000003 28.2910000000001,1.91200000000003 ZM31.426,13.3409999999999 C31.426,13.3409999999999 32.187,14.1010000000001 32.187,14.1010000000001 C32.821,14.7339999999999 32.821,15.748 32.187,16.3800000000001 C32.187,16.3800000000001 31.426,17.1400000000001 31.426,17.1400000000001 C30.793,17.7739999999999 29.779,17.7739999999999 29.146,17.1400000000001 C29.146,17.1400000000001 28.385,16.3800000000001 28.385,16.3800000000001 C27.752,15.748 27.752,14.7339999999999 28.385,14.1010000000001 C28.385,14.1010000000001 29.146,13.3409999999999 29.146,13.3409999999999 C29.779,12.7080000000001 30.793,12.7080000000001 31.426,13.3409999999999 ZM25.8819999999999,7.80099999999993 C25.8819999999999,7.80099999999993 26.643,8.56099999999992 26.643,8.56099999999992 C27.277,9.19399999999996 27.277,10.2070000000001 26.643,10.8389999999999 C26.643,10.8389999999999 25.8819999999999,11.5999999999999 25.8819999999999,11.5999999999999 C25.249,12.2329999999999 24.235,12.2329999999999 23.602,11.5999999999999 C23.602,11.5999999999999 22.841,10.8389999999999 22.841,10.8389999999999 C22.208,10.2070000000001 22.208,9.19399999999996 22.841,8.56099999999992 C22.841,8.56099999999992 23.602,7.80099999999993 23.602,7.80099999999993 C24.235,7.16799999999989 25.249,7.16799999999989 25.8819999999999,7.80099999999993 Z "/></svg>