<?xml version="1.0" encoding="utf-8"?><!DOCTYPE svg PUBLIC "-//W3C//DTD SVG 1.1//EN" "http://www.w3.org/Graphics/SVG/1.1/DTD/svg11.dtd"><svg version="1.1" baseProfile="full" xmlns="http://www.w3.org/2000/svg" xmlns:xlink="http://www.w3.org/1999/xlink" xmlns:ev="http://www.w3.org/2001/xml-events"   height="28px"   width="25px" ><path fill="rgb( 35, 35, 44 )" d="M25,14.168 C25,17.34 22.396,19.912 19.183,19.912 C19.1369999999999,19.912 19.0920000000001,19.907 19.046,19.906 C20.9490000000001,18.196 21.4459999999999,15.513 21.4690000000001,15.386 C21.4690000000001,15.386 21.6110000000001,14.583 21.6110000000001,14.583 C21.6110000000001,14.583 20.8140000000001,14.369 20.8140000000001,14.369 C20.7729999999999,14.358 19.788,14.097 18.509,14.097 C17.193,14.097 16.0440000000001,14.363 15.088,14.886 C14.52,13.131 13.1679999999999,11.897 13.096,11.832 C13.096,11.832 12.4860000000001,11.284 12.4860000000001,11.284 C12.4860000000001,11.284 11.877,11.832 11.877,11.832 C11.8050000000001,11.897 10.452,13.131 9.88400000000001,14.886 C8.92699999999991,14.363 7.77800000000002,14.097 6.46100000000001,14.097 C5.18000000000006,14.097 4.19399999999996,14.358 4.15300000000002,14.369 C4.15300000000002,14.369 3.41499999999996,14.567 3.41499999999996,14.567 C3.41499999999996,14.567 3.48800000000006,15.318 3.48800000000006,15.318 C3.50099999999998,15.446 3.78899999999999,18.171 5.68000000000006,19.906 C2.52999999999997,19.833 0,17.294 0,14.168 C0,12.311 0.89499999999998,10.665 2.27800000000002,9.61500000000001 C1.67599999999993,8.91500000000002 1.298,8.01900000000001 1.298,7.02699999999999 C1.298,4.81 3.11899999999991,3.01100000000002 5.36400000000003,3.01100000000002 C6.04500000000007,3.01100000000002 6.67599999999993,3.19299999999998 7.23900000000003,3.48399999999998 C7.99000000000001,1.45299999999997 9.95800000000008,0 12.2739999999999,0 C14.5899999999999,0 16.557,1.45299999999997 17.309,3.48399999999998 C17.8720000000001,3.19200000000001 18.5029999999999,3.01100000000002 19.183,3.01100000000002 C21.4290000000001,3.01100000000002 23.25,4.81 23.25,7.02699999999999 C23.25,7.923 22.943,8.74099999999999 22.443,9.40899999999999 C23.9860000000001,10.442 25,12.188 25,14.168 ZM9.68299999999999,15.809 C10.01,16.014 10.296,16.259 10.5540000000001,16.522 C10.5530000000001,16.48 10.5409999999999,16.441 10.5409999999999,16.399 C10.5409999999999,14.243 12.4860000000001,12.494 12.4860000000001,12.494 C12.4860000000001,12.494 14.431,14.243 14.431,16.399 C14.431,16.441 14.4190000000001,16.48 14.4179999999999,16.522 C14.6759999999999,16.259 14.962,16.014 15.288,15.809 C17.5150000000001,14.409 20.567,15.232 20.567,15.232 C20.567,15.232 20.011,18.326 17.7840000000001,19.727 C16.163,20.745 13.9190000000001,20.586 13.067,20.424 C13.067,20.424 13.067,27.33 13.067,27.33 C13.067,27.7 12.5909999999999,28 12.2159999999999,28 C11.8420000000001,28 11.365,27.7 11.365,27.33 C11.365,27.33 11.365,20.435 11.365,20.435 C10.5129999999999,20.593 8.53700000000003,20.722 6.95299999999997,19.727 C4.72700000000009,18.325 4.3900000000001,15.232 4.3900000000001,15.232 C4.3900000000001,15.232 7.45700000000011,14.409 9.68299999999999,15.809 Z "/></svg>