<?xml version="1.0" encoding="utf-8"?><!DOCTYPE svg PUBLIC "-//W3C//DTD SVG 1.1//EN" "http://www.w3.org/Graphics/SVG/1.1/DTD/svg11.dtd"><svg version="1.1" baseProfile="full" xmlns="http://www.w3.org/2000/svg" xmlns:xlink="http://www.w3.org/1999/xlink" xmlns:ev="http://www.w3.org/2001/xml-events"   height="23px"   width="25px" ><path fill="rgb( 35, 35, 44 )" d="M18.75,5.22699999999998 C18.75,5.22699999999998 18.75,2.09100000000001 18.75,2.09100000000001 C18.75,0.935 17.818,0 16.6669999999999,0 C16.6669999999999,0 8.33300000000008,0 8.33300000000008,0 C7.18200000000002,0 6.25,0.935 6.25,2.09100000000001 C6.25,2.09100000000001 6.25,5.22699999999998 6.25,5.22699999999998 C6.25,5.22699999999998 2.08300000000008,5.22699999999998 2.08300000000008,5.22699999999998 C0.93200000000002,5.22699999999998 0,6.16199999999998 0,7.31799999999998 C0,7.31799999999998 0,20.909 0,20.909 C0,22.064 0.93200000000002,23 2.08300000000008,23 C2.08300000000008,23 22.9169999999999,23 22.9169999999999,23 C24.068,23 25,22.064 25,20.909 C25,20.909 25,7.31799999999998 25,7.31799999999998 C25,6.16199999999998 24.068,5.22699999999998 22.9169999999999,5.22699999999998 C22.9169999999999,5.22699999999998 18.75,5.22699999999998 18.75,5.22699999999998 ZM10,2.61399999999998 C10,2.61399999999998 15,2.61399999999998 15,2.61399999999998 C15.635,2.61399999999998 16.146,3.12599999999998 16.146,3.76299999999998 C16.146,3.76299999999998 16.146,5.22699999999998 16.146,5.22699999999998 C16.146,5.22699999999998 8.85400000000004,5.22699999999998 8.85400000000004,5.22699999999998 C8.85400000000004,5.22699999999998 8.85400000000004,3.76299999999998 8.85400000000004,3.76299999999998 C8.85400000000004,3.12599999999998 9.36500000000001,2.61399999999998 10,2.61399999999998 ZM6.25,8.88600000000002 C6.25,8.88600000000002 6.25,19.341 6.25,19.341 C6.25,19.916 5.78099999999995,20.386 5.20800000000008,20.386 C4.63599999999997,20.386 4.16699999999992,19.916 4.16699999999992,19.341 C4.16699999999992,19.341 4.16699999999992,8.88600000000002 4.16699999999992,8.88600000000002 C4.16699999999992,8.31200000000001 4.63599999999997,7.84100000000001 5.20800000000008,7.84100000000001 C5.78099999999995,7.84100000000001 6.25,8.31200000000001 6.25,8.88600000000002 ZM20.8330000000001,8.88600000000002 C20.8330000000001,8.88600000000002 20.8330000000001,19.341 20.8330000000001,19.341 C20.8330000000001,19.916 20.364,20.386 19.7919999999999,20.386 C19.2190000000001,20.386 18.75,19.916 18.75,19.341 C18.75,19.341 18.75,8.88600000000002 18.75,8.88600000000002 C18.75,8.31200000000001 19.2190000000001,7.84100000000001 19.7919999999999,7.84100000000001 C20.364,7.84100000000001 20.8330000000001,8.31200000000001 20.8330000000001,8.88600000000002 Z "/></svg>