<?xml version="1.0" encoding="utf-8"?><!DOCTYPE svg PUBLIC "-//W3C//DTD SVG 1.1//EN" "http://www.w3.org/Graphics/SVG/1.1/DTD/svg11.dtd"><svg version="1.1" baseProfile="full" xmlns="http://www.w3.org/2000/svg" xmlns:xlink="http://www.w3.org/1999/xlink" xmlns:ev="http://www.w3.org/2001/xml-events"   height="28px"   width="23px" ><path fill="rgb( 35, 35, 44 )" d="M19.7139999999999,2.154 C19.7139999999999,2.154 19.5129999999999,2.154 19.5129999999999,2.154 C19.0599999999999,0.90199999999999 17.857,0 16.4290000000001,0 C16.4290000000001,0 3.28600000000006,0 3.28600000000006,0 C1.47199999999998,0 0,1.447 0,3.23099999999999 C0,3.23099999999999 0,5.38499999999999 0,5.38499999999999 C0,5.38499999999999 0,21.538 0,21.538 C0,21.538 0,23.692 0,23.692 C0,25.701 3.88699999999994,28 5.47600000000011,28 C5.47600000000011,28 19.7139999999999,28 19.7139999999999,28 C21.5260000000001,28 23,26.551 23,24.769 C23,24.769 23,5.38499999999999 23,5.38499999999999 C23,3.60300000000001 21.5260000000001,2.154 19.7139999999999,2.154 ZM5.47600000000011,4.779 C5.47600000000011,2.19600000000003 7.66699999999992,2.154 7.66699999999992,2.154 C7.66699999999992,2.154 15.3330000000001,2.154 15.3330000000001,2.154 C15.3330000000001,2.154 13.143,2.17700000000002 13.143,4.779 C13.143,6.529 13.143,16.154 13.143,16.154 C13.143,16.154 9.30999999999995,13.529 9.30999999999995,13.529 C9.30999999999995,13.529 5.47600000000011,16.154 5.47600000000011,16.154 C5.47600000000011,16.154 5.47600000000011,6.52800000000002 5.47600000000011,4.779 ZM20.809,24.769 C20.809,25.363 20.318,25.846 19.7139999999999,25.846 C19.7139999999999,25.846 5.47600000000011,25.846 5.47600000000011,25.846 C5.07099999999991,25.842 4.09799999999996,25.323 3.31099999999992,24.769 C3.31099999999992,24.769 16.4290000000001,24.769 16.4290000000001,24.769 C18.2429999999999,24.769 19.7139999999999,23.322 19.7139999999999,21.538 C19.7139999999999,21.538 19.7139999999999,4.30799999999999 19.7139999999999,4.30799999999999 C20.318,4.30799999999999 20.809,4.79000000000002 20.809,5.38499999999999 C20.809,5.38499999999999 20.809,24.769 20.809,24.769 Z "/></svg>