<?xml version="1.0" encoding="utf-8"?><!DOCTYPE svg PUBLIC "-//W3C//DTD SVG 1.1//EN" "http://www.w3.org/Graphics/SVG/1.1/DTD/svg11.dtd"><svg version="1.1" baseProfile="full" xmlns="http://www.w3.org/2000/svg" xmlns:xlink="http://www.w3.org/1999/xlink" xmlns:ev="http://www.w3.org/2001/xml-events"   height="38px"   width="30px" ><path fill="rgb( 35, 35, 44 )" d="M28.8230000000001,24.657 C28.4929999999999,26.8819999999999 27.671,28.944 26.5599999999999,30.886 C25.5730000000001,32.665 24.338,34.283 22.652,35.497 C21.0060000000001,36.669 17.633,37.519 15,36.629 C12.367,37.519 8.99399999999991,36.629 7.34799999999996,35.497 C5.66200000000003,34.283 4.42699999999991,32.665 3.44000000000005,30.886 C2.32899999999995,28.944 1.548,26.8819999999999 1.17699999999991,24.657 C0.80700000000002,22.271 0.97199999999998,19.965 2.12400000000002,17.7809999999999 C3.27600000000007,15.638 5.12699999999995,14.424 7.47199999999998,13.777 C9.32300000000009,13.292 11.2149999999999,13.171 13.1079999999999,13.534 C13.684,13.6559999999999 14.259,14.0599999999999 14.835,14.182 C14.877,13.939 14.877,13.737 14.9179999999999,13.494 C14.877,13.09 14.7529999999999,12.6849999999999 14.5889999999999,12.2809999999999 C13.9300000000001,10.825 12.943,9.89400000000001 11.586,9.08500000000004 C10.6389999999999,8.55999999999995 9.69299999999998,8.03399999999999 8.7059999999999,7.66999999999996 C8.66499999999996,7.66999999999996 8.62300000000005,7.66999999999996 8.54099999999994,7.62900000000002 C8.54099999999994,7.66999999999996 8.54099999999994,7.66999999999996 8.5,7.71000000000004 C8.58200000000011,7.75099999999998 8.66499999999996,7.79100000000005 8.7059999999999,7.87199999999996 C9.81600000000003,8.51900000000001 10.886,9.20699999999999 11.873,10.016 C12.5730000000001,10.622 13.1079999999999,11.35 13.519,12.2 C13.2719999999999,12.321 13.0250000000001,12.442 12.7370000000001,12.523 C11.627,12.8869999999999 10.5160000000001,12.726 9.48700000000008,12.24 C8.048,11.593 7.01900000000001,10.501 6.23700000000008,9.16600000000005 C4.96199999999999,6.90099999999995 4.67399999999998,4.55600000000004 5.33200000000011,2.048 C5.41499999999996,1.76499999999999 5.49700000000007,1.48199999999997 5.61999999999989,1.19899999999996 C5.66200000000003,1.11800000000005 5.78500000000008,0.99599999999998 5.86699999999996,0.99599999999998 C5.94900000000007,0.99599999999998 6.07300000000009,1.11800000000005 6.11400000000003,1.19899999999996 C6.8130000000001,2.37099999999998 7.75999999999999,3.26099999999997 9.03500000000008,3.70600000000002 C9.65200000000004,3.90800000000002 10.3510000000001,4.02999999999997 11.01,4.15099999999995 C11.8320000000001,4.31299999999999 12.655,4.43399999999997 13.4369999999999,4.83900000000006 C14.547,5.40499999999997 15.4110000000001,6.173 15.7819999999999,7.38699999999994 C16.1110000000001,8.39800000000002 15.9459999999999,9.32799999999997 15.453,10.218 C15.2470000000001,10.5410000000001 15.2470000000001,10.744 15.453,11.067 C15.453,11.1079999999999 15.4939999999999,11.1079999999999 15.4939999999999,11.148 C15.7819999999999,10.38 16.193,9.65200000000004 16.769,9.005 C17.3040000000001,8.31700000000001 18.0029999999999,7.75099999999998 18.6610000000001,7.18499999999995 C19.0319999999999,6.86099999999999 19.5250000000001,6.74000000000001 20.0599999999999,6.90099999999995 C20.6769999999999,7.06299999999999 20.8420000000001,7.58900000000006 20.3889999999999,8.07399999999996 C20.2660000000001,8.23599999999999 20.0599999999999,8.35699999999997 19.896,8.47900000000004 C17.7149999999999,9.89400000000001 16.152,11.795 15.2470000000001,14.222 C15.7819999999999,14.101 16.3579999999999,13.696 16.8920000000001,13.615 C18.7850000000001,13.211 20.6769999999999,13.332 22.528,13.8579999999999 C24.8320000000001,14.505 26.7249999999999,15.7190000000001 27.876,17.862 C29.028,19.965 29.193,22.271 28.8230000000001,24.657 Z "/></svg>