<?xml version="1.0" encoding="utf-8"?><!DOCTYPE svg PUBLIC "-//W3C//DTD SVG 1.1//EN" "http://www.w3.org/Graphics/SVG/1.1/DTD/svg11.dtd"><svg version="1.1" baseProfile="full" xmlns="http://www.w3.org/2000/svg" xmlns:xlink="http://www.w3.org/1999/xlink" xmlns:ev="http://www.w3.org/2001/xml-events"   height="26px"   width="26px" ><path fill="rgb( 183, 184, 188 )" d="M13,0 C5.83600000000001,0 0,5.83600000000001 0,13 C0,20.164 5.83600000000001,26 13,26 C20.164,26 26,20.164 26,13 C26,5.83600000000001 20.164,0 13,0 ZM19.933,14.444 C19.933,14.444 11.556,14.444 11.556,14.444 C11.556,14.444 11.556,4.04399999999998 11.556,4.04399999999998 C11.556,4.04399999999998 14.444,4.04399999999998 14.444,4.04399999999998 C14.444,4.04399999999998 14.444,7.59799999999996 14.444,7.59799999999996 C14.444,7.59799999999996 14.444,11.556 14.444,11.556 C14.444,11.556 17.622,11.556 17.622,11.556 C17.622,11.556 19.933,11.556 19.933,11.556 C19.933,11.556 19.933,14.444 19.933,14.444 Z "/></svg>