<?xml version="1.0" encoding="utf-8"?><!DOCTYPE svg PUBLIC "-//W3C//DTD SVG 1.1//EN" "http://www.w3.org/Graphics/SVG/1.1/DTD/svg11.dtd"><svg version="1.1" baseProfile="full" xmlns="http://www.w3.org/2000/svg" xmlns:xlink="http://www.w3.org/1999/xlink" xmlns:ev="http://www.w3.org/2001/xml-events"   height="54px"   width="82px" ><path fill="rgb( 255, 255, 255 )" d="M47.719,53.9940000000001 C47.43,51.9699999999998 46.993,49.9029999999998 46.397,47.8319999999999 C45.413,44.4180000000001 43.874,42.848 42.085,42.0279999999998 C45.466,40.7330000000002 49.986,42.1880000000001 52.528,37.3510000000001 C50.103,35.1909999999998 48.144,31.9850000000001 46.948,28.4189999999999 C46.833,28.4920000000002 46.712,28.5390000000002 46.581,28.5599999999999 C45.477,28.7359999999999 44.262,26.9079999999999 43.867,24.4749999999999 C43.473,22.0430000000001 44.049,19.9279999999999 45.153,19.752 C45.326,19.7240000000002 45.504,19.7460000000001 45.68,19.8119999999999 C45.697,19.4369999999999 45.723,19.067 45.758,18.6999999999998 C45.562,17.2269999999999 45.571,15.364 45.811,13.6010000000001 C45.968,12.4470000000001 46.213,11.4099999999999 46.516,10.5349999999999 C46.682,9.65200000000004 47.034,8.55000000000018 47.607,7.18299999999999 C48.805,4.32799999999997 52.741,2.40099999999984 59.074,2.40099999999984 C61.588,2.40099999999984 63.909,2.73900000000003 65.798,3.30999999999995 C66.037,3.35500000000002 66.277,3.39800000000014 66.526,3.43600000000015 C69.128,3.83100000000013 71.396,3.67500000000018 72.228,3.11299999999983 C72.228,3.11299999999983 71.894,3.78900000000021 71.894,3.78900000000021 C71.843,3.87899999999991 71.763,3.97899999999981 71.719,4.09099999999989 C71.719,4.09099999999989 71.646,4.11400000000003 71.646,4.11400000000003 C71.646,4.11400000000003 71.646,4.11599999999999 71.646,4.11599999999999 C71.646,5.24200000000019 71.229,7.375 71.537,10.0390000000002 C71.679,11.2710000000002 72.004,12.4169999999999 72.331,13.4070000000002 C72.435,13.904 72.525,14.4059999999999 72.593,14.9070000000002 C72.794,16.3760000000002 72.804,17.701 72.663,18.7719999999999 C72.693,19.0940000000001 72.716,19.4200000000001 72.732,19.75 C72.823,19.7379999999998 72.915,19.7359999999999 73.005,19.752 C74.11,19.9279999999999 74.686,22.0430000000001 74.291,24.4749999999999 C73.897,26.9079999999999 72.681,28.7359999999999 71.577,28.5599999999999 C71.527,28.5520000000001 71.48,28.5390000000002 71.433,28.5239999999999 C70.209,32.1190000000001 68.21,35.3409999999999 65.74,37.4789999999998 C69.378,44.1889999999999 76.926,38.4490000000001 79.568,45.835 C80.573,48.6410000000001 81.027,51.4409999999998 80.987,53.9940000000001 C80.987,53.9940000000001 47.719,53.9940000000001 47.719,53.9940000000001 ZM43.183,48.6819999999998 C43.825,50.4769999999999 44.242,52.268 44.449,53.9940000000001 C44.449,53.9940000000001 0.99299999999999,53.9940000000001 0.99299999999999,53.9940000000001 C1.199,52.2620000000002 1.61799999999999,50.462 2.262,48.6590000000001 C5.167,40.5369999999998 14.008,48.29 17.052,37.8960000000002 C14.325,35.7539999999999 12.121,32.299 10.819,28.4180000000001 C10.704,28.491 10.582,28.5390000000002 10.452,28.5590000000002 C9.34699999999999,28.7359999999999 8.133,26.9070000000002 7.73699999999999,24.4740000000002 C7.343,22.0419999999999 7.91800000000001,19.9270000000001 9.023,19.7510000000002 C9.197,19.723 9.374,19.7460000000001 9.55,19.8110000000001 C9.562,19.5360000000001 9.57899999999999,19.2640000000001 9.602,18.9940000000001 C9.01000000000001,17.7080000000001 8.816,15.2710000000002 9.12,13.029 C9.55,9.86999999999989 10.884,7.73100000000022 12.149,7.89899999999989 C12.374,7.92999999999984 12.58,8.03200000000015 12.766,8.19500000000016 C12.698,7.86799999999994 12.668,7.53600000000006 12.677,7.19700000000012 C12.776,3.7489999999998 18.451,0.51600000000008 24.162,1.06700000000001 C32.793,1.89899999999989 36.253,8.55400000000009 36.162,12.002 C36.131,13.1750000000002 35.977,14.0819999999999 35.721,14.7689999999998 C36.214,16.3049999999998 36.518,17.9749999999999 36.601,19.7489999999998 C36.693,19.7359999999999 36.784,19.7359999999999 36.875,19.7510000000002 C37.98,19.9270000000001 38.555,22.0419999999999 38.161,24.4740000000002 C37.765,26.9070000000002 36.551,28.7359999999999 35.446,28.5590000000002 C35.397,28.5509999999999 35.348,28.538 35.301,28.5230000000001 C33.902,32.6329999999998 31.49,36.2550000000001 28.519,38.3290000000002 C31.674,48.1080000000002 40.318,40.6680000000001 43.183,48.6819999999998 Z "/></svg>