<?xml version="1.0" encoding="utf-8"?>
<!-- Generator: Adobe Illustrator 19.1.0, SVG Export Plug-In . SVG Version: 6.00 Build 0)  -->
<svg version="1.1" id="Layer_1" xmlns="http://www.w3.org/2000/svg" xmlns:xlink="http://www.w3.org/1999/xlink" x="0px" y="0px"
	 viewBox="-607 369 64 64" style="enable-background:new -607 369 64 64;" xml:space="preserve">
<style type="text/css">
	.st0{fill:#23232C;}
</style>
<g>
	<g>
		<path class="st0" d="M-603.4,389.4c0,0,18.9,0,28.4,0l0,0c4.7,0,9.3,0,14,0c4.9,0,14.7,0,14.7,0l1-3.7l-28.2-16.2h-3
			c0,0-9.8,5.6-14.7,8.5c-4.4,2.5-13.2,7.6-13.2,7.6L-603.4,389.4z M-575,377.3c1.6,0,3,1.4,3,3c0,1.6-1.4,3-3,3s-3-1.4-3-3
			C-578,378.7-576.6,377.3-575,377.3z M-545.2,409.9c-5.7,0.4-11.3,1.4-16.7,3.2c-4.4,1.5-8.5,3.5-12,6.7c-0.3,0.3-0.7,0.7-1,1
			c-0.1-0.1-0.2-0.1-0.2-0.2c-3.5-3.6-7.8-5.7-12.4-7.3c-5.6-1.9-11.3-3-17.2-3.4c-0.9-0.1-1.3,0.3-1.3,1.2c0,2.4,0,4.9,0,7.3
			c0,1,0.3,1.2,1.2,1.3c2,0.2,4.1,0.2,6.1,0.5c8.7,1.5,16.3,5.3,22.4,11.8c0.8,0,1.8,0,2.6,0c4.9-5.1,10.8-8.7,17.6-10.7
			c3.5-1.1,7.2-1.5,10.8-1.6c0.9,0,1.2-0.3,1.2-1.1c0-2.6,0-5.1,0-7.7C-544,410.2-544.4,409.8-545.2,409.9z M-572.2,398.1l3.3-6.1
			h-12l3.2,6.1c0,0-1.4,14.5-1.5,16.3c1.4,0.9,3.2,2.1,4.3,3.1c1.2-1,2.8-2.2,4.2-3C-570.8,414.1-572.2,398.1-572.2,398.1z
			 M-550.8,392h-12l3,6.1l-0.8,12.2c0,0,4.6-1.4,7.4-1.7c0-1.8-0.5-10.5-0.5-10.5L-550.8,392z M-587.2,392h-12l3,6.1
			c0,0-0.5,7.2-0.7,10.4c2.6,0.1,7.4,1.7,7.4,1.7l-0.8-12.1L-587.2,392z"/>
	</g>
</g>
</svg>
