<?xml version="1.0" encoding="utf-8"?><!DOCTYPE svg PUBLIC "-//W3C//DTD SVG 1.1//EN" "http://www.w3.org/Graphics/SVG/1.1/DTD/svg11.dtd"><svg version="1.1" baseProfile="full" xmlns="http://www.w3.org/2000/svg" xmlns:xlink="http://www.w3.org/1999/xlink" xmlns:ev="http://www.w3.org/2001/xml-events"   height="27px"   width="27px" ><path fill="rgb( 183, 184, 188 )" d="M17.085,13.5 C17.085,12.373 17.999,11.4589999999999 19.126,11.4589999999999 C20.253,11.4589999999999 21.167,12.373 21.167,13.5 C21.167,14.627 20.253,15.5410000000001 19.126,15.5410000000001 C17.999,15.5410000000001 17.085,14.627 17.085,13.5 ZM27,27 C27,27 0,27 0,27 C0,27 0,0 0,0 C0,0 27,0 27,0 C27,0 27,8.33699999999999 27,8.33699999999999 C27,8.33699999999999 18.663,8.33699999999999 18.663,8.33699999999999 C15.811,8.33699999999999 13.5,10.648 13.5,13.5 C13.5,16.351 15.811,18.662 18.663,18.662 C18.663,18.662 27,18.662 27,18.662 C27,18.662 27,27 27,27 Z "/></svg>