<?xml version="1.0" encoding="utf-8"?><!DOCTYPE svg PUBLIC "-//W3C//DTD SVG 1.1//EN" "http://www.w3.org/Graphics/SVG/1.1/DTD/svg11.dtd"><svg version="1.1" baseProfile="full" xmlns="http://www.w3.org/2000/svg" xmlns:xlink="http://www.w3.org/1999/xlink" xmlns:ev="http://www.w3.org/2001/xml-events"   height="64px"   width="122px" ><path fill="rgb( 18, 37, 43 )" d="M90.372,0.00200000000041 C90.372,0.00200000000041 31.63,0.00200000000041 31.63,0.00200000000041 C14.164,0.00200000000041 0,14.3230000000003 0,31.9930000000004 C0,49.6620000000003 14.164,63.9830000000002 31.63,63.9830000000002 C31.63,63.9830000000002 90.372,63.9830000000002 90.372,63.9830000000002 C107.837,63.9830000000002 122,49.6620000000003 122,31.9930000000004 C122,14.3230000000003 107.837,0.00200000000041 90.372,0.00200000000041 ZM49.792,44.6869999999999 C49.792,44.6869999999999 38.704,55.8999999999996 38.704,55.8999999999996 C38.704,55.8999999999996 38.704,44.6869999999999 38.704,44.6869999999999 C38.704,44.6869999999999 33.1609999999999,39.0789999999997 33.1609999999999,39.0789999999997 C33.1609999999999,39.0789999999997 33.1609999999999,33.4719999999998 33.1609999999999,33.4719999999998 C33.1609999999999,33.4719999999998 22.072,22.2579999999998 22.072,22.2579999999998 C22.072,22.2579999999998 22.072,16.6490000000003 22.072,16.6490000000003 C22.072,16.6490000000003 16.529,11.0420000000004 16.529,11.0420000000004 C16.529,11.0420000000004 44.248,11.0420000000004 44.248,11.0420000000004 C44.248,11.0420000000004 44.248,16.6490000000003 44.248,16.6490000000003 C44.248,16.6490000000003 33.1609999999999,27.8649999999998 33.1609999999999,27.8649999999998 C33.1609999999999,27.8649999999998 33.1609999999999,33.4719999999998 33.1609999999999,33.4719999999998 C33.1609999999999,33.4719999999998 44.248,33.4719999999998 44.248,33.4719999999998 C44.248,33.4719999999998 49.792,39.0789999999997 49.792,39.0789999999997 C49.792,39.0789999999997 49.792,44.6869999999999 49.792,44.6869999999999 ZM60.269,48.4560000000001 C60.269,48.4560000000001 60.269,37.2420000000002 60.269,37.2420000000002 C60.269,37.2420000000002 54.725,31.634 54.725,31.634 C54.725,31.634 54.725,26.027 54.725,26.027 C54.725,26.027 65.813,26.027 65.813,26.027 C65.813,26.027 71.357,31.634 71.357,31.634 C71.357,31.634 76.9,31.634 76.9,31.634 C76.9,31.634 60.269,48.4560000000001 60.269,48.4560000000001 ZM82.447,34.9499999999998 C82.447,34.9499999999998 82.447,29.3419999999996 82.447,29.3419999999996 C82.447,29.3419999999996 71.357,29.3429999999998 71.357,29.3429999999998 C71.357,29.3429999999998 65.813,23.7349999999997 65.813,23.7349999999997 C65.813,23.7349999999997 54.725,23.7359999999999 54.725,23.7359999999999 C54.725,23.7359999999999 54.725,18.1289999999999 54.725,18.1289999999999 C54.725,18.1289999999999 60.269,12.5200000000004 60.269,12.5200000000004 C60.269,12.5200000000004 104.625,12.5200000000004 104.625,12.5200000000004 C104.625,12.5200000000004 104.625,18.1279999999997 104.625,18.1279999999997 C104.625,18.1279999999997 99.08,23.7349999999997 99.08,23.7349999999997 C99.08,23.7349999999997 93.535,23.7349999999997 93.535,23.7349999999997 C93.535,23.7349999999997 82.447,34.9499999999998 82.447,34.9499999999998 ZM105.471,46.6170000000002 C105.471,46.6170000000002 99.927,52.2250000000004 99.927,52.2250000000004 C99.927,52.2250000000004 99.927,46.6149999999998 99.927,46.6149999999998 C99.927,46.6149999999998 94.383,46.6170000000002 94.383,46.6170000000002 C94.383,46.6170000000002 94.383,41.0100000000002 94.383,41.0100000000002 C94.383,41.0100000000002 105.471,41.0100000000002 105.471,41.0100000000002 C105.471,41.0100000000002 105.471,46.6170000000002 105.471,46.6170000000002 Z "/></svg>