<?xml version="1.0" encoding="UTF-8" standalone="no"?>
<svg width="64px" height="61px" viewBox="0 0 64 61" version="1.1" xmlns="http://www.w3.org/2000/svg" xmlns:xlink="http://www.w3.org/1999/xlink" xmlns:sketch="http://www.bohemiancoding.com/sketch/ns">
    <!-- Generator: Sketch 3.3.3 (12081) - http://www.bohemiancoding.com/sketch -->
    <title>contact</title>
    <desc>Created with Sketch.</desc>
    <defs>
        <rect id="path-1" x="0" y="0" width="63.7" height="60.7"></rect>
        <rect id="path-3" x="0" y="0" width="63.7" height="60.7"></rect>
    </defs>
    <g id="Page-1" stroke="none" stroke-width="1" fill="none" fill-rule="evenodd" sketch:type="MSPage">
        <g id="contact" sketch:type="MSLayerGroup">
            <g id="Group">
                <g id="Clipped">
                    <mask id="mask-2" sketch:name="SVGID_1_" fill="white">
                        <use xlink:href="#path-1"></use>
                    </mask>
                    <g id="SVGID_1_"></g>
                    <path d="M22.5,32.3 L4.5,32.3 C1.9,32.3 0,34.5 0,36.9 L0,50.2 C0,52.7 2,54.7 4.5,54.7 L7.5,54.7 L7.5,59.3 C7.5,59.9 7.8,60.4 8.3,60.6 C8.5,60.7 8.7,60.7 8.8,60.7 C9.2,60.7 9.5,60.4 9.8,60.2 L14.6,55.5 C15.2,55 15.9,54.7 16.7,54.7 L22.9,54.7 C25.3,54.7 27.1,52.8 27.1,50.3 L27.1,36.9 C27,34.4 25,32.3 22.5,32.3 M8.1,49.9 L4.7,49.9 L4.7,37.4 L22.4,37.4 L22.4,50 L16.1,50 C14.7,50 13.4,50.6 12.4,51.6 L10.2,54 L10.2,51.9 C10.1,50.8 9.2,49.9 8.1,49.9" id="Shape" fill="#FFFFFF" sketch:type="MSShapeGroup" mask="url(#mask-2)"></path>
                </g>
                <g id="Clipped">
                    <mask id="mask-4" sketch:name="SVGID_1_" fill="white">
                        <use xlink:href="#path-3"></use>
                    </mask>
                    <g id="SVGID_1_"></g>
                    <path d="M53.7,12.4 L51.4,27.5 L40.6,15 L40.9,12.5 L48.3,7 C54,0.3 38.6,0 38.6,0 C38.6,0 23.2,0.3 28.9,7 L36.3,12.5 L36.6,15 L25.9,27.5 L23.6,12.4 L13.6,17.3 L13.6,29.3 L22.7,29.3 C24.5,29.3 26.1,30 27.3,31.1 L33.6,24.3 L35.6,28.3 L33.9,56.4 L29.8,42.2 L29.8,50.2 C29.8,54.4 26.7,57.6 22.6,57.6 L17.6,57.6 C16.8,57.6 16.1,57.9 15.5,58.4 L13.5,60.3 L13.2,60.6 L38.6,60.6 L63.7,60.6 L63.7,17.3 L53.7,12.4 L53.7,12.4 Z M43.3,56.5 L41.6,28.3 L43.6,24.3 L50.5,31.6 L43.3,56.5 L43.3,56.5 Z" id="Shape" fill="#FFFFFF" sketch:type="MSShapeGroup" mask="url(#mask-4)"></path>
                </g>
            </g>
        </g>
    </g>
</svg>