<?xml version="1.0" encoding="UTF-8" standalone="no"?>
<svg width="64px" height="61px" viewBox="0 0 64 61" version="1.1" xmlns="http://www.w3.org/2000/svg" xmlns:xlink="http://www.w3.org/1999/xlink" xmlns:sketch="http://www.bohemiancoding.com/sketch/ns">
    <!-- Generator: Sketch 3.3.3 (12081) - http://www.bohemiancoding.com/sketch -->
    <title>country</title>
    <desc>Created with Sketch.</desc>
    <defs>
        <rect id="path-1" x="0" y="0" width="63.7" height="60.7"></rect>
        <rect id="path-3" x="0" y="0" width="63.7" height="60.7"></rect>
    </defs>
    <g id="Page-1" stroke="none" stroke-width="1" fill="none" fill-rule="evenodd" sketch:type="MSPage">
        <g id="country" sketch:type="MSLayerGroup">
            <path d="M30.9,19.3 L31.4,21.1 L29.9,22.3 L29.9,21.5 L26.8,19.3 L23.1,22.4 L27.4,22.1 L28,23.5 L32.3,24 L37.2,24.8 L38.2,22.1 L33,21.8 L30.9,19.3 Z" id="Shape" fill="#FFFFFF" sketch:type="MSShapeGroup"></path>
            <path d="M33,9.3 L30.8,10.6 L30.4,12.3 L28.8,14.1 L33.5,12.9 L33,9.3 Z" id="Shape" fill="#FFFFFF" sketch:type="MSShapeGroup"></path>
            <path d="M35.2,19.9 L39.5,20.2 L40.2,19.2 L36.2,17.2 L35.2,19.9 Z" id="Shape" fill="#FFFFFF" sketch:type="MSShapeGroup"></path>
            <g id="Group">
                <g id="Clipped">
                    <mask id="mask-2" sketch:name="SVGID_1_" fill="white">
                        <use xlink:href="#path-1"></use>
                    </mask>
                    <g id="SVGID_1_"></g>
                    <path d="M25.2,35.9 C20.6,31.2 13,31.1 8.3,35.7 C4.5,39.3 3.6,44.9 5.8,49.5 L0.7,54.5 C-0.3,55.5 -0.3,57.2 0.7,58.2 L2.3,59.9 C3.3,60.9 5,60.9 6,59.9 L11.1,54.9 C15.7,57.2 21.3,56.4 25,52.8 C29.8,48.2 29.9,40.6 25.2,35.9 M21.5,49 C18.9,51.6 14.5,51.6 11.9,48.9 C9.3,46.3 9.3,41.9 12,39.3 C14.6,36.7 19,36.7 21.6,39.4 C24.1,42.1 24,46.5 21.5,49" id="Shape" fill="#FFFFFF" sketch:type="MSShapeGroup" mask="url(#mask-2)"></path>
                </g>
                <g id="Clipped">
                    <mask id="mask-4" sketch:name="SVGID_1_" fill="white">
                        <use xlink:href="#path-3"></use>
                    </mask>
                    <g id="SVGID_1_"></g>
                    <path d="M63.7,30.3 C63.7,19.7 58.2,10.3 49.9,4.9 L50,4.9 C45.2,1.8 39.5,0 33.5,0 L33.4,0 C16.6,0 3.1,13.6 3.1,30.3 C3.1,32.5 3.3,34.6 3.8,36.6 C4.5,35.5 5.3,34.4 6.2,33.5 C9,30.7 12.7,29.2 16.7,29.2 L17.2,29.2 L17.1,28.9 L22.2,22.6 L20.8,19.5 L23.3,17.5 L28,13.5 L27,11.4 L32.1,6.7 L36.5,7.7 L43.5,6.2 C52.8,10.1 59.4,19.4 59.4,30.1 L57,32.1 L56.2,36.3 L52.5,29 L47.8,27.9 L47,30.6 L41.8,33.9 L45.1,34.8 L40.1,42.4 L39.8,47.9 L35.8,54.6 L31.5,55.6 C31.5,55.6 30.7,53.4 30,51.3 C29.3,52.6 28.4,53.9 27.3,55 C25.7,56.5 23.9,57.7 21.9,58.4 C25.5,59.9 29.4,60.7 33.5,60.7 L33.6,60.7 C49.2,60.7 62,48.9 63.7,33.8 L63.6,33.7 C63.5,32.5 63.7,31.4 63.7,30.3 L63.7,30.3 Z M18.1,10 L20.2,8.8 L20.7,10.2 L18.1,10 L18.1,10 Z M23.4,16 L21.7,15.3 L22.4,13.7 L22.7,11.9 L23.9,11.6 L25.4,14.9 L23.4,16 L23.4,16 Z M30.5,5.3 L30,4.4 C30.7,4.4 31.4,4.3 32.1,4.3 L30.5,5.3 L30.5,5.3 Z" id="Shape" fill="#FFFFFF" sketch:type="MSShapeGroup" mask="url(#mask-4)"></path>
                </g>
            </g>
        </g>
    </g>
</svg>