<?xml version="1.0" encoding="UTF-8" standalone="no"?>
<svg width="31px" height="31px" viewBox="0 0 31 31" version="1.1" xmlns="http://www.w3.org/2000/svg" xmlns:xlink="http://www.w3.org/1999/xlink" xmlns:sketch="http://www.bohemiancoding.com/sketch/ns">
    <!-- Generator: Sketch 3.3.3 (12081) - http://www.bohemiancoding.com/sketch -->
    <title>star</title>
    <desc>Created with Sketch.</desc>
    <defs></defs>
    <g id="Page-1" stroke="none" stroke-width="1" fill="none" fill-rule="evenodd" sketch:type="MSPage">
        <g id="star" sketch:type="MSLayerGroup" transform="translate(-1.000000, 0.000000)" fill="#FFFFFF">
            <path d="M23.154,30.999 L15.622,27.061 L8.09,30.998 L5.653,29.237 L7.092,20.897 L0.999,14.992 L1.93,12.144 L10.349,10.927 L14.116,3.34 L17.128,4.819 L12.971,13.193 L11.706,14.106 L5.78,14.962 L10.069,19.119 L10.552,20.597 L9.539,26.467 L14.84,23.696 L16.403,23.696 L21.705,26.467 L20.692,20.597 L21.175,19.119 L27.9,12.601 L30.245,14.992 L24.152,20.898 L25.591,29.238 L23.154,30.999 L23.154,30.999 Z" id="Shape" sketch:type="MSShapeGroup"></path>
            <path d="M31.518,12.109 L22.225,10.766 L20.96,9.852 L16.803,1.478 L19.815,0 L23.582,7.587 L32.001,8.804 L31.518,12.109 L31.518,12.109 Z" id="Shape" sketch:type="MSShapeGroup"></path>
        </g>
    </g>
</svg>