<?xml version="1.0" encoding="UTF-8" standalone="no"?>
<svg width="64px" height="61px" viewBox="0 0 64 61" version="1.1" xmlns="http://www.w3.org/2000/svg" xmlns:xlink="http://www.w3.org/1999/xlink" xmlns:sketch="http://www.bohemiancoding.com/sketch/ns">
    <!-- Generator: Sketch 3.3.3 (12081) - http://www.bohemiancoding.com/sketch -->
    <title>study</title>
    <desc>Created with Sketch.</desc>
    <defs>
        <rect id="path-1" x="0" y="0" width="63.8" height="60.7"></rect>
        <rect id="path-3" x="0" y="0" width="63.8" height="60.7"></rect>
    </defs>
    <g id="Page-1" stroke="none" stroke-width="1" fill="none" fill-rule="evenodd" sketch:type="MSPage">
        <g id="study" sketch:type="MSLayerGroup">
            <g id="Group">
                <g id="Clipped">
                    <mask id="mask-2" sketch:name="SVGID_1_" fill="white">
                        <use xlink:href="#path-1"></use>
                    </mask>
                    <g id="SVGID_1_"></g>
                    <path d="M25.2,35.9 C20.6,31.2 13,31.1 8.2,35.7 C4.5,39.3 3.6,44.9 5.8,49.5 L0.7,54.5 C-0.3,55.5 -0.3,57.2 0.7,58.2 L2.3,59.9 C3.3,60.9 5,60.9 6,59.9 L11.1,54.9 C15.7,57.3 21.3,56.4 25,52.8 C29.8,48.3 29.9,40.6 25.2,35.9 M21.5,49.2 C18.8,51.8 14.5,51.8 11.8,49.1 C9.2,46.4 9.2,42.1 11.9,39.4 C14.6,36.8 18.9,36.8 21.6,39.5 C24.1,42.2 24.1,46.6 21.5,49.2" id="Shape" fill="#FF8E02" sketch:type="MSShapeGroup" mask="url(#mask-2)"></path>
                </g>
                <g id="Clipped">
                    <mask id="mask-4" sketch:name="SVGID_1_" fill="white">
                        <use xlink:href="#path-3"></use>
                    </mask>
                    <g id="SVGID_1_"></g>
                    <path d="M60.6,8.1 L60,8.1 L60,3.1 C60,1.4 58.6,0 56.9,0 L16.6,0 C14.9,0 13.5,1.4 13.5,3.1 L13.5,8.1 L13.5,29.6 C14.5,29.4 15.6,29.3 16.6,29.3 C20.7,29.3 24.5,30.9 27.3,33.8 C33.1,39.7 33,49.3 27.1,55.1 C24.3,57.8 20.7,59.3 16.8,59.3 L17.5,60.4 C17.6,60.6 17.8,60.7 18,60.7 L21.2,60.7 L59.7,60.7 L60.6,60.7 C62.3,60.7 63.7,59.3 63.7,57.6 L63.7,11.2 C63.8,9.5 62.3,8.1 60.6,8.1 L60.6,8.1 Z M42,8.1 L42,23.4 C42,23.9 41.4,24.2 41.1,23.8 L36.1,19.5 C35.8,19.3 35.4,19.3 35.1,19.5 L29.8,23.8 C29.4,24.1 28.8,23.8 28.8,23.3 L28.8,8.1 L23,8.1 C22.5,8.1 22.1,8 21.7,7.8 C21.2,7.6 20.8,7.3 20.5,6.9 L18.9,4.8 C18.5,4.3 18.9,3.5 19.5,3.5 L53.7,3.5 L56.7,7.8 L56.9,8.1 L42,8.1 L42,8.1 Z" id="Shape" fill="#23232C" sketch:type="MSShapeGroup" mask="url(#mask-4)"></path>
                </g>
            </g>
        </g>
    </g>
</svg>